STARTFONT 2.1
FONT -FontForge-Roboto-Book-R-Normal--36-360-72-72-P-202-ISO10646-1
SIZE 36 72 72
FONTBOUNDINGBOX 68 47 -27 -9
COMMENT "Generated by fontforge, http://fontforge.sourceforge.net"
COMMENT "Copyright 2011 Google Inc. All Rights Reserved."
STARTPROPERTIES 41
FOUNDRY "FontForge"
FAMILY_NAME "Roboto"
WEIGHT_NAME "Book"
SLANT "R"
SETWIDTH_NAME "Normal"
ADD_STYLE_NAME ""
PIXEL_SIZE 36
POINT_SIZE 360
RESOLUTION_X 72
RESOLUTION_Y 72
SPACING "P"
AVERAGE_WIDTH 202
CHARSET_REGISTRY "ISO10646"
CHARSET_ENCODING "1"
FONTNAME_REGISTRY ""
CHARSET_COLLECTIONS "ISO8859-2 ISO8859-5 ISO8859-7 ISO8859-9 ISO8859-4 ISO10646-1"
FONT_NAME "Roboto-Regular"
FACE_NAME "Roboto"
COPYRIGHT "Copyright 2011 Google Inc. All Rights Reserved."
FONT_VERSION "2.137; 2017"
FONT_ASCENT 27
FONT_DESCENT 9
UNDERLINE_POSITION -4
UNDERLINE_THICKNESS 2
X_HEIGHT 18
CAP_HEIGHT 25
DEFAULT_CHAR 1
RAW_ASCENT 750
RAW_DESCENT 250
NORM_SPACE 9
RELATIVE_WEIGHT 40
RELATIVE_SETWIDTH 50
SUPERSCRIPT_X 0
SUPERSCRIPT_Y 17
SUPERSCRIPT_SIZE 23
SUBSCRIPT_X 0
SUBSCRIPT_Y 5
SUBSCRIPT_SIZE 23
FIGURE_WIDTH 20
AVG_LOWERCASE_WIDTH 197
AVG_UPPERCASE_WIDTH 236
ENDPROPERTIES
CHARS 1296
STARTCHAR glyph1.dup1
ENCODING 0
SWIDTH 0 0
DWIDTH 0 0
BBX 1 1 0 0
BITMAP
00
ENDCHAR
STARTCHAR uni0002
ENCODING 2
SWIDTH 0 0
DWIDTH 0 0
BBX 1 1 0 0
BITMAP
00
ENDCHAR
STARTCHAR uni000D
ENCODING 13
SWIDTH 247 0
DWIDTH 9 0
BBX 1 1 0 0
BITMAP
00
ENDCHAR
STARTCHAR space
ENCODING 32
SWIDTH 247 0
DWIDTH 9 0
BBX 1 1 0 0
BITMAP
00
ENDCHAR
STARTCHAR exclam
ENCODING 33
SWIDTH 257 0
DWIDTH 9 0
BBX 4 26 3 0
BITMAP
E0
E0
E0
E0
E0
E0
E0
E0
E0
E0
E0
E0
E0
E0
E0
E0
E0
E0
00
00
00
00
E0
F0
F0
E0
ENDCHAR
STARTCHAR quotedbl
ENCODING 34
SWIDTH 319 0
DWIDTH 12 0
BBX 8 9 2 18
BITMAP
E7
E7
E7
E7
E6
E6
E6
C6
C6
ENDCHAR
STARTCHAR numbersign
ENCODING 35
SWIDTH 615 0
DWIDTH 22 0
BBX 20 26 2 0
BITMAP
00C1C0
00C180
01C180
01C380
018380
018300
018300
7FFFF0
7FFFF0
030700
030600
030600
070600
070E00
070E00
060E00
FFFFC0
FFFFC0
0E1C00
0E1C00
0C1C00
0C1800
1C1800
1C3800
1C3800
1C3800
ENDCHAR
STARTCHAR dollar
ENCODING 36
SWIDTH 561 0
DWIDTH 20 0
BBX 16 33 2 -3
BITMAP
01C0
01C0
01C0
01C0
07F0
1FF8
3FFC
3C1E
780F
700F
7007
7007
7000
7800
3E00
1F80
0FF0
07FC
00FE
001E
000F
0007
E007
E007
F007
F00F
7C1F
3FFE
1FFC
0FF0
01C0
01C0
01C0
ENDCHAR
STARTCHAR percent
ENCODING 37
SWIDTH 732 0
DWIDTH 26 0
BBX 23 26 2 0
BITMAP
1E0000
7F8000
61C000
E1C080
C0C0C0
C0C1C0
C0C380
C0C300
E1C700
71CE00
7F8C00
1F1C00
001800
003000
0071F0
0063F8
00E71C
01C60E
018E0E
038E0E
070E0E
060E0E
0E060E
04071C
0003F8
0001F0
ENDCHAR
STARTCHAR ampersand
ENCODING 38
SWIDTH 621 0
DWIDTH 22 0
BBX 20 26 2 0
BITMAP
07E000
0FF800
1FF800
3C3C00
3C1C00
381C00
381C00
381C00
3C3800
1EF800
0FE000
0FC000
0F8000
1FC000
3DE0E0
78F0E0
F078E0
E039C0
E03DC0
E01FC0
E00F80
F00F80
7C1FC0
7FFFC0
1FFDE0
07E0F0
ENDCHAR
STARTCHAR quotesingle
ENCODING 39
SWIDTH 174 0
DWIDTH 6 0
BBX 2 8 2 19
BITMAP
C0
C0
C0
C0
C0
C0
C0
C0
ENDCHAR
STARTCHAR parenleft
ENCODING 40
SWIDTH 341 0
DWIDTH 12 0
BBX 10 37 2 -8
BITMAP
0080
0180
03C0
0700
0E00
0E00
1C00
1C00
3800
3800
7800
7000
7000
7000
7000
F000
F000
F000
F000
F000
F000
F000
7000
7000
7000
7000
7800
3800
3800
1C00
1C00
0E00
0E00
0700
0380
01C0
0080
ENDCHAR
STARTCHAR parenright
ENCODING 41
SWIDTH 347 0
DWIDTH 13 0
BBX 9 37 1 -8
BITMAP
8000
C000
E000
7000
3800
1C00
1C00
0E00
0E00
0E00
0700
0700
0700
0780
0780
0380
0380
0380
0380
0380
0380
0380
0780
0780
0700
0700
0700
0E00
0E00
0E00
1C00
1C00
3800
7000
E000
C000
8000
ENDCHAR
STARTCHAR asterisk
ENCODING 42
SWIDTH 430 0
DWIDTH 16 0
BBX 15 15 0 11
BITMAP
0380
0380
0180
0180
4184
799E
7FFE
BFF8
03C0
07C0
0EE0
0E70
1C78
3838
0820
ENDCHAR
STARTCHAR plus
ENCODING 43
SWIDTH 566 0
DWIDTH 20 0
BBX 18 18 1 3
BITMAP
00E000
00E000
00E000
00E000
00E000
00E000
00E000
FFFFC0
FFFFC0
FFFFC0
00E000
00E000
00E000
00E000
00E000
00E000
00E000
00E000
ENDCHAR
STARTCHAR comma
ENCODING 44
SWIDTH 196 0
DWIDTH 7 0
BBX 4 9 1 -5
BITMAP
70
70
70
70
70
70
E0
E0
40
ENDCHAR
STARTCHAR hyphen
ENCODING 45
SWIDTH 275 0
DWIDTH 10 0
BBX 8 3 1 9
BITMAP
FF
FF
FF
ENDCHAR
STARTCHAR period
ENCODING 46
SWIDTH 263 0
DWIDTH 9 0
BBX 4 4 3 0
BITMAP
E0
F0
F0
E0
ENDCHAR
STARTCHAR slash
ENCODING 47
SWIDTH 412 0
DWIDTH 15 0
BBX 14 28 0 -2
BITMAP
001C
0038
0038
0030
0070
0070
0060
00E0
00E0
01C0
01C0
0180
0380
0380
0700
0700
0700
0E00
0E00
0C00
1C00
1C00
3800
3800
3000
7000
7000
E000
ENDCHAR
STARTCHAR zero
ENCODING 48
SWIDTH 561 0
DWIDTH 20 0
BBX 16 26 2 0
BITMAP
07E0
1FF8
3FFC
7C3E
780E
700F
F00F
F007
E007
E007
E007
E007
E007
E007
E007
E007
E007
E007
F007
F00F
700F
781E
3C3E
3FFC
1FF8
07E0
ENDCHAR
STARTCHAR one
ENCODING 49
SWIDTH 561 0
DWIDTH 20 0
BBX 10 26 3 0
BITMAP
00C0
03C0
1FC0
7FC0
FDC0
F1C0
81C0
01C0
01C0
01C0
01C0
01C0
01C0
01C0
01C0
01C0
01C0
01C0
01C0
01C0
01C0
01C0
01C0
01C0
01C0
01C0
ENDCHAR
STARTCHAR two
ENCODING 50
SWIDTH 561 0
DWIDTH 20 0
BBX 17 26 2 0
BITMAP
07E000
1FF800
3FFC00
783E00
F01E00
E00F00
E00F00
E00F00
000E00
000E00
001E00
001C00
003800
007800
00F000
01E000
03C000
078000
0F0000
0E0000
1C0000
380000
780000
FFFF80
FFFF80
FFFF80
ENDCHAR
STARTCHAR three
ENCODING 51
SWIDTH 561 0
DWIDTH 20 0
BBX 16 26 2 0
BITMAP
07E0
1FF8
3FFC
783E
F00E
E00E
E00E
000E
000E
001E
003C
07F8
07F0
07FC
003E
000E
000F
0007
0007
E007
E00F
F00E
783E
7FFC
3FF8
0FE0
ENDCHAR
STARTCHAR four
ENCODING 52
SWIDTH 561 0
DWIDTH 20 0
BBX 18 26 1 0
BITMAP
001E00
003E00
003E00
007E00
00FE00
00EE00
01CE00
01CE00
038E00
070E00
070E00
0E0E00
1E0E00
1C0E00
380E00
780E00
700E00
FFFFC0
FFFFC0
FFFFC0
000E00
000E00
000E00
000E00
000E00
000E00
ENDCHAR
STARTCHAR five
ENCODING 53
SWIDTH 561 0
DWIDTH 20 0
BBX 16 26 3 0
BITMAP
3FFE
3FFE
3FFE
3800
7800
7000
7000
7000
7000
77E0
7FF8
7FFC
783E
201E
000E
000F
000F
0007
000F
E00F
E00E
F01E
783E
7FFC
1FF8
0FE0
ENDCHAR
STARTCHAR six
ENCODING 54
SWIDTH 561 0
DWIDTH 20 0
BBX 17 26 2 0
BITMAP
007800
03F800
07F800
0F8000
1E0000
3C0000
380000
780000
700000
73F000
7FFC00
FFFE00
FC1E00
F80F00
F00700
F00700
F00700
F00780
700700
700700
780700
380F00
3E1E00
1FFE00
0FF800
03E000
ENDCHAR
STARTCHAR seven
ENCODING 55
SWIDTH 561 0
DWIDTH 20 0
BBX 18 26 1 0
BITMAP
FFFFC0
FFFFC0
FFFF80
000380
000380
000700
000700
000E00
000E00
001C00
001C00
003800
003800
007800
007000
00F000
00E000
00E000
01C000
01C000
038000
038000
078000
070000
0F0000
0E0000
ENDCHAR
STARTCHAR eight
ENCODING 56
SWIDTH 561 0
DWIDTH 20 0
BBX 16 26 2 0
BITMAP
07E0
1FF8
3FFC
7C3E
780E
700F
700F
700F
700E
780E
3C3C
1FF8
0FF0
3FFC
7C3E
700E
F007
E007
E007
E007
F007
F00F
7C1E
3FFE
1FF8
07E0
ENDCHAR
STARTCHAR nine
ENCODING 57
SWIDTH 561 0
DWIDTH 20 0
BBX 16 26 2 0
BITMAP
07E0
1FF0
3FF8
7C3C
701E
F00E
E00E
E00F
E007
E007
E007
F00F
F01F
783F
3FF7
1FEF
0FCE
000E
000E
001E
001C
007C
01F8
1FF0
1FC0
1F00
ENDCHAR
STARTCHAR colon
ENCODING 58
SWIDTH 242 0
DWIDTH 9 0
BBX 4 19 2 0
BITMAP
70
F0
F0
70
00
00
00
00
00
00
00
00
00
00
00
70
F0
F0
70
ENDCHAR
STARTCHAR semicolon
ENCODING 59
SWIDTH 211 0
DWIDTH 8 0
BBX 5 24 1 -5
BITMAP
30
78
78
30
00
00
00
00
00
00
00
00
00
00
00
78
78
78
78
70
70
F0
E0
40
ENDCHAR
STARTCHAR less
ENCODING 60
SWIDTH 508 0
DWIDTH 18 0
BBX 15 16 1 3
BITMAP
0002
001E
007E
01FE
07F0
1FC0
7E00
F800
F800
7E00
1FC0
07F0
01FE
007E
001E
0002
ENDCHAR
STARTCHAR equal
ENCODING 61
SWIDTH 548 0
DWIDTH 20 0
BBX 14 10 3 7
BITMAP
FFFC
FFFC
FFFC
0000
0000
0000
0000
FFFC
FFFC
FFFC
ENDCHAR
STARTCHAR greater
ENCODING 62
SWIDTH 522 0
DWIDTH 19 0
BBX 15 16 2 3
BITMAP
C000
F000
FC00
7F00
1FC0
03F8
00FE
001E
001E
00FE
03F8
1FC0
7F00
FC00
F000
8000
ENDCHAR
STARTCHAR question
ENCODING 63
SWIDTH 472 0
DWIDTH 17 0
BBX 15 26 1 0
BITMAP
0FE0
1FF0
3FF8
783C
701C
F01E
001E
001E
001C
003C
0078
0078
00F0
01E0
03C0
0380
0780
0780
0000
0000
0000
0000
0300
0780
0780
0300
ENDCHAR
STARTCHAR at
ENCODING 64
SWIDTH 897 0
DWIDTH 32 0
BBX 29 33 2 -8
BITMAP
001FE000
007FFC00
01F01E00
03800780
07000180
0E0000C0
1C0000E0
38000060
3807C070
301FF030
703C3030
60383030
60703030
E0707038
E0E07038
E0E07038
E0E07038
E0E07030
E0C07030
E0C06030
E0E0E070
E0E0F060
60F1F0E0
607F3FC0
703E1F00
70000000
38000000
1C000000
1E000000
0F000000
07C07000
01FFF000
003FC000
ENDCHAR
STARTCHAR A
ENCODING 65
SWIDTH 652 0
DWIDTH 23 0
BBX 23 26 0 0
BITMAP
003800
007C00
007C00
007C00
00EE00
00EE00
00EE00
01C700
01C700
03C780
038380
038380
0701C0
0701C0
0701C0
0E00E0
0FFFE0
1FFFF0
1FFFF0
1C0070
3C0078
380038
380038
78003C
70001C
F0001E
ENDCHAR
STARTCHAR B
ENCODING 66
SWIDTH 622 0
DWIDTH 22 0
BBX 17 26 3 0
BITMAP
FFF000
FFFC00
FFFE00
E01F00
E00700
E00780
E00780
E00780
E00700
E00F00
E01E00
FFFC00
FFF800
FFFE00
E00F00
E00780
E00380
E00380
E00380
E00380
E00380
E00780
E00F00
FFFF00
FFFE00
FFF000
ENDCHAR
STARTCHAR C
ENCODING 67
SWIDTH 650 0
DWIDTH 23 0
BBX 20 26 2 0
BITMAP
01FC00
07FF00
0FFF80
1F07C0
3C01E0
7801E0
7800E0
7000F0
F000F0
F00000
F00000
E00000
E00000
E00000
E00000
F00000
F00000
F00000
7000F0
7800E0
7801E0
3C01E0
1F07C0
1FFF80
07FF00
01FC00
ENDCHAR
STARTCHAR D
ENCODING 68
SWIDTH 655 0
DWIDTH 24 0
BBX 18 26 3 0
BITMAP
FFE000
FFF800
FFFC00
E03F00
E00F00
E00780
E00380
E003C0
E001C0
E001C0
E001C0
E001C0
E001C0
E001C0
E001C0
E001C0
E001C0
E001C0
E003C0
E00380
E00780
E00F00
E03F00
FFFE00
FFF800
FFE000
ENDCHAR
STARTCHAR E
ENCODING 69
SWIDTH 568 0
DWIDTH 20 0
BBX 16 26 3 0
BITMAP
FFFF
FFFF
FFFF
E000
E000
E000
E000
E000
E000
E000
E000
FFFC
FFFC
FFFC
E000
E000
E000
E000
E000
E000
E000
E000
E000
FFFF
FFFF
FFFF
ENDCHAR
STARTCHAR F
ENCODING 70
SWIDTH 552 0
DWIDTH 20 0
BBX 16 26 3 0
BITMAP
FFFF
FFFF
FFFF
E000
E000
E000
E000
E000
E000
E000
E000
E000
FFFC
FFFC
FFFC
E000
E000
E000
E000
E000
E000
E000
E000
E000
E000
E000
ENDCHAR
STARTCHAR G
ENCODING 71
SWIDTH 681 0
DWIDTH 25 0
BBX 20 26 2 0
BITMAP
01FC00
07FF00
1FFF80
1F07C0
3C01E0
7800E0
7800F0
7000F0
F00000
F00000
F00000
F00000
F00000
F01FF0
F01FF0
F01FF0
F00070
F00070
700070
780070
380070
3C00F0
1F03F0
0FFFE0
07FF80
01FE00
ENDCHAR
STARTCHAR H
ENCODING 72
SWIDTH 712 0
DWIDTH 26 0
BBX 20 26 3 0
BITMAP
E000F0
E000F0
E000F0
E000F0
E000F0
E000F0
E000F0
E000F0
E000F0
E000F0
E000F0
FFFFF0
FFFFF0
FFFFF0
E000F0
E000F0
E000F0
E000F0
E000F0
E000F0
E000F0
E000F0
E000F0
E000F0
E000F0
E000F0
ENDCHAR
STARTCHAR I
ENCODING 73
SWIDTH 271 0
DWIDTH 10 0
BBX 4 26 3 0
BITMAP
F0
F0
F0
F0
F0
F0
F0
F0
F0
F0
F0
F0
F0
F0
F0
F0
F0
F0
F0
F0
F0
F0
F0
F0
F0
F0
ENDCHAR
STARTCHAR J
ENCODING 74
SWIDTH 551 0
DWIDTH 20 0
BBX 16 26 1 0
BITMAP
0007
0007
0007
0007
0007
0007
0007
0007
0007
0007
0007
0007
0007
0007
0007
0007
0007
0007
0007
E007
F00F
F00F
7C3E
3FFC
1FF8
07E0
ENDCHAR
STARTCHAR K
ENCODING 75
SWIDTH 626 0
DWIDTH 23 0
BBX 20 26 3 0
BITMAP
E003E0
E00780
E00F80
E00F00
E01E00
E03C00
E07800
E0F000
E1E000
E3C000
E7C000
E78000
EF8000
FFC000
FDE000
F8F000
F0F000
E07800
E03C00
E01E00
E01E00
E00F00
E00780
E003C0
E003C0
E001F0
ENDCHAR
STARTCHAR L
ENCODING 76
SWIDTH 538 0
DWIDTH 19 0
BBX 16 26 3 0
BITMAP
E000
E000
E000
E000
E000
E000
E000
E000
E000
E000
E000
E000
E000
E000
E000
E000
E000
E000
E000
E000
E000
E000
E000
FFFF
FFFF
FFFF
ENDCHAR
STARTCHAR M
ENCODING 77
SWIDTH 873 0
DWIDTH 31 0
BBX 25 26 3 0
BITMAP
F8000780
F8000F80
F8000F80
FC000F80
FC001F80
FE001F80
EE003F80
EE003B80
EF003B80
E7007B80
E7007380
E3807380
E380E380
E3C0E380
E1C1E380
E1C1C380
E0E1C380
E0E38380
E0F38380
E0778380
E0770380
E03F0380
E03E0380
E03E0380
E01E0380
E01C0380
ENDCHAR
STARTCHAR N
ENCODING 78
SWIDTH 712 0
DWIDTH 26 0
BBX 20 26 3 0
BITMAP
F00070
F80070
F80070
FC0070
FE0070
FE0070
FF0070
F70070
F78070
F3C070
F1C070
F1E070
F0F070
F0F070
F07870
F03C70
F03C70
F01E70
F00E70
F00F70
F007F0
F003F0
F003F0
F001F0
F000F0
F000F0
ENDCHAR
STARTCHAR O
ENCODING 79
SWIDTH 687 0
DWIDTH 25 0
BBX 21 26 2 0
BITMAP
01FC00
07FF00
0FFF80
1F07C0
3C01E0
7800E0
7800F0
700070
F00070
F00070
F00078
E00078
E00078
E00078
E00078
F00078
F00070
F00070
700070
7800F0
7800E0
3C01E0
1F07C0
0FFF80
07FF00
01FC00
ENDCHAR
STARTCHAR P
ENCODING 80
SWIDTH 630 0
DWIDTH 23 0
BBX 19 26 3 0
BITMAP
FFF800
FFFE00
FFFF00
F00F80
F003C0
F001C0
F001C0
F001E0
F001E0
F001C0
F001C0
F003C0
F00F80
FFFF80
FFFE00
FFF800
F00000
F00000
F00000
F00000
F00000
F00000
F00000
F00000
F00000
F00000
ENDCHAR
STARTCHAR Q
ENCODING 81
SWIDTH 687 0
DWIDTH 25 0
BBX 21 30 2 -4
BITMAP
01FC00
07FF00
0FFF80
1F07C0
3C01E0
7800E0
7800F0
700070
F00070
F00070
E00078
E00078
E00078
E00078
E00078
E00078
F00070
F00070
700070
7800F0
7800E0
3C01E0
1F07C0
0FFF80
07FF00
01FFC0
0003E0
0001F0
000078
000020
ENDCHAR
STARTCHAR R
ENCODING 82
SWIDTH 615 0
DWIDTH 22 0
BBX 18 26 3 0
BITMAP
FFF000
FFFC00
FFFE00
E01F00
E00780
E00780
E00380
E00380
E00380
E00380
E00780
E00780
E01F00
FFFE00
FFFC00
FFF800
E03800
E03C00
E01C00
E01E00
E00E00
E00F00
E00780
E00780
E003C0
E001C0
ENDCHAR
STARTCHAR S
ENCODING 83
SWIDTH 593 0
DWIDTH 21 0
BBX 19 26 1 0
BITMAP
03F800
0FFE00
1FFF80
3E0780
7803C0
7801C0
7001E0
7001E0
780000
3C0000
3E0000
1FC000
07F800
01FE00
003F80
0007C0
0003C0
0001E0
F001E0
F001E0
7001E0
7801C0
3E07C0
1FFF80
0FFF00
03FC00
ENDCHAR
STARTCHAR T
ENCODING 84
SWIDTH 596 0
DWIDTH 21 0
BBX 20 26 1 0
BITMAP
FFFFF0
FFFFF0
FFFFF0
00E000
00E000
00E000
00E000
00E000
00E000
00E000
00E000
00E000
00E000
00E000
00E000
00E000
00E000
00E000
00E000
00E000
00E000
00E000
00E000
00E000
00E000
00E000
ENDCHAR
STARTCHAR U
ENCODING 85
SWIDTH 648 0
DWIDTH 23 0
BBX 19 26 2 0
BITMAP
F001E0
F001E0
F001E0
F001E0
F001E0
F001E0
F001E0
F001E0
F001E0
F001E0
F001E0
F001E0
F001E0
F001E0
F001E0
F001E0
F001E0
F001E0
F001E0
F001E0
7001C0
7803C0
3E0F80
1FFF00
0FFE00
03F800
ENDCHAR
STARTCHAR V
ENCODING 86
SWIDTH 636 0
DWIDTH 23 0
BBX 22 26 1 0
BITMAP
E0003C
F00078
F00078
700070
7800F0
3800F0
3800E0
3C01E0
1C01C0
1C01C0
1E03C0
0E0380
0E0380
0F0780
070700
070700
038E00
038E00
039E00
01DC00
01DC00
01FC00
00F800
00F800
00F800
007000
ENDCHAR
STARTCHAR W
ENCODING 87
SWIDTH 887 0
DWIDTH 32 0
BBX 30 26 1 0
BITMAP
F003801C
F007803C
7007803C
7007C038
700FC038
780FC038
380FC078
380EE070
381CE070
3C1CE070
1C1C60F0
1C1C70E0
1C3870E0
1E3870E0
0E3838E0
0E7039C0
0E7039C0
0E7019C0
0F701DC0
07E01DC0
07E01F80
07E00F80
07C00F80
03C00F80
03C00F00
03C00700
ENDCHAR
STARTCHAR X
ENCODING 88
SWIDTH 626 0
DWIDTH 23 0
BBX 21 26 1 0
BITMAP
F000F0
7800E0
3C01E0
3C03C0
1E03C0
0F0780
0F0F00
078F00
039E00
03DC00
01FC00
01F800
00F800
00F800
01F800
01FC00
03DE00
079E00
078F00
0F0780
1E0780
1E03C0
3C03C0
3C01E0
7800F0
F000F8
ENDCHAR
STARTCHAR Y
ENCODING 89
SWIDTH 600 0
DWIDTH 22 0
BBX 21 26 0 0
BITMAP
F00078
780070
3800F0
3C00E0
1C01E0
1E01C0
0E03C0
0F0380
070780
078700
038F00
03CE00
01DE00
00FC00
00F800
007800
007000
007000
007000
007000
007000
007000
007000
007000
007000
007000
ENDCHAR
STARTCHAR Z
ENCODING 90
SWIDTH 598 0
DWIDTH 22 0
BBX 18 26 2 0
BITMAP
FFFFC0
FFFFC0
FFFFC0
000780
000F00
000F00
001E00
003C00
003C00
007800
00F000
00E000
01E000
03C000
038000
078000
0F0000
1E0000
1E0000
3C0000
780000
780000
F00000
FFFFC0
FFFFC0
FFFFC0
ENDCHAR
STARTCHAR bracketleft
ENCODING 91
SWIDTH 265 0
DWIDTH 10 0
BBX 6 34 3 -5
BITMAP
FC
FC
FC
E0
E0
E0
E0
E0
E0
E0
E0
E0
E0
E0
E0
E0
E0
E0
E0
E0
E0
E0
E0
E0
E0
E0
E0
E0
E0
E0
E0
FC
FC
FC
ENDCHAR
STARTCHAR backslash
ENCODING 92
SWIDTH 410 0
DWIDTH 15 0
BBX 13 28 1 -2
BITMAP
E000
E000
7000
7000
7800
3800
3800
1C00
1C00
1C00
0E00
0E00
0F00
0700
0700
0380
0380
0380
01C0
01C0
00E0
00E0
00E0
0070
0070
0078
0038
0038
ENDCHAR
STARTCHAR bracketright
ENCODING 93
SWIDTH 265 0
DWIDTH 10 0
BBX 7 34 0 -5
BITMAP
FE
FE
FE
0E
0E
0E
0E
0E
0E
0E
0E
0E
0E
0E
0E
0E
0E
0E
0E
0E
0E
0E
0E
0E
0E
0E
0E
0E
0E
0E
0E
FE
FE
FE
ENDCHAR
STARTCHAR asciicircum
ENCODING 94
SWIDTH 417 0
DWIDTH 15 0
BBX 13 13 1 13
BITMAP
0700
0700
0F80
0F80
0D80
1DC0
1DC0
38E0
38E0
30E0
7070
7070
E038
ENDCHAR
STARTCHAR underscore
ENCODING 95
SWIDTH 451 0
DWIDTH 16 0
BBX 16 3 0 -3
BITMAP
FFFF
FFFF
FFFF
ENDCHAR
STARTCHAR grave
ENCODING 96
SWIDTH 309 0
DWIDTH 11 0
BBX 7 5 1 22
BITMAP
F0
78
3C
1E
0E
ENDCHAR
STARTCHAR a
ENCODING 97
SWIDTH 543 0
DWIDTH 20 0
BBX 16 19 2 0
BITMAP
07E0
1FF8
3FFC
7C3E
701E
700E
000E
000E
07FE
3FFE
7FFE
780E
F00E
E00E
F01E
F83E
7FFE
3FEE
0F8F
ENDCHAR
STARTCHAR b
ENCODING 98
SWIDTH 561 0
DWIDTH 20 0
BBX 16 27 2 0
BITMAP
F000
F000
F000
F000
F000
F000
F000
F000
F3F0
FFF8
FFFC
FC3E
F00F
F00F
F007
F007
F007
F007
F007
F007
F007
F00F
F80F
FC1E
FFFC
EFF8
E3F0
ENDCHAR
STARTCHAR c
ENCODING 99
SWIDTH 523 0
DWIDTH 19 0
BBX 16 19 2 0
BITMAP
07E0
1FF8
3FFC
7C3E
700E
F00F
E007
E000
E000
E000
E000
E000
E000
F00F
700E
7C3E
3FFC
1FF8
07E0
ENDCHAR
STARTCHAR d
ENCODING 100
SWIDTH 563 0
DWIDTH 20 0
BBX 16 27 2 0
BITMAP
000F
000F
000F
000F
000F
000F
000F
000F
0FCF
1FFF
3FFF
7C3F
F00F
F00F
E00F
E00F
E00F
E00F
E00F
E00F
E00F
F00F
F00F
7C3F
3FFF
1FFF
0FC7
ENDCHAR
STARTCHAR e
ENCODING 101
SWIDTH 529 0
DWIDTH 19 0
BBX 16 19 2 0
BITMAP
07E0
1FF8
3FFC
7C3C
701E
F00E
E00E
E00F
FFFF
FFFF
FFFF
E000
E000
F000
7004
7C1E
3FFE
1FF8
07F0
ENDCHAR
STARTCHAR f
ENCODING 102
SWIDTH 347 0
DWIDTH 13 0
BBX 12 27 1 0
BITMAP
01F0
07F0
0FF0
0F00
1E00
1E00
1E00
1E00
FFE0
FFE0
FFE0
1E00
1E00
1E00
1E00
1E00
1E00
1E00
1E00
1E00
1E00
1E00
1E00
1E00
1E00
1E00
1E00
ENDCHAR
STARTCHAR g
ENCODING 103
SWIDTH 561 0
DWIDTH 20 0
BBX 16 26 2 -7
BITMAP
0FC7
1FF7
3FFF
7C3F
F00F
F00F
E00F
E00F
E00F
E00F
E00F
E00F
E00F
F00F
700F
7C3F
3FFF
1FFF
0FCF
000F
000E
201E
783E
7FFC
3FF8
0FE0
ENDCHAR
STARTCHAR h
ENCODING 104
SWIDTH 550 0
DWIDTH 20 0
BBX 15 27 3 0
BITMAP
E000
E000
E000
E000
E000
E000
E000
E000
E3E0
EFF8
FFFC
F83C
F01C
E01C
E01C
E01E
E01E
E01E
E01E
E01E
E01E
E01E
E01E
E01E
E01E
E01E
E01E
ENDCHAR
STARTCHAR i
ENCODING 105
SWIDTH 242 0
DWIDTH 9 0
BBX 3 26 3 0
BITMAP
E0
E0
E0
E0
00
00
00
E0
E0
E0
E0
E0
E0
E0
E0
E0
E0
E0
E0
E0
E0
E0
E0
E0
E0
E0
ENDCHAR
STARTCHAR j
ENCODING 106
SWIDTH 238 0
DWIDTH 9 0
BBX 7 33 -1 -7
BITMAP
0E
1E
1E
0E
00
00
00
0E
0E
0E
0E
0E
0E
0E
0E
0E
0E
0E
0E
0E
0E
0E
0E
0E
0E
0E
0E
0E
0E
1E
FE
FC
F8
ENDCHAR
STARTCHAR k
ENCODING 107
SWIDTH 506 0
DWIDTH 18 0
BBX 16 27 2 0
BITMAP
F000
F000
F000
F000
F000
F000
F000
F000
F01E
F03C
F078
F0F0
F1E0
F3C0
F780
FF00
FF00
FF80
FBC0
F9E0
F1E0
F0F0
F078
F03C
F03C
F01E
F00F
ENDCHAR
STARTCHAR l
ENCODING 108
SWIDTH 242 0
DWIDTH 9 0
BBX 3 27 3 0
BITMAP
E0
E0
E0
E0
E0
E0
E0
E0
E0
E0
E0
E0
E0
E0
E0
E0
E0
E0
E0
E0
E0
E0
E0
E0
E0
E0
E0
ENDCHAR
STARTCHAR m
ENCODING 109
SWIDTH 876 0
DWIDTH 32 0
BBX 26 19 3 0
BITMAP
E3E07E00
EFF9FF80
FFFFFF80
F83F87C0
F01F01C0
E01E01C0
E01E01C0
E01E01C0
E01E01C0
E01E01C0
E01E01C0
E01E01C0
E01E01C0
E01E01C0
E01E01C0
E01E01C0
E01E01C0
E01E01C0
E01E01C0
ENDCHAR
STARTCHAR n
ENCODING 110
SWIDTH 551 0
DWIDTH 20 0
BBX 14 19 3 0
BITMAP
E3E0
EFF8
FFFC
F83C
F01C
E01C
E01C
E01C
E01C
E01C
E01C
E01C
E01C
E01C
E01C
E01C
E01C
E01C
E01C
ENDCHAR
STARTCHAR o
ENCODING 111
SWIDTH 570 0
DWIDTH 21 0
BBX 17 19 2 0
BITMAP
07E000
1FFC00
3FFE00
7C1E00
780F00
F00780
F00780
E00380
E00380
E00380
E00380
E00380
F00780
F00780
780F00
7C1E00
3FFE00
1FFC00
07F000
ENDCHAR
STARTCHAR p
ENCODING 112
SWIDTH 561 0
DWIDTH 20 0
BBX 16 26 2 -7
BITMAP
E3F0
EFF8
FFFC
FC3E
F00F
F00F
F007
F007
F007
F007
F007
F007
F007
F00F
F00F
FC3E
FFFC
FFF8
F3F0
F000
F000
F000
F000
F000
F000
F000
ENDCHAR
STARTCHAR q
ENCODING 113
SWIDTH 568 0
DWIDTH 20 0
BBX 16 26 1 -7
BITMAP
07E7
1FFF
3FFF
3E1F
7807
7807
7007
7007
F007
F007
F007
7007
7007
7807
7807
3E1F
1FFF
1FFF
07E7
0007
0007
0007
0007
0007
0007
0007
ENDCHAR
STARTCHAR r
ENCODING 114
SWIDTH 338 0
DWIDTH 12 0
BBX 10 19 2 0
BITMAP
F3C0
FFC0
FFC0
FC00
F000
F000
F000
F000
F000
F000
F000
F000
F000
F000
F000
F000
F000
F000
F000
ENDCHAR
STARTCHAR s
ENCODING 115
SWIDTH 515 0
DWIDTH 19 0
BBX 15 19 2 0
BITMAP
0FE0
1FF8
3FFC
783C
701E
700E
7800
7E00
3FE0
0FF8
01FC
003E
001E
E00E
F01E
783E
7FFC
3FF8
0FE0
ENDCHAR
STARTCHAR t
ENCODING 116
SWIDTH 326 0
DWIDTH 12 0
BBX 11 24 0 0
BITMAP
0E00
0E00
0E00
0E00
0E00
FFE0
FFE0
FFE0
0E00
0E00
0E00
0E00
0E00
0E00
0E00
0E00
0E00
0E00
0E00
0E00
0F00
0FE0
07E0
03E0
ENDCHAR
STARTCHAR u
ENCODING 117
SWIDTH 551 0
DWIDTH 20 0
BBX 15 19 2 0
BITMAP
F00E
F00E
F00E
F00E
F00E
F00E
F00E
F00E
F00E
F00E
F00E
F00E
F00E
700E
701E
783E
7FFE
3FFE
0FCE
ENDCHAR
STARTCHAR v
ENCODING 118
SWIDTH 484 0
DWIDTH 17 0
BBX 17 19 0 0
BITMAP
F00780
700700
780F00
380E00
380E00
3C1E00
1C1C00
1C1C00
1E3C00
0E3800
0E3800
063000
077000
077000
036000
03E000
03E000
01C000
01C000
ENDCHAR
STARTCHAR w
ENCODING 119
SWIDTH 751 0
DWIDTH 27 0
BBX 25 19 1 0
BITMAP
E01C0380
E01C0380
F03E0700
703E0700
703E0700
70760700
38770E00
38770E00
38E30E00
18E38C00
1CE39C00
1CC19C00
1DC1DC00
0FC1D800
0F80F800
0F80F800
0780F000
07007000
07007000
ENDCHAR
STARTCHAR x
ENCODING 120
SWIDTH 495 0
DWIDTH 18 0
BBX 16 19 1 0
BITMAP
F00F
781E
381C
3C3C
1C78
0E70
0FF0
07E0
03C0
03C0
07C0
07E0
0FF0
1E70
1C78
3C3C
781C
701E
F00F
ENDCHAR
STARTCHAR y
ENCODING 121
SWIDTH 473 0
DWIDTH 17 0
BBX 17 26 0 -7
BITMAP
F00780
700700
780F00
380E00
380E00
3C1E00
1C1C00
1C1C00
1E3C00
0E3800
0F3800
077000
077000
07F000
03E000
03E000
03E000
01C000
01C000
01C000
038000
038000
070000
7F0000
7E0000
7C0000
ENDCHAR
STARTCHAR z
ENCODING 122
SWIDTH 495 0
DWIDTH 18 0
BBX 15 19 2 0
BITMAP
FFFC
FFFC
FFFC
0038
0078
00F0
01E0
03C0
0380
0780
0F00
1E00
1C00
3C00
7800
F000
FFFE
FFFE
FFFE
ENDCHAR
STARTCHAR braceleft
ENCODING 123
SWIDTH 338 0
DWIDTH 12 0
BBX 11 34 1 -6
BITMAP
0040
01E0
03C0
0700
0F00
0E00
0E00
0E00
0E00
0E00
0E00
0E00
0E00
0E00
1C00
3C00
F800
F800
3C00
1C00
0E00
0E00
0E00
0E00
0E00
0E00
0E00
0E00
0E00
0F00
0700
03C0
01E0
0040
ENDCHAR
STARTCHAR bar
ENCODING 124
SWIDTH 243 0
DWIDTH 9 0
BBX 3 31 3 -5
BITMAP
E0
E0
E0
E0
E0
E0
E0
E0
E0
E0
E0
E0
E0
E0
E0
E0
E0
E0
E0
E0
E0
E0
E0
E0
E0
E0
E0
E0
E0
E0
E0
ENDCHAR
STARTCHAR braceright
ENCODING 125
SWIDTH 338 0
DWIDTH 12 0
BBX 11 34 0 -6
BITMAP
4000
F000
7800
1C00
1E00
0E00
0E00
0E00
0E00
0E00
0E00
0E00
0E00
0E00
0F00
0780
03E0
03E0
0780
0F00
0E00
0E00
0E00
0E00
0E00
0E00
0E00
0E00
0E00
1E00
1C00
7800
F000
4000
ENDCHAR
STARTCHAR asciitilde
ENCODING 126
SWIDTH 680 0
DWIDTH 24 0
BBX 20 7 2 7
BITMAP
1F0070
3FC070
7FE070
71F8E0
E07FE0
E03FC0
000F80
ENDCHAR
STARTCHAR uni00A0
ENCODING 160
SWIDTH 247 0
DWIDTH 9 0
BBX 1 1 0 0
BITMAP
00
ENDCHAR
STARTCHAR exclamdown
ENCODING 161
SWIDTH 243 0
DWIDTH 9 0
BBX 3 25 3 -6
BITMAP
E0
E0
E0
E0
00
00
00
E0
E0
E0
E0
E0
E0
E0
E0
E0
E0
E0
E0
E0
E0
E0
E0
E0
E0
ENDCHAR
STARTCHAR cent
ENCODING 162
SWIDTH 546 0
DWIDTH 20 0
BBX 16 27 2 -4
BITMAP
01C0
01C0
01C0
01C0
07F0
1FF8
3FFC
7C1E
780F
7007
F007
E000
E000
E000
E000
E000
F000
7007
780F
7C1E
3FFC
1FF8
07F0
01C0
01C0
01C0
01C0
ENDCHAR
STARTCHAR sterling
ENCODING 163
SWIDTH 581 0
DWIDTH 21 0
BBX 18 26 2 0
BITMAP
01F800
07FE00
0FFF00
1F0F80
1E0780
3C0380
3C0380
3C0000
3C0000
3C0000
3C0000
3C0000
FFE000
FFE000
FFE000
1C0000
1C0000
1C0000
1C0000
1C0000
1C0000
3C0000
380000
FFFFC0
FFFFC0
FFFFC0
ENDCHAR
STARTCHAR currency
ENCODING 164
SWIDTH 712 0
DWIDTH 26 0
BBX 22 23 2 0
BITMAP
400010
60FC18
F3FF3C
7FFFFC
3F83F8
1E01F0
3C00F0
780078
700038
700038
700038
70003C
70003C
700038
700038
700038
780078
3C00F0
3E01F0
7F83F8
FFFFFC
73FF3C
20FC18
ENDCHAR
STARTCHAR yen
ENCODING 165
SWIDTH 524 0
DWIDTH 19 0
BBX 19 26 0 0
BITMAP
F001E0
7803C0
380380
3C0780
1C0700
1E0F00
0E0E00
0F0E00
071C00
071C00
03BC00
03B800
01F800
3FFF80
3FFF80
00E000
00E000
00E000
3FFF80
3FFF80
00E000
00E000
00E000
00E000
00E000
00E000
ENDCHAR
STARTCHAR brokenbar
ENCODING 166
SWIDTH 239 0
DWIDTH 9 0
BBX 3 31 3 -5
BITMAP
E0
E0
E0
E0
E0
E0
E0
E0
E0
E0
E0
E0
E0
E0
00
00
00
E0
E0
E0
E0
E0
E0
E0
E0
E0
E0
E0
E0
E0
E0
ENDCHAR
STARTCHAR section
ENCODING 167
SWIDTH 613 0
DWIDTH 22 0
BBX 18 35 2 -9
BITMAP
07F800
1FFE00
3FFF00
7C0F80
700780
F00380
F003C0
F003C0
700000
780000
3F0000
1FE000
3FFC00
7BFF00
F03F80
E00F80
E003C0
E001C0
E001C0
F801C0
7E03C0
3FC780
0FFF00
03FE00
007F00
000F80
000780
E00380
E00380
E00380
F00780
7C0F80
7FFF00
1FFE00
07F800
ENDCHAR
STARTCHAR dieresis
ENCODING 168
SWIDTH 417 0
DWIDTH 15 0
BBX 11 4 2 22
BITMAP
E0E0
F1E0
F1E0
E0E0
ENDCHAR
STARTCHAR copyright
ENCODING 169
SWIDTH 785 0
DWIDTH 28 0
BBX 25 26 1 0
BITMAP
007F0000
01FFE000
03C0F000
0F003C00
1C000C00
183F0600
307F8700
30E1C300
61C0C380
6180C180
6180E180
61800180
E1800180
C1800180
61800180
6180E180
6180C180
61C0C380
30E1C300
307F8700
183E0600
1C000C00
0F003C00
07C0F000
01FFE000
007F0000
ENDCHAR
STARTCHAR ordfeminine
ENCODING 170
SWIDTH 446 0
DWIDTH 16 0
BBX 11 14 3 12
BITMAP
1F00
7F80
F1C0
E1C0
21C0
01C0
3FC0
FFC0
E1C0
E1C0
C1C0
E3C0
FEC0
3CE0
ENDCHAR
STARTCHAR guillemotleft
ENCODING 171
SWIDTH 469 0
DWIDTH 17 0
BBX 13 14 2 3
BITMAP
0638
0C30
1C70
38E0
39C0
71C0
E380
E380
71C0
39C0
38E0
1C70
0C30
0638
ENDCHAR
STARTCHAR logicalnot
ENCODING 172
SWIDTH 553 0
DWIDTH 20 0
BBX 15 7 2 7
BITMAP
FFFE
FFFE
FFFE
000E
000E
000E
000E
ENDCHAR
STARTCHAR uni00AD
ENCODING 173
SWIDTH 275 0
DWIDTH 10 0
BBX 8 3 1 9
BITMAP
FF
FF
FF
ENDCHAR
STARTCHAR registered
ENCODING 174
SWIDTH 786 0
DWIDTH 28 0
BBX 25 26 1 0
BITMAP
007F0000
01FFE000
07C0F000
0F003800
1C000C00
18FF0600
30FF8700
30C1C300
60C0C380
60C0C180
60C0C180
E0C1C180
C0FF8180
C0FF8180
E0C1C180
60C0C180
60C0C180
60C0C380
30C0C300
30C0C700
18000600
1C000C00
0F003800
07C0F000
01FFE000
007F0000
ENDCHAR
STARTCHAR macron
ENCODING 175
SWIDTH 458 0
DWIDTH 16 0
BBX 12 3 2 22
BITMAP
FFF0
FFF0
FFF0
ENDCHAR
STARTCHAR degree
ENCODING 176
SWIDTH 373 0
DWIDTH 13 0
BBX 9 9 2 17
BITMAP
1E00
7F00
6380
E180
C180
E180
6380
7F00
1E00
ENDCHAR
STARTCHAR plusminus
ENCODING 177
SWIDTH 534 0
DWIDTH 19 0
BBX 16 22 2 0
BITMAP
0380
0380
0380
0380
0380
0380
0380
FFFF
FFFF
FFFF
0380
0380
0380
0380
0380
0380
0380
0000
0000
FFFE
FFFE
FFFE
ENDCHAR
STARTCHAR uni00B2
ENCODING 178
SWIDTH 366 0
DWIDTH 13 0
BBX 11 14 1 12
BITMAP
1F00
7F80
71C0
E1C0
E0C0
01C0
03C0
0780
0F00
1E00
3C00
7800
FFE0
FFE0
ENDCHAR
STARTCHAR uni00B3
ENCODING 179
SWIDTH 366 0
DWIDTH 13 0
BBX 11 14 1 12
BITMAP
1F00
7F80
F1C0
E0C0
01C0
01C0
0F80
0F80
01C0
00E0
E0E0
F1C0
7FC0
3F00
ENDCHAR
STARTCHAR acute
ENCODING 180
SWIDTH 313 0
DWIDTH 11 0
BBX 8 5 2 22
BITMAP
1F
3C
38
70
E0
ENDCHAR
STARTCHAR mu
ENCODING 181
SWIDTH 566 0
DWIDTH 20 0
BBX 15 26 3 -7
BITMAP
E01E
E01E
E01E
E01E
E01E
E01E
E01E
E01E
E01E
E01E
E01E
E01E
E01E
E01E
F01E
F87E
FFFE
FFFE
EF8E
E000
E000
E000
E000
E000
E000
E000
ENDCHAR
STARTCHAR paragraph
ENCODING 182
SWIDTH 488 0
DWIDTH 18 0
BBX 14 26 1 0
BITMAP
03FC
0FFC
1FFC
3FFC
7FFC
7FFC
7FFC
FFFC
FFFC
FFFC
7FFC
7FFC
7FFC
3FFC
1FFC
0FFC
01FC
001C
001C
001C
001C
001C
001C
001C
001C
001C
ENDCHAR
STARTCHAR periodcentered
ENCODING 183
SWIDTH 260 0
DWIDTH 9 0
BBX 4 4 2 11
BITMAP
70
F0
F0
70
ENDCHAR
STARTCHAR cedilla
ENCODING 184
SWIDTH 247 0
DWIDTH 9 0
BBX 6 7 2 -7
BITMAP
60
F8
78
1C
38
F8
E0
ENDCHAR
STARTCHAR uni00B9
ENCODING 185
SWIDTH 366 0
DWIDTH 13 0
BBX 7 14 2 12
BITMAP
06
3E
FE
CE
0E
0E
0E
0E
0E
0E
0E
0E
0E
0E
ENDCHAR
STARTCHAR ordmasculine
ENCODING 186
SWIDTH 454 0
DWIDTH 16 0
BBX 12 14 2 12
BITMAP
1F80
3FC0
70E0
E060
E070
E070
E070
E070
E070
E070
E060
70E0
3FC0
1F80
ENDCHAR
STARTCHAR guillemotright
ENCODING 187
SWIDTH 468 0
DWIDTH 17 0
BBX 14 14 2 3
BITMAP
E380
61C0
70C0
38E0
1C70
1C78
0E38
0E3C
1C78
1C70
38E0
70C0
61C0
E380
ENDCHAR
STARTCHAR onequarter
ENCODING 188
SWIDTH 732 0
DWIDTH 26 0
BBX 24 26 1 0
BITMAP
060000
3E0000
FE0000
CE0040
0E00E0
0E00C0
0E01C0
0E0180
0E0380
0E0700
0E0600
0E0E00
0E1C1C
0E183C
00383C
00307C
0070FC
00E1DC
00C19C
01C39C
03871C
0307FF
0707FF
02001C
00001C
00001C
ENDCHAR
STARTCHAR onehalf
ENCODING 189
SWIDTH 775 0
DWIDTH 28 0
BBX 25 26 1 0
BITMAP
06000000
3E000000
FE000000
CE008000
0E00E000
0E01C000
0E038000
0E030000
0E070000
0E060000
0E0E0000
0E1C0000
0E187C00
0E39FE00
0071C700
00638300
00E38300
00C00700
01800F00
03801E00
03003C00
07007800
0E00F000
0401E000
0003FF80
0003FF80
ENDCHAR
STARTCHAR threequarters
ENCODING 190
SWIDTH 777 0
DWIDTH 28 0
BBX 25 26 2 0
BITMAP
3F000000
7FC00000
E1C00000
00C02000
01C03800
0F807000
0F80E000
01C0C000
00C1C000
00E18000
E0C38000
F1C70000
7F860E00
3F0E1E00
001C3E00
00187E00
00386E00
0030EE00
0061CE00
00E18E00
00C30E00
01C7FF80
0387FF80
01000E00
00000E00
00000E00
ENDCHAR
STARTCHAR questiondown
ENCODING 191
SWIDTH 473 0
DWIDTH 17 0
BBX 15 26 1 -7
BITMAP
0380
0380
0380
0380
0000
0000
0000
0380
0380
0380
0780
0700
0F00
1E00
3C00
7800
7000
F000
E000
E000
F01E
F01C
783C
7FF8
3FF0
0FC0
ENDCHAR
STARTCHAR Agrave
ENCODING 192
SWIDTH 652 0
DWIDTH 23 0
BBX 23 33 0 0
BITMAP
03E000
00E000
007000
007800
003C00
000000
000000
003800
007C00
007C00
007C00
00EE00
00EE00
00EE00
01C700
01C700
03C780
038380
038380
0701C0
0701C0
0701C0
0E00E0
0FFFE0
1FFFF0
1FFFF0
1C0070
3C0078
380038
380038
78003C
70001C
F0001E
ENDCHAR
STARTCHAR Aacute
ENCODING 193
SWIDTH 652 0
DWIDTH 23 0
BBX 23 33 0 0
BITMAP
000780
000F00
000E00
001C00
003800
000000
000000
003800
007C00
007C00
007C00
00EE00
00EE00
00EE00
01C700
01C700
03C780
038380
038380
0701C0
0701C0
0701C0
0E00E0
0FFFE0
1FFFF0
1FFFF0
1C0070
3C0078
380038
380038
78003C
70001C
F0001E
ENDCHAR
STARTCHAR Acircumflex
ENCODING 194
SWIDTH 652 0
DWIDTH 23 0
BBX 23 33 0 0
BITMAP
003800
007C00
00EE00
01E700
03C380
000000
000000
003800
007C00
007C00
007C00
00EE00
00EE00
00EE00
01C700
01C700
03C780
038380
038380
0701C0
0701C0
0701C0
0E00E0
0FFFE0
1FFFF0
1FFFF0
1C0070
3C0078
380038
380038
78003C
70001C
F0001E
ENDCHAR
STARTCHAR Atilde
ENCODING 195
SWIDTH 652 0
DWIDTH 23 0
BBX 23 32 0 0
BITMAP
01E0C0
03F9C0
031F80
030F00
000000
000000
003800
007C00
007C00
007C00
00EE00
00EE00
00EE00
01C700
01C700
03C780
038380
038380
0701C0
0701C0
0701C0
0E00E0
0FFFE0
1FFFF0
1FFFF0
1C0070
3C0078
380038
380038
78003C
70001C
F0001E
ENDCHAR
STARTCHAR Adieresis
ENCODING 196
SWIDTH 652 0
DWIDTH 23 0
BBX 23 32 0 0
BITMAP
018380
03C3C0
03C3C0
018380
000000
000000
003800
007C00
007C00
007C00
00EE00
00EE00
00EE00
01C700
01C700
03C780
038380
038380
0701C0
0701C0
0701C0
0E00E0
0FFFE0
1FFFF0
1FFFF0
1C0070
3C0078
380038
380038
78003C
70001C
F0001E
ENDCHAR
STARTCHAR Aring
ENCODING 197
SWIDTH 652 0
DWIDTH 23 0
BBX 23 35 0 0
BITMAP
003C00
007E00
00C200
00C300
00C200
007E00
003C00
000000
000000
003800
007C00
007C00
007C00
00EE00
00EE00
00EE00
01C700
01C700
03C780
038380
038380
0701C0
0701C0
0701C0
0E00E0
0FFFE0
1FFFF0
1FFFF0
1C0070
3C0078
380038
380038
78003C
70001C
F0001E
ENDCHAR
STARTCHAR AE
ENCODING 198
SWIDTH 934 0
DWIDTH 34 0
BBX 33 26 0 0
BITMAP
0001FFFF00
0003FFFF00
0003FFFF00
0007F00000
0007700000
000E700000
001E700000
001C700000
003C700000
0038700000
0078700000
00F07FFE00
00F07FFE00
01E07FFE00
01E0700000
03C0700000
0780700000
07FFF00000
0FFFF00000
0FFFF00000
1E00780000
3C00780000
3C00780000
78007FFF80
78007FFF80
F0007FFF80
ENDCHAR
STARTCHAR Ccedilla
ENCODING 199
SWIDTH 650 0
DWIDTH 23 0
BBX 20 33 2 -7
BITMAP
01FC00
07FF00
0FFF80
1F07C0
3C01E0
7801E0
7800E0
7000F0
F000F0
F00000
F00000
E00000
E00000
E00000
E00000
F00000
F00000
F00000
7000F0
7800E0
7801E0
3C01E0
1F07C0
1FFF80
07FF00
01FC00
006000
007800
00BC00
001C00
001C00
00F800
00E000
ENDCHAR
STARTCHAR Egrave
ENCODING 200
SWIDTH 568 0
DWIDTH 20 0
BBX 16 33 3 0
BITMAP
3E00
0E00
0700
0380
03C0
0000
0000
FFFF
FFFF
FFFF
E000
E000
E000
E000
E000
E000
E000
E000
FFFC
FFFC
FFFC
E000
E000
E000
E000
E000
E000
E000
E000
E000
FFFF
FFFF
FFFF
ENDCHAR
STARTCHAR Eacute
ENCODING 201
SWIDTH 568 0
DWIDTH 20 0
BBX 16 33 3 0
BITMAP
0078
00F0
00E0
01C0
0380
0000
0000
FFFF
FFFF
FFFF
E000
E000
E000
E000
E000
E000
E000
E000
FFFC
FFFC
FFFC
E000
E000
E000
E000
E000
E000
E000
E000
E000
FFFF
FFFF
FFFF
ENDCHAR
STARTCHAR Ecircumflex
ENCODING 202
SWIDTH 568 0
DWIDTH 20 0
BBX 16 33 3 0
BITMAP
0380
07C0
0EE0
1E70
1C38
0000
0000
FFFF
FFFF
FFFF
E000
E000
E000
E000
E000
E000
E000
E000
FFFC
FFFC
FFFC
E000
E000
E000
E000
E000
E000
E000
E000
E000
FFFF
FFFF
FFFF
ENDCHAR
STARTCHAR Edieresis
ENCODING 203
SWIDTH 568 0
DWIDTH 20 0
BBX 16 32 3 0
BITMAP
1C38
3C3C
3C3C
1C38
0000
0000
FFFF
FFFF
FFFF
E000
E000
E000
E000
E000
E000
E000
E000
FFFC
FFFC
FFFC
E000
E000
E000
E000
E000
E000
E000
E000
E000
FFFF
FFFF
FFFF
ENDCHAR
STARTCHAR Igrave
ENCODING 204
SWIDTH 271 0
DWIDTH 10 0
BBX 8 33 -1 0
BITMAP
F8
3C
1C
0E
07
00
00
0F
0F
0F
0F
0F
0F
0F
0F
0F
0F
0F
0F
0F
0F
0F
0F
0F
0F
0F
0F
0F
0F
0F
0F
0F
0F
ENDCHAR
STARTCHAR Iacute
ENCODING 205
SWIDTH 271 0
DWIDTH 10 0
BBX 7 33 3 0
BITMAP
1E
3C
38
70
E0
00
00
F0
F0
F0
F0
F0
F0
F0
F0
F0
F0
F0
F0
F0
F0
F0
F0
F0
F0
F0
F0
F0
F0
F0
F0
F0
F0
ENDCHAR
STARTCHAR Icircumflex
ENCODING 206
SWIDTH 271 0
DWIDTH 10 0
BBX 10 33 0 0
BITMAP
1C00
3E00
7700
F380
E1C0
0000
0000
1E00
1E00
1E00
1E00
1E00
1E00
1E00
1E00
1E00
1E00
1E00
1E00
1E00
1E00
1E00
1E00
1E00
1E00
1E00
1E00
1E00
1E00
1E00
1E00
1E00
1E00
ENDCHAR
STARTCHAR Idieresis
ENCODING 207
SWIDTH 271 0
DWIDTH 10 0
BBX 12 32 -1 0
BITMAP
70E0
F0F0
F0F0
70E0
0000
0000
0F00
0F00
0F00
0F00
0F00
0F00
0F00
0F00
0F00
0F00
0F00
0F00
0F00
0F00
0F00
0F00
0F00
0F00
0F00
0F00
0F00
0F00
0F00
0F00
0F00
0F00
ENDCHAR
STARTCHAR Eth
ENCODING 208
SWIDTH 670 0
DWIDTH 24 0
BBX 22 26 0 0
BITMAP
1FFC00
1FFF80
1FFFC0
1E03E0
1E00F0
1E0070
1E0078
1E0038
1E003C
1E003C
1E001C
FFE01C
FFE01C
FFE01C
1E001C
1E001C
1E003C
1E003C
1E0038
1E0078
1E0070
1E01F0
1E03E0
1FFFC0
1FFF80
1FFC00
ENDCHAR
STARTCHAR Ntilde
ENCODING 209
SWIDTH 712 0
DWIDTH 26 0
BBX 20 32 3 0
BITMAP
078300
0FC700
0C7E00
0C3C00
000000
000000
F00070
F80070
F80070
FC0070
FE0070
FE0070
FF0070
F70070
F78070
F3C070
F1C070
F1E070
F0F070
F0F070
F07870
F03C70
F03C70
F01E70
F00E70
F00F70
F007F0
F003F0
F003F0
F001F0
F000F0
F000F0
ENDCHAR
STARTCHAR Ograve
ENCODING 210
SWIDTH 687 0
DWIDTH 25 0
BBX 21 33 2 0
BITMAP
078000
03C000
01E000
00F000
007000
000000
000000
01FC00
07FF00
0FFF80
1F07C0
3C01E0
7800E0
7800F0
700070
F00070
F00070
F00078
E00078
E00078
E00078
E00078
F00078
F00070
F00070
700070
7800F0
7800E0
3C01E0
1F07C0
0FFF80
07FF00
01FC00
ENDCHAR
STARTCHAR Oacute
ENCODING 211
SWIDTH 687 0
DWIDTH 25 0
BBX 21 33 2 0
BITMAP
000F00
001E00
003C00
007800
007000
000000
000000
01FC00
07FF00
0FFF80
1F07C0
3C01E0
7800E0
7800F0
700070
F00070
F00070
F00078
E00078
E00078
E00078
E00078
F00078
F00070
F00070
700070
7800F0
7800E0
3C01E0
1F07C0
0FFF80
07FF00
01FC00
ENDCHAR
STARTCHAR Ocircumflex
ENCODING 212
SWIDTH 687 0
DWIDTH 25 0
BBX 21 33 2 0
BITMAP
007000
00F800
01DC00
038E00
070700
000000
000000
01FC00
07FF00
0FFF80
1F07C0
3C01E0
7800E0
7800F0
700070
F00070
F00070
F00078
E00078
E00078
E00078
E00078
F00078
F00070
F00070
700070
7800F0
7800E0
3C01E0
1F07C0
0FFF80
07FF00
01FC00
ENDCHAR
STARTCHAR Otilde
ENCODING 213
SWIDTH 687 0
DWIDTH 25 0
BBX 21 32 2 0
BITMAP
03C380
07E300
0E3F00
0C1E00
000000
000000
01FC00
07FF00
0FFF80
1F07C0
3C01E0
7800E0
7800F0
700070
F00070
F00070
F00078
E00078
E00078
E00078
E00078
F00078
F00070
F00070
700070
7800F0
7800E0
3C01E0
1F07C0
0FFF80
07FF00
01FC00
ENDCHAR
STARTCHAR Odieresis
ENCODING 214
SWIDTH 687 0
DWIDTH 25 0
BBX 21 32 2 0
BITMAP
070700
078F00
078F00
070700
000000
000000
01FC00
07FF00
0FFF80
1F07C0
3C01E0
7800E0
7800F0
700070
F00070
F00070
F00078
E00078
E00078
E00078
E00078
F00078
F00070
F00070
700070
7800F0
7800E0
3C01E0
1F07C0
0FFF80
07FF00
01FC00
ENDCHAR
STARTCHAR multiply
ENCODING 215
SWIDTH 533 0
DWIDTH 19 0
BBX 15 16 2 4
BITMAP
4004
E00E
F01E
783C
3C78
1EF0
0FE0
07C0
07C0
0FE0
1EF0
3C78
783C
F01E
E00E
4004
ENDCHAR
STARTCHAR Oslash
ENCODING 216
SWIDTH 687 0
DWIDTH 25 0
BBX 21 28 2 -1
BITMAP
000018
01FC30
07FF70
0FFFE0
1F07E0
3C01E0
3801E0
7803F0
700770
700670
F00E78
F00C78
F01878
F03878
F03078
F07078
F0E078
F0C078
71C070
718070
7B00F0
3F00E0
3E01E0
1F07C0
1FFF80
1FFF00
39FC00
700000
ENDCHAR
STARTCHAR Ugrave
ENCODING 217
SWIDTH 648 0
DWIDTH 23 0
BBX 19 33 2 0
BITMAP
0F8000
038000
01C000
01E000
00F000
000000
000000
F001E0
F001E0
F001E0
F001E0
F001E0
F001E0
F001E0
F001E0
F001E0
F001E0
F001E0
F001E0
F001E0
F001E0
F001E0
F001E0
F001E0
F001E0
F001E0
F001E0
7001C0
7803C0
3E0F80
1FFF00
0FFE00
03F800
ENDCHAR
STARTCHAR Uacute
ENCODING 218
SWIDTH 648 0
DWIDTH 23 0
BBX 19 33 2 0
BITMAP
001E00
003C00
007800
007000
00E000
000000
000000
F001E0
F001E0
F001E0
F001E0
F001E0
F001E0
F001E0
F001E0
F001E0
F001E0
F001E0
F001E0
F001E0
F001E0
F001E0
F001E0
F001E0
F001E0
F001E0
F001E0
7001C0
7803C0
3E0F80
1FFF00
0FFE00
03F800
ENDCHAR
STARTCHAR Ucircumflex
ENCODING 219
SWIDTH 648 0
DWIDTH 23 0
BBX 19 33 2 0
BITMAP
00E000
01F000
03B800
071C00
0F0E00
000000
000000
F001E0
F001E0
F001E0
F001E0
F001E0
F001E0
F001E0
F001E0
F001E0
F001E0
F001E0
F001E0
F001E0
F001E0
F001E0
F001E0
F001E0
F001E0
F001E0
F001E0
7001C0
7803C0
3E0F80
1FFF00
0FFE00
03F800
ENDCHAR
STARTCHAR Udieresis
ENCODING 220
SWIDTH 648 0
DWIDTH 23 0
BBX 19 32 2 0
BITMAP
060E00
0F0E00
0F0E00
060E00
000000
000000
F001E0
F001E0
F001E0
F001E0
F001E0
F001E0
F001E0
F001E0
F001E0
F001E0
F001E0
F001E0
F001E0
F001E0
F001E0
F001E0
F001E0
F001E0
F001E0
F001E0
7001C0
7803C0
3E0F80
1FFF00
0FFE00
03F800
ENDCHAR
STARTCHAR Yacute
ENCODING 221
SWIDTH 600 0
DWIDTH 22 0
BBX 21 33 0 0
BITMAP
000F00
001E00
001C00
003800
007000
000000
000000
F00078
780070
3800F0
3C00E0
1C01E0
1E01C0
0E03C0
0F0380
070780
078700
038F00
03CE00
01DE00
00FC00
00F800
007800
007000
007000
007000
007000
007000
007000
007000
007000
007000
007000
ENDCHAR
STARTCHAR Thorn
ENCODING 222
SWIDTH 590 0
DWIDTH 21 0
BBX 17 26 3 0
BITMAP
E00000
E00000
E00000
E00000
E00000
FFE000
FFF800
FFFE00
E03E00
E00F00
E00700
E00700
E00700
E00780
E00700
E00700
E00F00
E03E00
FFFC00
FFF800
FFE000
E00000
E00000
E00000
E00000
E00000
ENDCHAR
STARTCHAR germandbls
ENCODING 223
SWIDTH 594 0
DWIDTH 21 0
BBX 18 27 2 0
BITMAP
0FC000
1FF000
3FF800
787800
703C00
F01C00
F01C00
F03C00
F03800
F07800
F07000
F0F000
F0F000
F0F000
F07000
F07800
F03E00
F01F00
F00780
F00380
F003C0
F003C0
F003C0
F30780
F3FF80
F3FF00
F0FC00
ENDCHAR
STARTCHAR agrave
ENCODING 224
SWIDTH 543 0
DWIDTH 20 0
BBX 16 26 2 0
BITMAP
1E00
0F00
0780
0380
01C0
0000
0000
07E0
1FF8
3FFC
7C3E
701E
700E
000E
000E
07FE
3FFE
7FFE
780E
F00E
E00E
F01E
F83E
7FFE
3FEE
0F8F
ENDCHAR
STARTCHAR aacute
ENCODING 225
SWIDTH 543 0
DWIDTH 20 0
BBX 16 26 2 0
BITMAP
007C
0070
00E0
01C0
03C0
0000
0000
07E0
1FF8
3FFC
7C3E
701E
700E
000E
000E
07FE
3FFE
7FFE
780E
F00E
E00E
F01E
F83E
7FFE
3FEE
0F8F
ENDCHAR
STARTCHAR acircumflex
ENCODING 226
SWIDTH 543 0
DWIDTH 20 0
BBX 16 27 2 0
BITMAP
01C0
03E0
0770
0E38
1C3C
0000
0000
0000
07E0
1FF8
3FFC
7C3E
701E
700E
000E
000E
07FE
3FFE
7FFE
780E
F00E
E00E
F01E
F83E
7FFE
3FEE
0F8F
ENDCHAR
STARTCHAR atilde
ENCODING 227
SWIDTH 543 0
DWIDTH 20 0
BBX 16 26 2 0
BITMAP
0E0C
1F8C
39FC
3078
0000
0000
0000
07E0
1FF8
3FFC
7C3E
701E
700E
000E
000E
07FE
3FFE
7FFE
780E
F00E
E00E
F01E
F83E
7FFE
3FEE
0F8F
ENDCHAR
STARTCHAR adieresis
ENCODING 228
SWIDTH 543 0
DWIDTH 20 0
BBX 16 26 2 0
BITMAP
1C18
1C3C
1C3C
1C18
0000
0000
0000
07E0
1FF8
3FFC
7C3E
701E
700E
000E
000E
07FE
3FFE
7FFE
780E
F00E
E00E
F01E
F83E
7FFE
3FEE
0F8F
ENDCHAR
STARTCHAR aring
ENCODING 229
SWIDTH 543 0
DWIDTH 20 0
BBX 16 28 2 0
BITMAP
03C0
07E0
0430
0C30
0430
07E0
03C0
0000
0000
07E0
1FF8
3FFC
7C3E
701E
700E
000E
000E
07FE
3FFE
7FFE
780E
F00E
E00E
F01E
F83E
7FFE
3FEE
0F8F
ENDCHAR
STARTCHAR ae
ENCODING 230
SWIDTH 844 0
DWIDTH 30 0
BBX 28 19 1 0
BITMAP
07E07E00
1FF8FF80
3FFFFFC0
7C3FC1E0
701F80E0
700F00F0
000F0070
000E0070
0FFFFFF0
3FFFFFF0
7FFFFFF0
780E0000
F00E0000
E00F0000
F00F8000
F83FC0E0
7FFFFFE0
3FF0FFF0
1FC03F80
ENDCHAR
STARTCHAR ccedilla
ENCODING 231
SWIDTH 523 0
DWIDTH 19 0
BBX 16 26 2 -7
BITMAP
07E0
1FF8
3FFC
7C3E
700E
F00F
E007
E000
E000
E000
E000
E000
E000
F00F
700E
7C3E
3FFC
1FF8
07E0
0380
03C0
01E0
0060
00E0
03C0
0380
ENDCHAR
STARTCHAR egrave
ENCODING 232
SWIDTH 529 0
DWIDTH 19 0
BBX 16 26 2 0
BITMAP
3E00
0F00
0700
0380
01C0
0000
0000
07E0
1FF8
3FFC
7C3C
701E
F00E
E00E
E00F
FFFF
FFFF
FFFF
E000
E000
F000
7004
7C1E
3FFE
1FF8
07F0
ENDCHAR
STARTCHAR eacute
ENCODING 233
SWIDTH 529 0
DWIDTH 19 0
BBX 16 26 2 0
BITMAP
0078
00F0
00E0
01C0
0380
0000
0000
07E0
1FF8
3FFC
7C3C
701E
F00E
E00E
E00F
FFFF
FFFF
FFFF
E000
E000
F000
7004
7C1E
3FFE
1FF8
07F0
ENDCHAR
STARTCHAR ecircumflex
ENCODING 234
SWIDTH 529 0
DWIDTH 19 0
BBX 16 27 2 0
BITMAP
0380
07C0
0FE0
1E70
1C38
0000
0000
0000
07E0
1FF8
3FFC
7C3C
701E
F00E
E00E
E00F
FFFF
FFFF
FFFF
E000
E000
F000
7004
7C1E
3FFE
1FF8
07F0
ENDCHAR
STARTCHAR edieresis
ENCODING 235
SWIDTH 529 0
DWIDTH 19 0
BBX 16 26 2 0
BITMAP
1C38
3C3C
3C3C
1C38
0000
0000
0000
07E0
1FF8
3FFC
7C3C
701E
F00E
E00E
E00F
FFFF
FFFF
FFFF
E000
E000
F000
7004
7C1E
3FFE
1FF8
07F0
ENDCHAR
STARTCHAR igrave
ENCODING 236
SWIDTH 247 0
DWIDTH 9 0
BBX 7 26 -1 0
BITMAP
F0
78
3C
1E
0E
00
00
0E
0E
0E
0E
0E
0E
0E
0E
0E
0E
0E
0E
0E
0E
0E
0E
0E
0E
0E
ENDCHAR
STARTCHAR iacute
ENCODING 237
SWIDTH 247 0
DWIDTH 9 0
BBX 7 26 3 0
BITMAP
1E
3C
78
F0
E0
00
00
E0
E0
E0
E0
E0
E0
E0
E0
E0
E0
E0
E0
E0
E0
E0
E0
E0
E0
E0
ENDCHAR
STARTCHAR icircumflex
ENCODING 238
SWIDTH 247 0
DWIDTH 9 0
BBX 11 27 -1 0
BITMAP
0E00
1F00
3B80
71C0
E0E0
0000
0000
0000
0E00
0E00
0E00
0E00
0E00
0E00
0E00
0E00
0E00
0E00
0E00
0E00
0E00
0E00
0E00
0E00
0E00
0E00
0E00
ENDCHAR
STARTCHAR idieresis
ENCODING 239
SWIDTH 247 0
DWIDTH 9 0
BBX 11 26 -1 0
BITMAP
E0E0
F1E0
F1E0
E0E0
0000
0000
0000
0E00
0E00
0E00
0E00
0E00
0E00
0E00
0E00
0E00
0E00
0E00
0E00
0E00
0E00
0E00
0E00
0E00
0E00
0E00
ENDCHAR
STARTCHAR eth
ENCODING 240
SWIDTH 585 0
DWIDTH 21 0
BBX 17 27 2 0
BITMAP
180000
1F0400
3FCE00
07FC00
01F800
01F800
03FC00
071E00
021E00
000F00
07EF00
1FF700
3FFF00
3C1F80
780780
700780
F00780
F00780
E00780
E00780
F00700
700700
780F00
3C1E00
3FFC00
0FF800
03E000
ENDCHAR
STARTCHAR ntilde
ENCODING 241
SWIDTH 551 0
DWIDTH 20 0
BBX 14 26 3 0
BITMAP
1C18
3F38
73F8
60E0
0000
0000
0000
E3E0
EFF8
FFFC
F83C
F01C
E01C
E01C
E01C
E01C
E01C
E01C
E01C
E01C
E01C
E01C
E01C
E01C
E01C
E01C
ENDCHAR
STARTCHAR ograve
ENCODING 242
SWIDTH 570 0
DWIDTH 21 0
BBX 17 26 2 0
BITMAP
1E0000
0F0000
070000
038000
01C000
000000
000000
07E000
1FFC00
3FFE00
7C1E00
780F00
F00780
F00780
E00380
E00380
E00380
E00380
E00380
F00780
F00780
780F00
7C1E00
3FFE00
1FFC00
07F000
ENDCHAR
STARTCHAR oacute
ENCODING 243
SWIDTH 570 0
DWIDTH 21 0
BBX 17 26 2 0
BITMAP
007C00
007000
00E000
01C000
038000
000000
000000
07E000
1FFC00
3FFE00
7C1E00
780F00
F00780
F00780
E00380
E00380
E00380
E00380
E00380
F00780
F00780
780F00
7C1E00
3FFE00
1FFC00
07F000
ENDCHAR
STARTCHAR ocircumflex
ENCODING 244
SWIDTH 570 0
DWIDTH 21 0
BBX 17 27 2 0
BITMAP
01C000
03E000
077000
0E7800
1C3800
000000
000000
000000
07E000
1FFC00
3FFE00
7C1E00
780F00
F00780
F00780
E00380
E00380
E00380
E00380
E00380
F00780
F00780
780F00
7C1E00
3FFE00
1FFC00
07F000
ENDCHAR
STARTCHAR otilde
ENCODING 245
SWIDTH 570 0
DWIDTH 21 0
BBX 17 26 2 0
BITMAP
0E0C00
1F9C00
39FC00
307800
000000
000000
000000
07E000
1FFC00
3FFE00
7C1E00
780F00
F00780
F00780
E00380
E00380
E00380
E00380
E00380
F00780
F00780
780F00
7C1E00
3FFE00
1FFC00
07F000
ENDCHAR
STARTCHAR odieresis
ENCODING 246
SWIDTH 570 0
DWIDTH 21 0
BBX 17 26 2 0
BITMAP
1C1800
3C3C00
3C3C00
1C1800
000000
000000
000000
07E000
1FFC00
3FFE00
7C1E00
780F00
F00780
F00780
E00380
E00380
E00380
E00380
E00380
F00780
F00780
780F00
7C1E00
3FFE00
1FFC00
07F000
ENDCHAR
STARTCHAR divide
ENCODING 247
SWIDTH 570 0
DWIDTH 21 0
BBX 18 19 1 3
BITMAP
00E000
01E000
01E000
00E000
000000
000000
000000
000000
FFFFC0
FFFFC0
FFFFC0
000000
000000
000000
000000
00E000
01E000
01E000
00E000
ENDCHAR
STARTCHAR oslash
ENCODING 248
SWIDTH 566 0
DWIDTH 20 0
BBX 18 23 1 -2
BITMAP
000300
000600
03F600
0FFC00
1FFE00
3E1F00
781F80
783F80
703380
7063C0
F063C0
F0C3C0
F0C3C0
7183C0
738380
7B0380
7F0780
3E1F00
1FFE00
0FFC00
1FF000
180000
380000
ENDCHAR
STARTCHAR ugrave
ENCODING 249
SWIDTH 551 0
DWIDTH 20 0
BBX 15 26 2 0
BITMAP
3E00
0F00
0700
0380
01C0
0000
0000
F00E
F00E
F00E
F00E
F00E
F00E
F00E
F00E
F00E
F00E
F00E
F00E
F00E
700E
701E
783E
7FFE
3FFE
0FCE
ENDCHAR
STARTCHAR uacute
ENCODING 250
SWIDTH 551 0
DWIDTH 20 0
BBX 15 26 2 0
BITMAP
007C
00F0
00E0
01C0
0380
0000
0000
F00E
F00E
F00E
F00E
F00E
F00E
F00E
F00E
F00E
F00E
F00E
F00E
F00E
700E
701E
783E
7FFE
3FFE
0FCE
ENDCHAR
STARTCHAR ucircumflex
ENCODING 251
SWIDTH 551 0
DWIDTH 20 0
BBX 15 27 2 0
BITMAP
0380
07C0
0FE0
1E70
1C38
0000
0000
0000
F00E
F00E
F00E
F00E
F00E
F00E
F00E
F00E
F00E
F00E
F00E
F00E
F00E
700E
701E
783E
7FFE
3FFE
0FCE
ENDCHAR
STARTCHAR udieresis
ENCODING 252
SWIDTH 551 0
DWIDTH 20 0
BBX 15 26 2 0
BITMAP
1C38
3C3C
3C3C
1C38
0000
0000
0000
F00E
F00E
F00E
F00E
F00E
F00E
F00E
F00E
F00E
F00E
F00E
F00E
F00E
700E
701E
783E
7FFE
3FFE
0FCE
ENDCHAR
STARTCHAR yacute
ENCODING 253
SWIDTH 473 0
DWIDTH 17 0
BBX 17 33 0 -7
BITMAP
003C00
007800
007000
00E000
01C000
000000
000000
F00780
700700
780F00
380E00
380E00
3C1E00
1C1C00
1C1C00
1E3C00
0E3800
0F3800
077000
077000
07F000
03E000
03E000
03E000
01C000
01C000
01C000
038000
038000
070000
7F0000
7E0000
7C0000
ENDCHAR
STARTCHAR thorn
ENCODING 254
SWIDTH 576 0
DWIDTH 21 0
BBX 16 34 3 -7
BITMAP
E000
E000
E000
E000
E000
E000
E000
E000
E3E0
EFF8
FFFC
F83E
F01E
E00E
E00F
E00F
E007
E007
E00F
E00F
E00F
E00E
F01E
F83C
FFFC
EFF8
E7E0
E000
E000
E000
E000
E000
E000
E000
ENDCHAR
STARTCHAR ydieresis
ENCODING 255
SWIDTH 473 0
DWIDTH 17 0
BBX 17 33 0 -7
BITMAP
0E1C00
1E1E00
1E1E00
0E1C00
000000
000000
000000
F00780
700700
780F00
380E00
380E00
3C1E00
1C1C00
1C1C00
1E3C00
0E3800
0F3800
077000
077000
07F000
03E000
03E000
03E000
01C000
01C000
01C000
038000
038000
070000
7F0000
7E0000
7C0000
ENDCHAR
STARTCHAR Amacron
ENCODING 256
SWIDTH 652 0
DWIDTH 23 0
BBX 23 31 0 0
BITMAP
03FFC0
03FFC0
03FFC0
000000
000000
003800
007C00
007C00
007C00
00EE00
00EE00
00EE00
01C700
01C700
03C780
038380
038380
0701C0
0701C0
0701C0
0E00E0
0FFFE0
1FFFF0
1FFFF0
1C0070
3C0078
380038
380038
78003C
70001C
F0001E
ENDCHAR
STARTCHAR amacron
ENCODING 257
SWIDTH 543 0
DWIDTH 20 0
BBX 16 25 2 0
BITMAP
3FFC
3FFC
3FFC
0000
0000
0000
07E0
1FF8
3FFC
7C3E
701E
700E
000E
000E
07FE
3FFE
7FFE
780E
F00E
E00E
F01E
F83E
7FFE
3FEE
0F8F
ENDCHAR
STARTCHAR Abreve
ENCODING 258
SWIDTH 652 0
DWIDTH 23 0
BBX 23 32 0 0
BITMAP
038380
018380
01C700
00FF00
007C00
000000
003800
007C00
007C00
007C00
00EE00
00EE00
00EE00
01C700
01C700
03C780
038380
038380
0701C0
0701C0
0701C0
0E00E0
0FFFE0
1FFFF0
1FFFF0
1C0070
3C0078
380038
380038
78003C
70001C
F0001E
ENDCHAR
STARTCHAR abreve
ENCODING 259
SWIDTH 543 0
DWIDTH 20 0
BBX 16 27 2 0
BITMAP
1818
1C38
1C38
0FF0
07C0
0000
0000
0000
07E0
1FF8
3FFC
7C3E
701E
700E
000E
000E
07FE
3FFE
7FFE
780E
F00E
E00E
F01E
F83E
7FFE
3FEE
0F8F
ENDCHAR
STARTCHAR Aogonek
ENCODING 260
SWIDTH 652 0
DWIDTH 23 0
BBX 23 33 0 -7
BITMAP
003800
003C00
007C00
007E00
007E00
00EE00
00E700
01E700
01C700
01C380
038380
0383C0
0381C0
0701C0
0700E0
0F00E0
0FFFE0
0FFFF0
1FFFF0
1C0078
1C0038
3C0038
38003C
78001C
70001C
70001E
80001C
000030
000070
000060
0000F0
00007E
00003C
ENDCHAR
STARTCHAR aogonek
ENCODING 261
SWIDTH 543 0
DWIDTH 20 0
BBX 16 26 2 -7
BITMAP
07E0
1FF8
3FFC
783C
F01E
F00E
000E
000E
0FFE
3FFE
7FFE
F80E
F00E
E00E
E01E
F87E
7FFE
3FEE
1F8F
001C
0038
0030
0070
0070
003E
001E
ENDCHAR
STARTCHAR Cacute
ENCODING 262
SWIDTH 650 0
DWIDTH 23 0
BBX 20 33 2 0
BITMAP
001E00
003C00
003800
007000
00E000
000000
000000
01FC00
07FF00
0FFF80
1F07C0
3C01E0
7801E0
7800E0
7000F0
F000F0
F00000
F00000
E00000
E00000
E00000
E00000
F00000
F00000
F00000
7000F0
7800E0
7801E0
3C01E0
1F07C0
1FFF80
07FF00
01FC00
ENDCHAR
STARTCHAR cacute
ENCODING 263
SWIDTH 523 0
DWIDTH 19 0
BBX 16 26 2 0
BITMAP
0078
00E0
01E0
03C0
0380
0000
0000
07E0
1FF8
3FFC
7C3E
700E
F00F
E007
E000
E000
E000
E000
E000
E000
F00F
700E
7C3E
3FFC
1FF8
07E0
ENDCHAR
STARTCHAR Ccircumflex
ENCODING 264
SWIDTH 650 0
DWIDTH 23 0
BBX 20 33 2 0
BITMAP
00E000
01F000
03F800
079C00
070E00
000000
000000
01FC00
07FF00
0FFF80
1F07C0
3C01E0
7801E0
7800E0
7000F0
F000F0
F00000
F00000
E00000
E00000
E00000
E00000
F00000
F00000
F00000
7000F0
7800E0
7801E0
3C01E0
1F07C0
1FFF80
07FF00
01FC00
ENDCHAR
STARTCHAR ccircumflex
ENCODING 265
SWIDTH 523 0
DWIDTH 19 0
BBX 16 27 2 0
BITMAP
0380
07C0
0EE0
1C70
3838
0000
0000
0000
07E0
1FF8
3FFC
7C3E
700E
F00F
E007
E000
E000
E000
E000
E000
E000
F00F
700E
7C3E
3FFC
1FF8
07E0
ENDCHAR
STARTCHAR Cdotaccent
ENCODING 266
SWIDTH 650 0
DWIDTH 23 0
BBX 20 32 2 0
BITMAP
006000
00F000
00F000
006000
000000
000000
01FC00
07FF00
0FFF80
1F07C0
3C01E0
7801E0
7800E0
7000F0
F000F0
F00000
F00000
E00000
E00000
E00000
E00000
F00000
F00000
F00000
7000F0
7800E0
7801E0
3C01E0
1F07C0
1FFF80
07FF00
01FC00
ENDCHAR
STARTCHAR cdotaccent
ENCODING 267
SWIDTH 523 0
DWIDTH 19 0
BBX 16 26 2 0
BITMAP
0380
0380
0380
0380
0000
0000
0000
07E0
1FF8
3FFC
7C3E
700E
F00F
E007
E000
E000
E000
E000
E000
E000
F00F
700E
7C3E
3FFC
1FF8
07E0
ENDCHAR
STARTCHAR Ccaron
ENCODING 268
SWIDTH 650 0
DWIDTH 23 0
BBX 20 33 2 0
BITMAP
070E00
039C00
01B800
00F000
00E000
000000
000000
01FC00
07FF00
0FFF80
1F07C0
3C01E0
7801E0
7800E0
7000F0
F000F0
F00000
F00000
E00000
E00000
E00000
E00000
F00000
F00000
F00000
7000F0
7800E0
7801E0
3C01E0
1F07C0
1FFF80
07FF00
01FC00
ENDCHAR
STARTCHAR ccaron
ENCODING 269
SWIDTH 523 0
DWIDTH 19 0
BBX 16 27 2 0
BITMAP
3838
1C70
0EE0
07C0
0380
0000
0000
0000
07E0
1FF8
3FFC
7C3E
700E
F00F
E007
E000
E000
E000
E000
E000
E000
F00F
700E
7C3E
3FFC
1FF8
07E0
ENDCHAR
STARTCHAR Dcaron
ENCODING 270
SWIDTH 655 0
DWIDTH 24 0
BBX 18 33 3 0
BITMAP
383800
1C7000
0EE000
07C000
038000
000000
000000
FFE000
FFF800
FFFC00
E03F00
E00F00
E00780
E00380
E003C0
E001C0
E001C0
E001C0
E001C0
E001C0
E001C0
E001C0
E001C0
E001C0
E001C0
E003C0
E00380
E00780
E00F00
E03F00
FFFE00
FFF800
FFE000
ENDCHAR
STARTCHAR dcaron
ENCODING 271
SWIDTH 637 0
DWIDTH 23 0
BBX 21 27 2 0
BITMAP
000F38
000F38
000F38
000F38
000F78
000F70
000F20
000F00
0FCF00
1FFF00
3FFF00
7C3F00
F00F00
F00F00
E00F00
E00F00
E00F00
E00F00
E00F00
E00F00
E00F00
F00F00
F00F00
7C3F00
3FFF00
1FFF00
0FC700
ENDCHAR
STARTCHAR Dcroat
ENCODING 272
SWIDTH 670 0
DWIDTH 24 0
BBX 22 26 0 0
BITMAP
1FFC00
1FFF80
1FFFC0
1E03E0
1E00F0
1E0070
1E0078
1E0038
1E003C
1E003C
1E001C
FFE01C
FFE01C
FFE01C
1E001C
1E001C
1E003C
1E003C
1E0038
1E0078
1E0070
1E01F0
1E03E0
1FFFC0
1FFF80
1FFC00
ENDCHAR
STARTCHAR dcroat
ENCODING 273
SWIDTH 597 0
DWIDTH 22 0
BBX 19 27 2 0
BITMAP
000F00
000F00
000F00
00FFE0
00FFE0
00FFE0
000F00
000F00
07CF00
1FFF00
3FFF00
7C3F00
700F00
F00F00
E00F00
E00F00
E00F00
E00F00
E00F00
E00F00
E00F00
F00F00
700F00
7C3F00
3FFF00
1FF700
07C700
ENDCHAR
STARTCHAR Emacron
ENCODING 274
SWIDTH 568 0
DWIDTH 20 0
BBX 16 31 3 0
BITMAP
3FFC
3FFC
3FFC
0000
0000
FFFF
FFFF
FFFF
E000
E000
E000
E000
E000
E000
E000
E000
FFFC
FFFC
FFFC
E000
E000
E000
E000
E000
E000
E000
E000
E000
FFFF
FFFF
FFFF
ENDCHAR
STARTCHAR emacron
ENCODING 275
SWIDTH 529 0
DWIDTH 19 0
BBX 16 25 2 0
BITMAP
3FFC
3FFC
3FFC
0000
0000
0000
07E0
1FF8
3FFC
7C3C
701E
F00E
E00E
E00F
FFFF
FFFF
FFFF
E000
E000
F000
7004
7C1E
3FFE
1FF8
07F0
ENDCHAR
STARTCHAR Ebreve
ENCODING 276
SWIDTH 568 0
DWIDTH 20 0
BBX 16 33 3 0
BITMAP
3838
1838
1C70
0FF0
07C0
0000
0000
FFFF
FFFF
FFFF
E000
E000
E000
E000
E000
E000
E000
E000
FFFC
FFFC
FFFC
E000
E000
E000
E000
E000
E000
E000
E000
E000
FFFF
FFFF
FFFF
ENDCHAR
STARTCHAR ebreve
ENCODING 277
SWIDTH 529 0
DWIDTH 19 0
BBX 16 27 2 0
BITMAP
3838
1838
1C70
0FF0
07C0
0000
0000
0000
07E0
1FF8
3FFC
7C3C
701E
F00E
E00E
E00F
FFFF
FFFF
FFFF
E000
E000
F000
7004
7C1E
3FFE
1FF8
07F0
ENDCHAR
STARTCHAR Edotaccent
ENCODING 278
SWIDTH 568 0
DWIDTH 20 0
BBX 16 32 3 0
BITMAP
0180
03C0
03C0
0180
0000
0000
FFFF
FFFF
FFFF
E000
E000
E000
E000
E000
E000
E000
E000
FFFC
FFFC
FFFC
E000
E000
E000
E000
E000
E000
E000
E000
E000
FFFF
FFFF
FFFF
ENDCHAR
STARTCHAR edotaccent
ENCODING 279
SWIDTH 529 0
DWIDTH 19 0
BBX 16 26 2 0
BITMAP
0180
03C0
03C0
0180
0000
0000
0000
07E0
1FF8
3FFC
7C3C
701E
F00E
E00E
E00F
FFFF
FFFF
FFFF
E000
E000
F000
7004
7C1E
3FFE
1FF8
07F0
ENDCHAR
STARTCHAR Eogonek
ENCODING 280
SWIDTH 568 0
DWIDTH 20 0
BBX 16 33 3 -7
BITMAP
FFFF
FFFF
FFFF
E000
E000
E000
E000
E000
E000
E000
E000
FFFC
FFFC
FFFC
E000
E000
E000
E000
E000
E000
E000
E000
E000
FFFF
FFFF
FFFF
001C
0038
0070
0070
0070
007E
003E
ENDCHAR
STARTCHAR eogonek
ENCODING 281
SWIDTH 529 0
DWIDTH 19 0
BBX 16 26 2 -7
BITMAP
07E0
1FF8
3FFC
7C3C
701E
F00E
E00E
E00F
FFFF
FFFF
FFFF
E000
E000
F000
7004
7C1F
3FFE
1FFC
07F0
00E0
01C0
0180
0380
01C0
01F8
00F0
ENDCHAR
STARTCHAR Ecaron
ENCODING 282
SWIDTH 568 0
DWIDTH 20 0
BBX 16 33 3 0
BITMAP
3C38
0E70
06E0
07C0
0380
0000
0000
FFFF
FFFF
FFFF
E000
E000
E000
E000
E000
E000
E000
E000
FFFC
FFFC
FFFC
E000
E000
E000
E000
E000
E000
E000
E000
E000
FFFF
FFFF
FFFF
ENDCHAR
STARTCHAR ecaron
ENCODING 283
SWIDTH 529 0
DWIDTH 19 0
BBX 16 27 2 0
BITMAP
3C38
0E70
06E0
03C0
0380
0000
0000
0000
07E0
1FF8
3FFC
7C3C
701E
F00E
E00E
E00F
FFFF
FFFF
FFFF
E000
E000
F000
7004
7C1E
3FFE
1FF8
07F0
ENDCHAR
STARTCHAR Gcircumflex
ENCODING 284
SWIDTH 681 0
DWIDTH 25 0
BBX 20 33 2 0
BITMAP
00E000
01F000
03B800
071C00
0F0E00
000000
000000
01FC00
07FF00
1FFF80
1F07C0
3C01E0
7800E0
7800F0
7000F0
F00000
F00000
F00000
F00000
F00000
F01FF0
F01FF0
F01FF0
F00070
F00070
700070
780070
380070
3C00F0
1F03F0
0FFFE0
07FF80
01FE00
ENDCHAR
STARTCHAR gcircumflex
ENCODING 285
SWIDTH 561 0
DWIDTH 20 0
BBX 16 34 2 -7
BITMAP
0380
07C0
0EE0
1C70
3C38
0000
0000
0000
0FC7
1FF7
3FFF
7C3F
F00F
F00F
E00F
E00F
E00F
E00F
E00F
E00F
E00F
F00F
700F
7C3F
3FFF
1FFF
0FCF
000F
000E
201E
783E
7FFC
3FF8
0FE0
ENDCHAR
STARTCHAR Gbreve
ENCODING 286
SWIDTH 681 0
DWIDTH 25 0
BBX 20 33 2 0
BITMAP
0E0E00
060E00
071C00
03FC00
01F000
000000
000000
01FC00
07FF00
1FFF80
1F07C0
3C01E0
7800E0
7800F0
7000F0
F00000
F00000
F00000
F00000
F00000
F01FF0
F01FF0
F01FF0
F00070
F00070
700070
780070
380070
3C00F0
1F03F0
0FFFE0
07FF80
01FE00
ENDCHAR
STARTCHAR gbreve
ENCODING 287
SWIDTH 561 0
DWIDTH 20 0
BBX 16 34 2 -7
BITMAP
3838
3838
1C70
0FF0
07C0
0000
0000
0000
0FC7
1FF7
3FFF
7C3F
F00F
F00F
E00F
E00F
E00F
E00F
E00F
E00F
E00F
F00F
700F
7C3F
3FFF
1FFF
0FCF
000F
000E
201E
783E
7FFC
3FF8
0FE0
ENDCHAR
STARTCHAR Gdotaccent
ENCODING 288
SWIDTH 681 0
DWIDTH 25 0
BBX 20 32 2 0
BITMAP
006000
00F000
00F000
006000
000000
000000
01FC00
07FF00
1FFF80
1F07C0
3C01E0
7800E0
7800F0
7000F0
F00000
F00000
F00000
F00000
F00000
F01FF0
F01FF0
F01FF0
F00070
F00070
700070
780070
380070
3C00F0
1F03F0
0FFFE0
07FF80
01FE00
ENDCHAR
STARTCHAR gdotaccent
ENCODING 289
SWIDTH 561 0
DWIDTH 20 0
BBX 16 33 2 -7
BITMAP
0180
03C0
03C0
0380
0000
0000
0000
0FC7
1FF7
3FFF
7C3F
F00F
F00F
E00F
E00F
E00F
E00F
E00F
E00F
E00F
F00F
700F
7C3F
3FFF
1FFF
0FCF
000F
000E
201E
783E
7FFC
3FF8
0FE0
ENDCHAR
STARTCHAR uni0122
ENCODING 290
SWIDTH 681 0
DWIDTH 25 0
BBX 20 35 2 -9
BITMAP
01FC00
07FF00
1FFF80
1F07C0
3C01E0
7800E0
7800F0
7000F0
F00000
F00000
F00000
F00000
F00000
F01FF0
F01FF0
F01FF0
F00070
F00070
700070
780070
380070
3C00F0
1F03F0
0FFFE0
07FF80
01FE00
000000
000000
007000
007000
007000
007000
007000
00E000
004000
ENDCHAR
STARTCHAR uni0123
ENCODING 291
SWIDTH 561 0
DWIDTH 20 0
BBX 16 37 2 -7
BITMAP
0080
01C0
01C0
03C0
0380
0380
0380
0380
0000
0000
0000
0FC7
1FF7
3FFF
7C3F
F00F
F00F
E00F
E00F
E00F
E00F
E00F
E00F
E00F
F00F
700F
7C3F
3FFF
1FFF
0FCF
000F
000E
201E
783E
7FFC
3FF8
0FE0
ENDCHAR
STARTCHAR Hcircumflex
ENCODING 292
SWIDTH 712 0
DWIDTH 26 0
BBX 20 33 3 0
BITMAP
00E000
01F000
03B800
071C00
0E0E00
000000
000000
E000F0
E000F0
E000F0
E000F0
E000F0
E000F0
E000F0
E000F0
E000F0
E000F0
E000F0
FFFFF0
FFFFF0
FFFFF0
E000F0
E000F0
E000F0
E000F0
E000F0
E000F0
E000F0
E000F0
E000F0
E000F0
E000F0
E000F0
ENDCHAR
STARTCHAR hcircumflex
ENCODING 293
SWIDTH 550 0
DWIDTH 20 0
BBX 15 33 3 0
BITMAP
0E00
1F00
3B80
71C0
F0E0
0000
E000
E000
E000
E000
E000
E000
E000
E000
E3E0
EFF8
FFFC
F83C
F01C
E01C
E01C
E01E
E01E
E01E
E01E
E01E
E01E
E01E
E01E
E01E
E01E
E01E
E01E
ENDCHAR
STARTCHAR Hbar
ENCODING 294
SWIDTH 700 0
DWIDTH 25 0
BBX 24 26 1 0
BITMAP
38003C
38003C
38003C
38003C
38003C
FFFFFF
FFFFFF
FFFFFF
38003C
38003C
38003C
3FFFFC
3FFFFC
3FFFFC
38003C
38003C
38003C
38003C
38003C
38003C
38003C
38003C
38003C
38003C
38003C
38003C
ENDCHAR
STARTCHAR hbar
ENCODING 295
SWIDTH 565 0
DWIDTH 20 0
BBX 19 27 -1 0
BITMAP
0E0000
0E0000
0E0000
FFF000
FFF000
FFF000
0E0000
0E0000
0E3F00
0EFF80
0FFFC0
0FC3C0
0F01E0
0F00E0
0E00E0
0E00E0
0E00E0
0E00E0
0E00E0
0E00E0
0E00E0
0E00E0
0E00E0
0E00E0
0E00E0
0E00E0
0E00E0
ENDCHAR
STARTCHAR Itilde
ENCODING 296
SWIDTH 271 0
DWIDTH 10 0
BBX 12 32 -1 0
BITMAP
3830
FE70
C7E0
C1C0
0000
0000
0F00
0F00
0F00
0F00
0F00
0F00
0F00
0F00
0F00
0F00
0F00
0F00
0F00
0F00
0F00
0F00
0F00
0F00
0F00
0F00
0F00
0F00
0F00
0F00
0F00
0F00
ENDCHAR
STARTCHAR itilde
ENCODING 297
SWIDTH 247 0
DWIDTH 9 0
BBX 13 26 -2 0
BITMAP
3C38
7E30
E3F0
E1E0
0000
0000
0000
0700
0700
0700
0700
0700
0700
0700
0700
0700
0700
0700
0700
0700
0700
0700
0700
0700
0700
0700
ENDCHAR
STARTCHAR Imacron
ENCODING 298
SWIDTH 271 0
DWIDTH 10 0
BBX 12 31 -1 0
BITMAP
FFF0
FFF0
FFF0
0000
0000
0F00
0F00
0F00
0F00
0F00
0F00
0F00
0F00
0F00
0F00
0F00
0F00
0F00
0F00
0F00
0F00
0F00
0F00
0F00
0F00
0F00
0F00
0F00
0F00
0F00
0F00
ENDCHAR
STARTCHAR imacron
ENCODING 299
SWIDTH 247 0
DWIDTH 9 0
BBX 11 25 -1 0
BITMAP
FFE0
FFE0
FFE0
0000
0000
0000
0E00
0E00
0E00
0E00
0E00
0E00
0E00
0E00
0E00
0E00
0E00
0E00
0E00
0E00
0E00
0E00
0E00
0E00
0E00
ENDCHAR
STARTCHAR Ibreve
ENCODING 300
SWIDTH 271 0
DWIDTH 10 0
BBX 11 33 -1 0
BITMAP
E0E0
60E0
71C0
3FC0
1F00
0000
0000
0F00
0F00
0F00
0F00
0F00
0F00
0F00
0F00
0F00
0F00
0F00
0F00
0F00
0F00
0F00
0F00
0F00
0F00
0F00
0F00
0F00
0F00
0F00
0F00
0F00
0F00
ENDCHAR
STARTCHAR ibreve
ENCODING 301
SWIDTH 247 0
DWIDTH 9 0
BBX 11 27 -1 0
BITMAP
E0E0
E0C0
71C0
7F80
1F00
0000
0000
0000
0E00
0E00
0E00
0E00
0E00
0E00
0E00
0E00
0E00
0E00
0E00
0E00
0E00
0E00
0E00
0E00
0E00
0E00
0E00
ENDCHAR
STARTCHAR Iogonek
ENCODING 302
SWIDTH 271 0
DWIDTH 10 0
BBX 6 33 1 -7
BITMAP
3C
3C
3C
3C
3C
3C
3C
3C
3C
3C
3C
3C
3C
3C
3C
3C
3C
3C
3C
3C
3C
3C
3C
3C
3C
3C
78
F0
E0
C0
E0
FC
7C
ENDCHAR
STARTCHAR iogonek
ENCODING 303
SWIDTH 242 0
DWIDTH 9 0
BBX 6 33 0 -7
BITMAP
1C
1C
1C
1C
00
00
00
1C
1C
1C
1C
1C
1C
1C
1C
1C
1C
1C
1C
1C
1C
1C
1C
1C
1C
1C
38
70
E0
E0
E0
FC
7C
ENDCHAR
STARTCHAR Idotaccent
ENCODING 304
SWIDTH 271 0
DWIDTH 10 0
BBX 4 32 3 0
BITMAP
60
F0
F0
60
00
00
F0
F0
F0
F0
F0
F0
F0
F0
F0
F0
F0
F0
F0
F0
F0
F0
F0
F0
F0
F0
F0
F0
F0
F0
F0
F0
ENDCHAR
STARTCHAR dotlessi
ENCODING 305
SWIDTH 247 0
DWIDTH 9 0
BBX 3 19 3 0
BITMAP
E0
E0
E0
E0
E0
E0
E0
E0
E0
E0
E0
E0
E0
E0
E0
E0
E0
E0
E0
ENDCHAR
STARTCHAR IJ
ENCODING 306
SWIDTH 823 0
DWIDTH 30 0
BBX 24 26 3 0
BITMAP
F0000F
F0000F
F0000F
F0000F
F0000F
F0000F
F0000F
F0000F
F0000F
F0000F
F0000F
F0000F
F0000F
F0000F
F0000F
F0000F
F0000F
F0000F
F0000F
F0E00F
F0E00F
F0F01E
F0783E
F07FFC
F03FF8
F00FE0
ENDCHAR
STARTCHAR ij
ENCODING 307
SWIDTH 481 0
DWIDTH 17 0
BBX 12 33 3 -7
BITMAP
E060
E0F0
E0F0
E060
0000
0000
0000
E0F0
E0F0
E0F0
E0F0
E0F0
E0F0
E0F0
E0F0
E0F0
E0F0
E0F0
E0F0
E0F0
E0F0
E0F0
E0F0
E0F0
E0F0
E0F0
00F0
00F0
00F0
00F0
07E0
07E0
0780
ENDCHAR
STARTCHAR Jcircumflex
ENCODING 308
SWIDTH 551 0
DWIDTH 20 0
BBX 19 33 1 0
BITMAP
000E00
001F00
003F80
0079C0
0070E0
000000
000000
000700
000700
000700
000700
000700
000700
000700
000700
000700
000700
000700
000700
000700
000700
000700
000700
000700
000700
000700
E00700
F00F00
F00F00
7C3E00
3FFC00
1FF800
07E000
ENDCHAR
STARTCHAR jcircumflex
ENCODING 309
SWIDTH 251 0
DWIDTH 9 0
BBX 11 33 -1 -7
BITMAP
0E00
1F00
3B80
71C0
E0E0
0000
0000
0E00
0E00
0E00
0E00
0E00
0E00
0E00
0E00
0E00
0E00
0E00
0E00
0E00
0E00
0E00
0E00
0E00
0E00
0E00
0E00
0E00
0E00
1E00
FE00
FC00
F000
ENDCHAR
STARTCHAR uni0136
ENCODING 310
SWIDTH 626 0
DWIDTH 23 0
BBX 20 34 3 -8
BITMAP
E003E0
E00780
E00F80
E00F00
E01E00
E03C00
E07800
E0F000
E1E000
E3C000
E7C000
E78000
EF8000
FFC000
FDE000
F8F000
F0F000
E07800
E03C00
E01E00
E01E00
E00F00
E00780
E003C0
E003C0
E001E0
000010
01C000
01C000
01C000
01C000
038000
038000
010000
ENDCHAR
STARTCHAR uni0137
ENCODING 311
SWIDTH 506 0
DWIDTH 18 0
BBX 16 35 2 -8
BITMAP
F000
F000
F000
F000
F000
F000
F000
F000
F01E
F03C
F078
F0F0
F1E0
F3C0
F780
FF00
FF00
FF80
FBC0
F9E0
F1E0
F0F0
F078
F03C
F03C
F01E
F00F
0000
0380
0380
0380
0700
0700
0700
0E00
ENDCHAR
STARTCHAR kgreenlandic
ENCODING 312
SWIDTH 556 0
DWIDTH 20 0
BBX 16 19 3 0
BITMAP
E01E
E03C
E078
E0F0
E0F0
E1E0
E3C0
E780
FF00
FF00
FF80
E7C0
E3C0
E1E0
E0F0
E078
E03C
E01E
E00F
ENDCHAR
STARTCHAR Lacute
ENCODING 313
SWIDTH 538 0
DWIDTH 19 0
BBX 16 33 3 0
BITMAP
1E00
3C00
7800
7000
E000
0000
0000
E000
E000
E000
E000
E000
E000
E000
E000
E000
E000
E000
E000
E000
E000
E000
E000
E000
E000
E000
E000
E000
E000
E000
FFFF
FFFF
FFFF
ENDCHAR
STARTCHAR lacute
ENCODING 314
SWIDTH 242 0
DWIDTH 9 0
BBX 7 34 3 0
BITMAP
1E
3C
78
F0
E0
00
00
E0
E0
E0
E0
E0
E0
E0
E0
E0
E0
E0
E0
E0
E0
E0
E0
E0
E0
E0
E0
E0
E0
E0
E0
E0
E0
E0
ENDCHAR
STARTCHAR uni013B
ENCODING 315
SWIDTH 538 0
DWIDTH 19 0
BBX 16 35 3 -9
BITMAP
E000
E000
E000
E000
E000
E000
E000
E000
E000
E000
E000
E000
E000
E000
E000
E000
E000
E000
E000
E000
E000
E000
E000
FFFF
FFFF
FFFF
0000
0000
0380
0380
0380
0380
0380
0700
0200
ENDCHAR
STARTCHAR uni013C
ENCODING 316
SWIDTH 242 0
DWIDTH 9 0
BBX 5 36 1 -9
BITMAP
38
38
38
38
38
38
38
38
38
38
38
38
38
38
38
38
38
38
38
38
38
38
38
38
38
38
38
00
00
38
38
38
38
70
70
A0
ENDCHAR
STARTCHAR Lcaron
ENCODING 317
SWIDTH 538 0
DWIDTH 19 0
BBX 16 26 3 0
BITMAP
E0E0
E0E0
E0E0
E0E0
E1E0
E1C0
E080
E000
E000
E000
E000
E000
E000
E000
E000
E000
E000
E000
E000
E000
E000
E000
E000
FFFF
FFFF
FFFF
ENDCHAR
STARTCHAR lcaron
ENCODING 318
SWIDTH 315 0
DWIDTH 11 0
BBX 9 27 3 0
BITMAP
E380
E380
E380
E380
E700
E700
E200
E000
E000
E000
E000
E000
E000
E000
E000
E000
E000
E000
E000
E000
E000
E000
E000
E000
E000
E000
E000
ENDCHAR
STARTCHAR Ldot
ENCODING 319
SWIDTH 538 0
DWIDTH 19 0
BBX 16 26 3 0
BITMAP
E000
E000
E000
E000
E000
E000
E000
E000
E000
E000
E0E0
E1E0
E1E0
E0E0
E000
E000
E000
E000
E000
E000
E000
E000
E000
FFFF
FFFF
FFFF
ENDCHAR
STARTCHAR ldot
ENCODING 320
SWIDTH 350 0
DWIDTH 13 0
BBX 9 27 3 0
BITMAP
E000
E000
E000
E000
E000
E000
E000
E000
E000
E000
E000
E300
E780
E780
E300
E000
E000
E000
E000
E000
E000
E000
E000
E000
E000
E000
E000
ENDCHAR
STARTCHAR Lslash
ENCODING 321
SWIDTH 538 0
DWIDTH 19 0
BBX 17 26 1 0
BITMAP
380000
380000
380000
380000
380000
380000
380000
380000
380000
38C000
3FC000
3FC000
FF0000
F80000
F80000
380000
380000
380000
380000
380000
380000
380000
380000
3FFF80
3FFF80
3FFF80
ENDCHAR
STARTCHAR lslash
ENCODING 322
SWIDTH 270 0
DWIDTH 10 0
BBX 8 27 1 0
BITMAP
38
38
38
38
38
38
38
38
38
38
38
39
3F
3F
FE
F8
F8
38
38
38
38
38
38
38
38
38
38
ENDCHAR
STARTCHAR Nacute
ENCODING 323
SWIDTH 712 0
DWIDTH 26 0
BBX 20 33 3 0
BITMAP
001E00
003C00
007800
007000
00E000
000000
000000
F00070
F80070
F80070
FC0070
FE0070
FE0070
FF0070
F70070
F78070
F3C070
F1C070
F1E070
F0F070
F0F070
F07870
F03C70
F03C70
F01E70
F00E70
F00F70
F007F0
F003F0
F003F0
F001F0
F000F0
F000F0
ENDCHAR
STARTCHAR nacute
ENCODING 324
SWIDTH 551 0
DWIDTH 20 0
BBX 14 26 3 0
BITMAP
00F8
00E0
01C0
0380
0700
0000
0000
E3E0
EFF8
FFFC
F83C
F01C
E01C
E01C
E01C
E01C
E01C
E01C
E01C
E01C
E01C
E01C
E01C
E01C
E01C
E01C
ENDCHAR
STARTCHAR uni0145
ENCODING 325
SWIDTH 712 0
DWIDTH 26 0
BBX 20 35 3 -9
BITMAP
F00070
F80070
F80070
FC0070
FE0070
FE0070
FF0070
F70070
F78070
F3C070
F1C070
F1E070
F0F070
F0F070
F07870
F03C70
F03C70
F01E70
F00E70
F00F70
F007F0
F003F0
F003F0
F001F0
F000F0
F000F0
000000
000000
00E000
00E000
00E000
00E000
01C000
01C000
008000
ENDCHAR
STARTCHAR uni0146
ENCODING 326
SWIDTH 551 0
DWIDTH 20 0
BBX 14 28 3 -9
BITMAP
E3E0
EFF8
FFFC
F83C
F01C
E01C
E01C
E01C
E01C
E01C
E01C
E01C
E01C
E01C
E01C
E01C
E01C
E01C
E01C
0000
0000
0700
0700
0700
0700
0700
0E00
0400
ENDCHAR
STARTCHAR Ncaron
ENCODING 327
SWIDTH 712 0
DWIDTH 26 0
BBX 20 33 3 0
BITMAP
0F0E00
031C00
03B800
01F000
00E000
000000
000000
F00070
F80070
F80070
FC0070
FE0070
FE0070
FF0070
F70070
F78070
F3C070
F1C070
F1E070
F0F070
F0F070
F07870
F03C70
F03C70
F01E70
F00E70
F00F70
F007F0
F003F0
F003F0
F001F0
F000F0
F000F0
ENDCHAR
STARTCHAR ncaron
ENCODING 328
SWIDTH 551 0
DWIDTH 20 0
BBX 14 27 3 0
BITMAP
3870
1CE0
0FC0
0780
0380
0000
0000
0000
E3E0
EFF8
FFFC
F83C
F01C
E01C
E01C
E01C
E01C
E01C
E01C
E01C
E01C
E01C
E01C
E01C
E01C
E01C
E01C
ENDCHAR
STARTCHAR napostrophe
ENCODING 329
SWIDTH 551 0
DWIDTH 20 0
BBX 18 27 -1 0
BITMAP
700000
700000
700000
700000
E00000
E00000
400000
000000
0E3E00
0EFF80
0FFFC0
0F83C0
0F01C0
0E01C0
0E01C0
0E01C0
0E01C0
0E01C0
0E01C0
0E01C0
0E01C0
0E01C0
0E01C0
0E01C0
0E01C0
0E01C0
0E01C0
ENDCHAR
STARTCHAR Eng
ENCODING 330
SWIDTH 692 0
DWIDTH 25 0
BBX 19 33 3 -7
BITMAP
F000E0
F000E0
F800E0
F800E0
FC00E0
FE00E0
EE00E0
EF00E0
E780E0
E380E0
E3C0E0
E1C0E0
E0E0E0
E0F0E0
E070E0
E038E0
E03CE0
E01CE0
E01EE0
E00EE0
E007E0
E007E0
E003E0
E001E0
E001E0
E000E0
0000E0
0000E0
0001E0
0001E0
000FC0
000FC0
001F00
ENDCHAR
STARTCHAR eng
ENCODING 331
SWIDTH 566 0
DWIDTH 20 0
BBX 16 26 2 -7
BITMAP
E3F0
E7FC
EFFC
FC1E
F00E
F00E
F00F
F00F
F00F
F00F
F00F
F00F
F00F
F00F
F00F
F00F
F00F
F00F
F00F
000F
000F
000E
001E
00FE
00FC
00F8
ENDCHAR
STARTCHAR Omacron
ENCODING 332
SWIDTH 687 0
DWIDTH 25 0
BBX 21 31 2 0
BITMAP
07FF00
07FF00
07FF00
000000
000000
01FC00
07FF00
0FFF80
1F07C0
3C01E0
7800E0
7800F0
700070
F00070
F00070
F00078
E00078
E00078
E00078
E00078
F00078
F00070
F00070
700070
7800F0
7800E0
3C01E0
1F07C0
0FFF80
07FF00
01FC00
ENDCHAR
STARTCHAR omacron
ENCODING 333
SWIDTH 570 0
DWIDTH 21 0
BBX 17 25 2 0
BITMAP
3FFC00
3FFC00
3FFC00
000000
000000
000000
07E000
1FFC00
3FFE00
7C1E00
780F00
F00780
F00780
E00380
E00380
E00380
E00380
E00380
F00780
F00780
780F00
7C1E00
3FFE00
1FFC00
07F000
ENDCHAR
STARTCHAR Obreve
ENCODING 334
SWIDTH 687 0
DWIDTH 25 0
BBX 21 33 2 0
BITMAP
070700
070600
038E00
03FC00
00F800
000000
000000
01FC00
07FF00
0FFF80
1F07C0
3C01E0
7800E0
7800F0
700070
F00070
F00070
F00078
E00078
E00078
E00078
E00078
F00078
F00070
F00070
700070
7800F0
7800E0
3C01E0
1F07C0
0FFF80
07FF00
01FC00
ENDCHAR
STARTCHAR obreve
ENCODING 335
SWIDTH 570 0
DWIDTH 21 0
BBX 17 27 2 0
BITMAP
181800
1C3800
1C3800
0FF000
07C000
000000
000000
000000
07E000
1FFC00
3FFE00
7C1E00
780F00
F00780
F00780
E00380
E00380
E00380
E00380
E00380
F00780
F00780
780F00
7C1E00
3FFE00
1FFC00
07F000
ENDCHAR
STARTCHAR Ohungarumlaut
ENCODING 336
SWIDTH 687 0
DWIDTH 25 0
BBX 21 33 2 0
BITMAP
0079E0
00E380
01E700
01CE00
039C00
000000
000000
01FC00
07FF00
0FFF80
1F07C0
3C01E0
7800E0
7800F0
700070
F00070
F00070
F00078
E00078
E00078
E00078
E00078
F00078
F00070
F00070
700070
7800F0
7800E0
3C01E0
1F07C0
0FFF80
07FF00
01FC00
ENDCHAR
STARTCHAR ohungarumlaut
ENCODING 337
SWIDTH 570 0
DWIDTH 21 0
BBX 17 26 2 0
BITMAP
03CF00
039E00
073C00
0F3800
0E7000
000000
000000
07E000
1FFC00
3FFE00
7C1E00
780F00
F00780
F00780
E00380
E00380
E00380
E00380
E00380
F00780
F00780
780F00
7C1E00
3FFE00
1FFC00
07F000
ENDCHAR
STARTCHAR OE
ENCODING 338
SWIDTH 953 0
DWIDTH 34 0
BBX 30 26 2 0
BITMAP
03FFFFF8
0FFFFFF8
1FFFFFF8
3E078000
78078000
70078000
F0078000
E0078000
E0078000
E0078000
E0078000
E007FFF0
E007FFF0
E007FFF0
E0078000
E0078000
E0078000
E0078000
E0078000
F0078000
70078000
78078000
3E078000
1FFFFFFC
0FFFFFFC
03FFFFFC
ENDCHAR
STARTCHAR oe
ENCODING 339
SWIDTH 908 0
DWIDTH 33 0
BBX 30 19 2 0
BITMAP
07E01F80
1FF87FE0
3FFCFFF0
7C1FF0F0
780FE078
F007C038
F007C038
E007803C
E003FFFC
E003FFFC
E003FFFC
E0078000
F0078000
F007C000
780FC000
7C1FF030
3FFCFFF8
1FF87FF0
07E01FC0
ENDCHAR
STARTCHAR Racute
ENCODING 340
SWIDTH 615 0
DWIDTH 22 0
BBX 18 33 3 0
BITMAP
007800
00F000
01E000
01C000
038000
000000
000000
FFF000
FFFC00
FFFE00
E01F00
E00780
E00780
E00380
E00380
E00380
E00380
E00780
E00780
E01F00
FFFE00
FFFC00
FFF800
E03800
E03C00
E01C00
E01E00
E00E00
E00F00
E00780
E00780
E003C0
E001C0
ENDCHAR
STARTCHAR racute
ENCODING 341
SWIDTH 338 0
DWIDTH 12 0
BBX 11 26 2 0
BITMAP
03E0
0380
0700
0E00
1C00
0000
0000
F3C0
FFC0
FFC0
FC00
F000
F000
F000
F000
F000
F000
F000
F000
F000
F000
F000
F000
F000
F000
F000
ENDCHAR
STARTCHAR uni0156
ENCODING 342
SWIDTH 615 0
DWIDTH 22 0
BBX 18 35 3 -9
BITMAP
FFF000
FFFC00
FFFE00
E01F00
E00780
E00780
E00380
E00380
E00380
E00380
E00780
E00780
E01F00
FFFE00
FFFC00
FFF800
E03800
E03C00
E01C00
E01E00
E00E00
E00F00
E00780
E00780
E003C0
E001C0
000000
000000
038000
038000
038000
038000
078000
070000
020000
ENDCHAR
STARTCHAR uni0157
ENCODING 343
SWIDTH 338 0
DWIDTH 12 0
BBX 11 28 1 -9
BITMAP
79E0
7FE0
7FE0
7E00
7800
7800
7800
7800
7800
7800
7800
7800
7800
7800
7800
7800
7800
7800
7800
0000
0000
3800
3800
3800
7800
7000
7000
A000
ENDCHAR
STARTCHAR Rcaron
ENCODING 344
SWIDTH 615 0
DWIDTH 22 0
BBX 18 33 3 0
BITMAP
383800
1C7000
0EE000
07C000
038000
000000
000000
FFF000
FFFC00
FFFE00
E01F00
E00780
E00780
E00380
E00380
E00380
E00380
E00780
E00780
E01F00
FFFE00
FFFC00
FFF800
E03800
E03C00
E01C00
E01E00
E00E00
E00F00
E00780
E00780
E003C0
E001C0
ENDCHAR
STARTCHAR rcaron
ENCODING 345
SWIDTH 338 0
DWIDTH 12 0
BBX 11 27 2 0
BITMAP
E1E0
7380
3B00
1F00
0E00
0000
0000
0000
F3C0
FFC0
FFC0
FC00
F000
F000
F000
F000
F000
F000
F000
F000
F000
F000
F000
F000
F000
F000
F000
ENDCHAR
STARTCHAR Sacute
ENCODING 346
SWIDTH 593 0
DWIDTH 21 0
BBX 19 33 1 0
BITMAP
001E00
003C00
003800
007000
00E000
000000
000000
03F800
0FFE00
1FFF80
3E0780
7803C0
7801C0
7001E0
7001E0
780000
3C0000
3E0000
1FC000
07F800
01FE00
003F80
0007C0
0003C0
0001E0
F001E0
F001E0
7001E0
7801C0
3E07C0
1FFF80
0FFF00
03FC00
ENDCHAR
STARTCHAR sacute
ENCODING 347
SWIDTH 515 0
DWIDTH 19 0
BBX 15 26 2 0
BITMAP
0078
00F0
00E0
01C0
0380
0000
0000
0FE0
1FF8
3FFC
783C
701E
700E
7800
7E00
3FE0
0FF8
01FC
003E
001E
E00E
F01E
783E
7FFC
3FF8
0FE0
ENDCHAR
STARTCHAR Scircumflex
ENCODING 348
SWIDTH 593 0
DWIDTH 21 0
BBX 19 33 1 0
BITMAP
00E000
01F000
03F800
079C00
070E00
000000
000000
03F800
0FFE00
1FFF80
3E0780
7803C0
7801C0
7001E0
7001E0
780000
3C0000
3E0000
1FC000
07F800
01FE00
003F80
0007C0
0003C0
0001E0
F001E0
F001E0
7001E0
7801C0
3E07C0
1FFF80
0FFF00
03FC00
ENDCHAR
STARTCHAR scircumflex
ENCODING 349
SWIDTH 515 0
DWIDTH 19 0
BBX 15 27 2 0
BITMAP
0380
07C0
0EE0
1E70
1C38
0000
0000
0000
0FE0
1FF8
3FFC
783C
701E
700E
7800
7E00
3FE0
0FF8
01FC
003E
001E
E00E
F01E
783E
7FFC
3FF8
0FE0
ENDCHAR
STARTCHAR Scedilla
ENCODING 350
SWIDTH 593 0
DWIDTH 21 0
BBX 19 33 1 -7
BITMAP
03F800
0FFE00
1FFF80
3E0780
7803C0
7801C0
7001E0
7001E0
780000
3C0000
3E0000
1FC000
07F800
01FE00
003F80
0007C0
0003C0
0001E0
F001E0
F001E0
7001E0
7801C0
3E07C0
1FFF80
0FFF00
03FC00
006000
007800
00BC00
001C00
001C00
00F800
00F000
ENDCHAR
STARTCHAR scedilla
ENCODING 351
SWIDTH 515 0
DWIDTH 19 0
BBX 15 26 2 -7
BITMAP
0FE0
1FF8
3FFC
783C
701E
700E
7800
7E00
3FE0
0FF8
01FC
003E
001E
E00E
F01E
783E
7FFC
3FF8
0FE0
0180
03E0
01E0
0070
0070
03E0
03C0
ENDCHAR
STARTCHAR Scaron
ENCODING 352
SWIDTH 593 0
DWIDTH 21 0
BBX 19 33 1 0
BITMAP
070E00
039C00
01B800
00F000
00E000
000000
000000
03F800
0FFE00
1FFF80
3E0780
7803C0
7801C0
7001E0
7001E0
780000
3C0000
3E0000
1FC000
07F800
01FE00
003F80
0007C0
0003C0
0001E0
F001E0
F001E0
7001E0
7801C0
3E07C0
1FFF80
0FFF00
03FC00
ENDCHAR
STARTCHAR scaron
ENCODING 353
SWIDTH 515 0
DWIDTH 19 0
BBX 15 27 2 0
BITMAP
3C38
0E70
06E0
07C0
0380
0000
0000
0000
0FE0
1FF8
3FFC
783C
701E
700E
7800
7E00
3FE0
0FF8
01FC
003E
001E
E00E
F01E
783E
7FFC
3FF8
0FE0
ENDCHAR
STARTCHAR uni0162
ENCODING 354
SWIDTH 596 0
DWIDTH 21 0
BBX 20 33 1 -7
BITMAP
FFFFF0
FFFFF0
FFFFF0
00E000
00E000
00E000
00E000
00E000
00E000
00E000
00E000
00E000
00E000
00E000
00E000
00E000
00E000
00E000
00E000
00E000
00E000
00E000
00E000
00E000
00E000
00E000
006000
00F800
007800
001C00
003800
00F800
00E000
ENDCHAR
STARTCHAR uni0163
ENCODING 355
SWIDTH 326 0
DWIDTH 12 0
BBX 12 31 0 -7
BITMAP
0E00
0E00
0E00
0E00
0E00
FFE0
FFE0
FFE0
0E00
0E00
0E00
0E00
0E00
0E00
0E00
0E00
0E00
0E00
0E00
0E00
0F00
0FE0
07E0
03E0
0180
01E0
02F0
0070
0070
03E0
03C0
ENDCHAR
STARTCHAR Tcaron
ENCODING 356
SWIDTH 596 0
DWIDTH 21 0
BBX 20 33 1 0
BITMAP
0F0E00
031C00
03B800
01F000
00E000
000000
000000
FFFFF0
FFFFF0
FFFFF0
00E000
00E000
00E000
00E000
00E000
00E000
00E000
00E000
00E000
00E000
00E000
00E000
00E000
00E000
00E000
00E000
00E000
00E000
00E000
00E000
00E000
00E000
00E000
ENDCHAR
STARTCHAR tcaron
ENCODING 357
SWIDTH 346 0
DWIDTH 12 0
BBX 13 29 0 0
BITMAP
0038
0038
0038
0038
0070
0E70
0E20
0E00
0E00
0E00
FFE0
FFE0
FFE0
0E00
0E00
0E00
0E00
0E00
0E00
0E00
0E00
0E00
0E00
0E00
0E00
0F00
0FE0
07E0
03E0
ENDCHAR
STARTCHAR Tbar
ENCODING 358
SWIDTH 596 0
DWIDTH 21 0
BBX 20 26 1 0
BITMAP
FFFFF0
FFFFF0
FFFFF0
00E000
00E000
00E000
00E000
00E000
00E000
0FFE00
0FFE00
0FFE00
00E000
00E000
00E000
00E000
00E000
00E000
00E000
00E000
00E000
00E000
00E000
00E000
00E000
00E000
ENDCHAR
STARTCHAR tbar
ENCODING 359
SWIDTH 326 0
DWIDTH 12 0
BBX 11 24 0 0
BITMAP
0E00
0E00
0E00
0E00
0E00
FFC0
FFC0
FFC0
0E00
0E00
0E00
FFE0
FFE0
FFE0
0E00
0E00
0E00
0E00
0E00
0E00
0E00
0FE0
0FE0
03E0
ENDCHAR
STARTCHAR Utilde
ENCODING 360
SWIDTH 648 0
DWIDTH 23 0
BBX 19 32 2 0
BITMAP
078300
0FC700
0C7E00
0C3C00
000000
000000
F001E0
F001E0
F001E0
F001E0
F001E0
F001E0
F001E0
F001E0
F001E0
F001E0
F001E0
F001E0
F001E0
F001E0
F001E0
F001E0
F001E0
F001E0
F001E0
F001E0
7001C0
7803C0
3E0F80
1FFF00
0FFE00
03F800
ENDCHAR
STARTCHAR utilde
ENCODING 361
SWIDTH 551 0
DWIDTH 20 0
BBX 15 26 2 0
BITMAP
0E0C
1F9C
39F8
3070
0000
0000
0000
F00E
F00E
F00E
F00E
F00E
F00E
F00E
F00E
F00E
F00E
F00E
F00E
F00E
700E
701E
783E
7FFE
3FFE
0FCE
ENDCHAR
STARTCHAR Umacron
ENCODING 362
SWIDTH 648 0
DWIDTH 23 0
BBX 19 31 2 0
BITMAP
0FFF00
0FFF00
0FFF00
000000
000000
F001E0
F001E0
F001E0
F001E0
F001E0
F001E0
F001E0
F001E0
F001E0
F001E0
F001E0
F001E0
F001E0
F001E0
F001E0
F001E0
F001E0
F001E0
F001E0
F001E0
7001C0
7803C0
3E0F80
1FFF00
0FFE00
03F800
ENDCHAR
STARTCHAR umacron
ENCODING 363
SWIDTH 551 0
DWIDTH 20 0
BBX 15 25 2 0
BITMAP
3FFC
3FFC
3FFC
0000
0000
0000
F00E
F00E
F00E
F00E
F00E
F00E
F00E
F00E
F00E
F00E
F00E
F00E
F00E
700E
701E
783E
7FFE
3FFE
0FCE
ENDCHAR
STARTCHAR Ubreve
ENCODING 364
SWIDTH 648 0
DWIDTH 23 0
BBX 19 32 2 0
BITMAP
0E0E00
0E0E00
071C00
03F800
01F000
000000
F001E0
F001E0
F001E0
F001E0
F001E0
F001E0
F001E0
F001E0
F001E0
F001E0
F001E0
F001E0
F001E0
F001E0
F001E0
F001E0
F001E0
F001E0
F001E0
F001E0
7001C0
7803C0
3E0F80
1FFF00
0FFE00
03F800
ENDCHAR
STARTCHAR ubreve
ENCODING 365
SWIDTH 551 0
DWIDTH 20 0
BBX 15 27 2 0
BITMAP
1838
1838
1C70
0FF0
07C0
0000
0000
0000
F00E
F00E
F00E
F00E
F00E
F00E
F00E
F00E
F00E
F00E
F00E
F00E
F00E
700E
701E
783E
7FFE
3FFE
0FCE
ENDCHAR
STARTCHAR Uring
ENCODING 366
SWIDTH 648 0
DWIDTH 23 0
BBX 19 35 2 0
BITMAP
00F000
01F800
031800
030800
031800
01F800
00F000
000000
000000
F001E0
F001E0
F001E0
F001E0
F001E0
F001E0
F001E0
F001E0
F001E0
F001E0
F001E0
F001E0
F001E0
F001E0
F001E0
F001E0
F001E0
F001E0
F001E0
F001E0
7001C0
7803C0
3E0F80
1FFF00
0FFE00
03F800
ENDCHAR
STARTCHAR uring
ENCODING 367
SWIDTH 551 0
DWIDTH 20 0
BBX 15 28 2 0
BITMAP
03C0
07E0
0C30
0C30
0C30
07E0
03C0
0000
0000
F00E
F00E
F00E
F00E
F00E
F00E
F00E
F00E
F00E
F00E
F00E
F00E
F00E
700E
701E
783E
7FFE
3FFE
0FCE
ENDCHAR
STARTCHAR Uhungarumlaut
ENCODING 368
SWIDTH 648 0
DWIDTH 23 0
BBX 19 33 2 0
BITMAP
00F3C0
01E780
01CF00
039E00
073C00
000000
000000
F001E0
F001E0
F001E0
F001E0
F001E0
F001E0
F001E0
F001E0
F001E0
F001E0
F001E0
F001E0
F001E0
F001E0
F001E0
F001E0
F001E0
F001E0
F001E0
F001E0
7001C0
7803C0
3E0F80
1FFF00
0FFE00
03F800
ENDCHAR
STARTCHAR uhungarumlaut
ENCODING 369
SWIDTH 551 0
DWIDTH 20 0
BBX 16 26 2 0
BITMAP
03CF
039E
073C
0E78
0E70
0000
0000
F00E
F00E
F00E
F00E
F00E
F00E
F00E
F00E
F00E
F00E
F00E
F00E
F00E
700E
701E
783E
7FFE
3FFE
0FCE
ENDCHAR
STARTCHAR Uogonek
ENCODING 370
SWIDTH 648 0
DWIDTH 23 0
BBX 19 33 2 -7
BITMAP
F000E0
F000E0
F000E0
F000E0
F000E0
F000E0
F000E0
F000E0
F000E0
F000E0
F000E0
F000E0
F000E0
F000E0
F000E0
F000E0
F000E0
F000E0
7001E0
7001E0
7801C0
7803C0
3E0F80
1FFF80
0FFE00
03FC00
003800
007000
007000
007000
007000
007E00
003C00
ENDCHAR
STARTCHAR uogonek
ENCODING 371
SWIDTH 551 0
DWIDTH 20 0
BBX 16 26 2 -7
BITMAP
F00E
F00E
F00E
F00E
F00E
F00E
F00E
F00E
F00E
F00E
F00E
F00E
F00E
F00E
701E
783E
7FFE
3FEE
0FCE
001E
0038
0038
0070
0070
003E
001F
ENDCHAR
STARTCHAR Wcircumflex
ENCODING 372
SWIDTH 887 0
DWIDTH 32 0
BBX 30 33 1 0
BITMAP
00038000
0007C000
000EE000
001C7000
00387800
00000000
00000000
F003801C
F007803C
7007803C
7007C038
700FC038
780FC038
380FC078
380EE070
381CE070
3C1CE070
1C1C60F0
1C1C70E0
1C3870E0
1E3870E0
0E3838E0
0E7039C0
0E7039C0
0E7019C0
0F701DC0
07E01DC0
07E01F80
07E00F80
07C00F80
03C00F80
03C00F00
03C00700
ENDCHAR
STARTCHAR wcircumflex
ENCODING 373
SWIDTH 751 0
DWIDTH 27 0
BBX 25 27 1 0
BITMAP
001C0000
003E0000
00770000
00E38000
01C1C000
00000000
00000000
00000000
E01C0380
E01C0380
F03E0700
703E0700
703E0700
70760700
38770E00
38770E00
38E30E00
18E38C00
1CE39C00
1CC19C00
1DC1DC00
0FC1D800
0F80F800
0F80F800
0780F000
07007000
07007000
ENDCHAR
STARTCHAR Ycircumflex
ENCODING 374
SWIDTH 600 0
DWIDTH 22 0
BBX 21 33 0 0
BITMAP
007000
00F800
01DC00
03CE00
038700
000000
000000
F00078
780070
3800F0
3C00E0
1C01E0
1E01C0
0E03C0
0F0380
070780
078700
038F00
03CE00
01DE00
00FC00
00F800
007800
007000
007000
007000
007000
007000
007000
007000
007000
007000
007000
ENDCHAR
STARTCHAR ycircumflex
ENCODING 375
SWIDTH 473 0
DWIDTH 17 0
BBX 17 34 0 -7
BITMAP
01C000
03E000
07F000
0F3800
0E1C00
000000
000000
000000
F00780
700700
780F00
380E00
380E00
3C1E00
1C1C00
1C1C00
1E3C00
0E3800
0F3800
077000
077000
07F000
03E000
03E000
03E000
01C000
01C000
01C000
038000
038000
070000
7F0000
7E0000
7C0000
ENDCHAR
STARTCHAR Ydieresis
ENCODING 376
SWIDTH 600 0
DWIDTH 22 0
BBX 21 32 0 0
BITMAP
030700
078780
078780
030700
000000
000000
F00078
780070
3800F0
3C00E0
1C01E0
1E01C0
0E03C0
0F0380
070780
078700
038F00
03CE00
01DE00
00FC00
00F800
007800
007000
007000
007000
007000
007000
007000
007000
007000
007000
007000
ENDCHAR
STARTCHAR Zacute
ENCODING 377
SWIDTH 598 0
DWIDTH 22 0
BBX 18 33 2 0
BITMAP
003C00
007800
007000
00E000
01C000
000000
000000
FFFFC0
FFFFC0
FFFFC0
000780
000F00
000F00
001E00
003C00
003C00
007800
00F000
00E000
01E000
03C000
038000
078000
0F0000
1E0000
1E0000
3C0000
780000
780000
F00000
FFFFC0
FFFFC0
FFFFC0
ENDCHAR
STARTCHAR zacute
ENCODING 378
SWIDTH 495 0
DWIDTH 18 0
BBX 15 26 2 0
BITMAP
00F8
01E0
01C0
0380
0700
0000
0000
FFFC
FFFC
FFFC
0038
0078
00F0
01E0
03C0
0380
0780
0F00
1E00
1C00
3C00
7800
F000
FFFE
FFFE
FFFE
ENDCHAR
STARTCHAR Zdotaccent
ENCODING 379
SWIDTH 598 0
DWIDTH 22 0
BBX 18 32 2 0
BITMAP
00C000
01E000
01E000
00C000
000000
000000
FFFFC0
FFFFC0
FFFFC0
000780
000F00
000F00
001E00
003C00
003C00
007800
00F000
00E000
01E000
03C000
038000
078000
0F0000
1E0000
1E0000
3C0000
780000
780000
F00000
FFFFC0
FFFFC0
FFFFC0
ENDCHAR
STARTCHAR zdotaccent
ENCODING 380
SWIDTH 495 0
DWIDTH 18 0
BBX 15 26 2 0
BITMAP
0300
0780
0780
0300
0000
0000
0000
FFFC
FFFC
FFFC
0038
0078
00F0
01E0
03C0
0380
0780
0F00
1E00
1C00
3C00
7800
F000
FFFE
FFFE
FFFE
ENDCHAR
STARTCHAR Zcaron
ENCODING 381
SWIDTH 598 0
DWIDTH 22 0
BBX 18 33 2 0
BITMAP
1E1C00
063800
037000
03E000
01C000
000000
000000
FFFFC0
FFFFC0
FFFFC0
000780
000F00
000F00
001E00
003C00
003C00
007800
00F000
00E000
01E000
03C000
038000
078000
0F0000
1E0000
1E0000
3C0000
780000
780000
F00000
FFFFC0
FFFFC0
FFFFC0
ENDCHAR
STARTCHAR zcaron
ENCODING 382
SWIDTH 495 0
DWIDTH 18 0
BBX 15 27 2 0
BITMAP
3870
1CE0
0FC0
0780
0300
0000
0000
0000
FFFC
FFFC
FFFC
0038
0078
00F0
01E0
03C0
0380
0780
0F00
1E00
1C00
3C00
7800
F000
FFFE
FFFE
FFFE
ENDCHAR
STARTCHAR longs
ENCODING 383
SWIDTH 248 0
DWIDTH 9 0
BBX 8 27 3 0
BITMAP
1F
3F
7F
F0
F0
E0
E0
E0
E0
E0
E0
E0
E0
E0
E0
E0
E0
E0
E0
E0
E0
E0
E0
E0
E0
E0
E0
ENDCHAR
STARTCHAR uni018F
ENCODING 399
SWIDTH 690 0
DWIDTH 25 0
BBX 21 26 2 0
BITMAP
07F800
1FFF00
3FFF80
1C0FC0
0003E0
0001E0
0000F0
000070
000070
000078
000078
000078
FFFFF8
FFFFF8
FFFFF8
E00078
E00078
E00070
E00070
F000F0
7001E0
7801E0
3E07C0
1FFF80
0FFF00
01FC00
ENDCHAR
STARTCHAR florin
ENCODING 402
SWIDTH 340 0
DWIDTH 12 0
BBX 13 34 -1 -7
BITMAP
00F8
03F8
03F8
0780
0700
0700
0700
0700
3FF0
3FF0
3FF0
0700
0700
0700
0700
0700
0700
0700
0700
0700
0700
0700
0700
0700
0700
0700
0700
0700
0700
0F00
0F00
7E00
FC00
F800
ENDCHAR
STARTCHAR Ohorn
ENCODING 416
SWIDTH 686 0
DWIDTH 25 0
BBX 23 28 2 0
BITMAP
00000E
00000E
01FC0E
07FF0E
0FFFBC
1F07FC
3C03F0
7801E0
7000F0
7000F0
F00070
E00070
E00070
E00070
E00078
E00078
E00070
E00070
E00070
F00070
7000F0
7000F0
7801E0
3C01E0
1F07C0
0FFF80
07FF00
01F800
ENDCHAR
STARTCHAR ohorn
ENCODING 417
SWIDTH 571 0
DWIDTH 21 0
BBX 19 21 2 0
BITMAP
000060
000060
07F060
1FF8E0
3FFFC0
7C1F80
780F00
F00700
F00780
E00380
E00380
E00380
E00380
E00380
F00780
F00780
780F00
7C1E00
3FFE00
1FFC00
07E000
ENDCHAR
STARTCHAR Uhorn
ENCODING 431
SWIDTH 695 0
DWIDTH 25 0
BBX 26 27 2 0
BITMAP
000001C0
F000E180
F000E380
F000E380
F000EF00
F000FF00
F000FC00
F000E000
F000E000
F000E000
F000E000
F000E000
F000E000
F000E000
F000E000
F000E000
F000E000
F000E000
F000E000
F001E000
7001E000
7801C000
7803C000
3E0F8000
1FFF8000
0FFE0000
03F80000
ENDCHAR
STARTCHAR uhorn
ENCODING 432
SWIDTH 618 0
DWIDTH 22 0
BBX 21 21 2 0
BITMAP
000038
000038
E00E30
E00E30
E00FF0
E00FE0
E00E00
E00E00
E00E00
E00E00
E00E00
E00E00
E00E00
E00E00
F00E00
F00E00
F01E00
783E00
7FFE00
3FEE00
0FCE00
ENDCHAR
STARTCHAR uni01F0
ENCODING 496
SWIDTH 251 0
DWIDTH 9 0
BBX 11 34 -1 -7
BITMAP
E0E0
71C0
3B80
1F00
0E00
0000
0000
0000
0E00
0E00
0E00
0E00
0E00
0E00
0E00
0E00
0E00
0E00
0E00
0E00
0E00
0E00
0E00
0E00
0E00
0E00
0E00
0E00
0E00
0E00
1E00
FE00
FC00
F000
ENDCHAR
STARTCHAR Aringacute
ENCODING 506
SWIDTH 652 0
DWIDTH 23 0
BBX 23 34 0 0
BITMAP
000780
000E00
001C00
000000
003C00
007C00
006600
006600
007C00
007C00
007C00
007C00
00EE00
00EE00
00EE00
01C700
01C700
03C780
038380
038380
0701C0
0701C0
0701C0
0E00E0
0FFFE0
1FFFF0
1FFFF0
1C0070
3C0078
380038
380038
78003C
70001C
F0001E
ENDCHAR
STARTCHAR aringacute
ENCODING 507
SWIDTH 543 0
DWIDTH 20 0
BBX 16 29 2 0
BITMAP
0038
0070
00C0
0000
01C0
03E0
0620
0620
03E0
01C0
07E0
1FF8
3FFC
7C3E
701E
700E
000E
000E
07FE
3FFE
7FFE
780E
F00E
E00E
F01E
F83E
7FFE
3FEE
0F8F
ENDCHAR
STARTCHAR AEacute
ENCODING 508
SWIDTH 934 0
DWIDTH 34 0
BBX 33 33 0 0
BITMAP
00003C0000
0000780000
0000F00000
0001E00000
0001C00000
0000000000
0000000000
0001FFFF00
0003FFFF00
0003FFFF00
0007F00000
0007700000
000E700000
001E700000
001C700000
003C700000
0038700000
0078700000
00F07FFE00
00F07FFE00
01E07FFE00
01E0700000
03C0700000
0780700000
07FFF00000
0FFFF00000
0FFFF00000
1E00780000
3C00780000
3C00780000
78007FFF80
78007FFF80
F0007FFF80
ENDCHAR
STARTCHAR aeacute
ENCODING 509
SWIDTH 844 0
DWIDTH 30 0
BBX 28 26 1 0
BITMAP
0001F000
0001C000
00038000
00070000
000E0000
00000000
00000000
07E07E00
1FF8FF80
3FFFFFC0
7C3FC1E0
701F80E0
700F00F0
000F0070
000E0070
0FFFFFF0
3FFFFFF0
7FFFFFF0
780E0000
F00E0000
E00F0000
F00F8000
F83FC0E0
7FFFFFE0
3FF0FFF0
1FC03F80
ENDCHAR
STARTCHAR Oslashacute
ENCODING 510
SWIDTH 687 0
DWIDTH 25 0
BBX 21 34 2 -1
BITMAP
000F00
001E00
003C00
007800
007000
000000
000018
01FC30
07FF70
0FFFE0
1F07E0
3C01E0
3801E0
7803F0
700770
700670
F00E78
F00C78
F01878
F03878
F03078
F07078
F0E078
F0C078
71C070
718070
7B00F0
3F00E0
3E01E0
1F07C0
1FFF80
1FFF00
39FC00
700000
ENDCHAR
STARTCHAR oslashacute
ENCODING 511
SWIDTH 566 0
DWIDTH 20 0
BBX 18 28 1 -2
BITMAP
003C00
007800
00F000
01E000
01C000
000300
000600
03F600
0FFC00
1FFE00
3E1F00
781F80
783F80
703380
7063C0
F063C0
F0C3C0
F0C3C0
7183C0
738380
7B0380
7F0780
3E1F00
1FFE00
0FFC00
1FF000
180000
380000
ENDCHAR
STARTCHAR uni0218
ENCODING 536
SWIDTH 593 0
DWIDTH 21 0
BBX 19 35 1 -9
BITMAP
03F800
0FFE00
1FFF80
3E0780
7803C0
7801C0
7001E0
7001E0
780000
3C0000
3E0000
1FC000
07F800
01FE00
003F80
0007C0
0003C0
0001E0
F001E0
F001E0
7001E0
7801C0
3E07C0
1FFF80
0FFF00
03FC00
000000
000000
00F000
00F000
00E000
00E000
00E000
01C000
00C000
ENDCHAR
STARTCHAR uni0219
ENCODING 537
SWIDTH 515 0
DWIDTH 19 0
BBX 15 28 2 -9
BITMAP
0FE0
1FF8
3FFC
783C
701E
700E
7800
7E00
3FE0
0FF8
01FC
003E
001E
E00E
F01E
783E
7FFC
3FF8
0FE0
0000
0000
0380
0380
0380
0380
0380
0700
0200
ENDCHAR
STARTCHAR uni021A
ENCODING 538
SWIDTH 596 0
DWIDTH 21 0
BBX 20 35 1 -9
BITMAP
FFFFF0
FFFFF0
FFFFF0
00E000
00E000
00E000
00E000
00E000
00E000
00E000
00E000
00E000
00E000
00E000
00E000
00E000
00E000
00E000
00E000
00E000
00E000
00E000
00E000
00E000
00E000
00E000
000000
000000
00E000
00E000
00E000
00E000
00E000
01C000
008000
ENDCHAR
STARTCHAR uni021B
ENCODING 539
SWIDTH 326 0
DWIDTH 12 0
BBX 11 33 0 -9
BITMAP
0E00
0E00
0E00
0E00
0E00
FFE0
FFE0
FFE0
0E00
0E00
0E00
0E00
0E00
0E00
0E00
0E00
0E00
0E00
0E00
0E00
0F00
0FE0
07E0
03E0
0000
0000
0380
0380
0380
0380
0380
0700
0200
ENDCHAR
STARTCHAR uni0237
ENCODING 567
SWIDTH 251 0
DWIDTH 9 0
BBX 7 26 -1 -7
BITMAP
0E
0E
0E
0E
0E
0E
0E
0E
0E
0E
0E
0E
0E
0E
0E
0E
0E
0E
0E
0E
0E
0E
1E
FE
FC
F0
ENDCHAR
STARTCHAR uni0259
ENCODING 601
SWIDTH 526 0
DWIDTH 19 0
BBX 16 19 2 0
BITMAP
1FC0
7FF0
FFF8
707C
001E
001E
000E
000E
000F
FFFF
FFFF
FFFE
E00E
E00E
F01E
783C
7FF8
3FF0
0FC0
ENDCHAR
STARTCHAR uni02BC
ENCODING 700
SWIDTH 199 0
DWIDTH 7 0
BBX 5 9 1 18
BITMAP
78
78
78
78
70
70
F0
E0
40
ENDCHAR
STARTCHAR circumflex
ENCODING 710
SWIDTH 470 0
DWIDTH 17 0
BBX 11 5 3 22
BITMAP
0E00
1F00
3B80
71C0
E1E0
ENDCHAR
STARTCHAR caron
ENCODING 711
SWIDTH 443 0
DWIDTH 16 0
BBX 11 5 2 22
BITMAP
F0E0
39C0
1B80
0F00
0E00
ENDCHAR
STARTCHAR uni02C9
ENCODING 713
SWIDTH 458 0
DWIDTH 17 0
BBX 12 2 2 22
BITMAP
FFF0
FFF0
ENDCHAR
STARTCHAR breve
ENCODING 728
SWIDTH 426 0
DWIDTH 15 0
BBX 11 5 2 22
BITMAP
E0E0
E0C0
71C0
7F80
1F00
ENDCHAR
STARTCHAR dotaccent
ENCODING 729
SWIDTH 242 0
DWIDTH 9 0
BBX 3 4 3 22
BITMAP
E0
E0
E0
E0
ENDCHAR
STARTCHAR ring
ENCODING 730
SWIDTH 334 0
DWIDTH 12 0
BBX 8 7 2 21
BITMAP
3C
7E
C3
C3
C3
7E
3C
ENDCHAR
STARTCHAR ogonek
ENCODING 731
SWIDTH 270 0
DWIDTH 10 0
BBX 6 8 1 -7
BITMAP
18
3C
70
E0
E0
E0
FC
7C
ENDCHAR
STARTCHAR tilde
ENCODING 732
SWIDTH 471 0
DWIDTH 17 0
BBX 13 4 2 22
BITMAP
3C38
7E30
E3F0
C1E0
ENDCHAR
STARTCHAR hungarumlaut
ENCODING 733
SWIDTH 373 0
DWIDTH 13 0
BBX 12 5 2 22
BITMAP
3CF0
39E0
73C0
E780
E700
ENDCHAR
STARTCHAR uni02F3
ENCODING 755
SWIDTH 293 0
DWIDTH 11 0
BBX 6 6 2 -7
BITMAP
38
7C
C4
C4
7C
78
ENDCHAR
STARTCHAR gravecomb
ENCODING 768
SWIDTH 0 0
DWIDTH 0 0
BBX 7 5 -15 22
BITMAP
F0
78
3C
1E
0E
ENDCHAR
STARTCHAR acutecomb
ENCODING 769
SWIDTH 0 0
DWIDTH 0 0
BBX 8 5 -12 22
BITMAP
1F
1C
38
70
F0
ENDCHAR
STARTCHAR tildecomb
ENCODING 771
SWIDTH 0 0
DWIDTH 0 0
BBX 13 4 -16 22
BITMAP
3C18
7E38
63F0
E1E0
ENDCHAR
STARTCHAR hookabovecomb
ENCODING 777
SWIDTH 0 0
DWIDTH 0 0
BBX 6 7 -12 22
BITMAP
F0
F8
1C
1C
78
70
60
ENDCHAR
STARTCHAR uni030F
ENCODING 783
SWIDTH 0 0
DWIDTH 0 0
BBX 13 5 -17 22
BITMAP
F3C0
79C0
3CE0
1E70
0738
ENDCHAR
STARTCHAR dotbelowcomb
ENCODING 803
SWIDTH 0 0
DWIDTH 0 0
BBX 4 4 -13 -6
BITMAP
70
70
F0
70
ENDCHAR
STARTCHAR tonos
ENCODING 900
SWIDTH 256 0
DWIDTH 9 0
BBX 4 6 3 22
BITMAP
70
70
60
60
E0
C0
ENDCHAR
STARTCHAR dieresistonos
ENCODING 901
SWIDTH 505 0
DWIDTH 18 0
BBX 14 8 2 22
BITMAP
03C0
0380
0380
0380
6318
F03C
F03C
6038
ENDCHAR
STARTCHAR Alphatonos
ENCODING 902
SWIDTH 652 0
DWIDTH 23 0
BBX 23 28 0 0
BITMAP
0E0000
0E0000
0C3800
0C7C00
1C7C00
187C00
00EE00
00EE00
00EE00
01C700
01C700
03C780
038380
038380
0701C0
0701C0
0701C0
0E00E0
0FFFE0
1FFFF0
1FFFF0
1C0070
3C0078
380038
380038
78003C
70001C
F0001E
ENDCHAR
STARTCHAR anoteleia
ENCODING 903
SWIDTH 261 0
DWIDTH 9 0
BBX 4 4 2 11
BITMAP
70
F0
F0
70
ENDCHAR
STARTCHAR Epsilontonos
ENCODING 904
SWIDTH 568 0
DWIDTH 20 0
BBX 23 28 -4 0
BITMAP
700000
700000
61FFFE
61FFFE
E1FFFE
C1C000
01C000
01C000
01C000
01C000
01C000
01C000
01C000
01FFF8
01FFF8
01FFF8
01C000
01C000
01C000
01C000
01C000
01C000
01C000
01C000
01C000
01FFFE
01FFFE
01FFFE
ENDCHAR
STARTCHAR Etatonos
ENCODING 905
SWIDTH 712 0
DWIDTH 26 0
BBX 27 28 -4 0
BITMAP
70000000
70000000
71C001E0
61C001E0
61C001E0
E1C001E0
01C001E0
01C001E0
01C001E0
01C001E0
01C001E0
01C001E0
01C001E0
01FFFFE0
01FFFFE0
01FFFFE0
01C001E0
01C001E0
01C001E0
01C001E0
01C001E0
01C001E0
01C001E0
01C001E0
01C001E0
01C001E0
01C001E0
01C001E0
ENDCHAR
STARTCHAR Iotatonos
ENCODING 906
SWIDTH 271 0
DWIDTH 10 0
BBX 10 28 -3 0
BITMAP
F000
E000
E3C0
C3C0
C3C0
C3C0
03C0
03C0
03C0
03C0
03C0
03C0
03C0
03C0
03C0
03C0
03C0
03C0
03C0
03C0
03C0
03C0
03C0
03C0
03C0
03C0
03C0
03C0
ENDCHAR
STARTCHAR Omicrontonos
ENCODING 908
SWIDTH 697 0
DWIDTH 25 0
BBX 23 28 0 0
BITMAP
F00000
E00000
E07F00
C1FFC0
C3FFE0
C7C1F0
0F0078
0F003C
1E003C
1E001C
1C001E
1C001E
3C000E
3C000E
3C000E
3C000E
3C000E
3C000E
1C001E
1C001E
1E001C
1E001C
0F003C
0F8078
07C1F0
03FFE0
01FFC0
007F00
ENDCHAR
STARTCHAR Upsilontonos
ENCODING 910
SWIDTH 649 0
DWIDTH 23 0
BBX 27 28 -4 0
BITMAP
70000000
60000000
E3C001E0
E1E003C0
C1E003C0
C0F00780
00F00780
00780F00
00380F00
003C1E00
001C1C00
001E3C00
000E3800
000F7800
00077000
0007F000
0003E000
0003E000
0001C000
0001C000
0001C000
0001C000
0001C000
0001C000
0001C000
0001C000
0001C000
0001C000
ENDCHAR
STARTCHAR Omegatonos
ENCODING 911
SWIDTH 674 0
DWIDTH 24 0
BBX 22 28 0 0
BITMAP
F00000
E00000
E07E00
C1FF80
C3FFE0
C7C1F0
0F00F0
1E0078
1E0038
1C0038
1C003C
3C003C
3C003C
3C001C
3C001C
3C001C
3C003C
1C003C
1C003C
1C0038
1E0038
0E0070
0F0070
0700E0
03C1C0
3FE7FC
3FE7FC
3FE7FC
ENDCHAR
STARTCHAR iotadieresistonos
ENCODING 912
SWIDTH 323 0
DWIDTH 12 0
BBX 14 30 -2 0
BITMAP
01C0
0380
0380
0380
7318
F03C
F03C
7018
0000
0000
0000
0780
0780
0780
0780
0780
0780
0780
0780
0780
0780
0780
0780
0780
0780
0780
0380
03F0
03F0
00F0
ENDCHAR
STARTCHAR Alpha
ENCODING 913
SWIDTH 652 0
DWIDTH 23 0
BBX 23 26 0 0
BITMAP
003800
007C00
007C00
007C00
00EE00
00EE00
00EE00
01C700
01C700
03C780
038380
038380
0701C0
0701C0
0701C0
0E00E0
0FFFE0
1FFFF0
1FFFF0
1C0070
3C0078
380038
380038
78003C
70001C
F0001E
ENDCHAR
STARTCHAR Beta
ENCODING 914
SWIDTH 622 0
DWIDTH 22 0
BBX 17 26 3 0
BITMAP
FFF000
FFFC00
FFFE00
E01F00
E00700
E00780
E00780
E00780
E00700
E00F00
E01E00
FFFC00
FFF800
FFFE00
E00F00
E00780
E00380
E00380
E00380
E00380
E00380
E00780
E00F00
FFFF00
FFFE00
FFF000
ENDCHAR
STARTCHAR Gamma
ENCODING 915
SWIDTH 556 0
DWIDTH 20 0
BBX 16 26 3 0
BITMAP
FFFF
FFFF
FFFF
F000
F000
F000
F000
F000
F000
F000
F000
F000
F000
F000
F000
F000
F000
F000
F000
F000
F000
F000
F000
F000
F000
F000
ENDCHAR
STARTCHAR uni0394
ENCODING 916
SWIDTH 705 0
DWIDTH 25 0
BBX 24 26 1 0
BITMAP
003C00
003C00
007C00
007E00
00FE00
00EF00
00E700
01C700
01C780
03C380
038380
0381C0
0701C0
0701E0
0F00E0
0E00E0
1E0070
1C0070
1C0078
3C0038
380038
78003C
70001C
7FFFFE
FFFFFE
FFFFFF
ENDCHAR
STARTCHAR Epsilon
ENCODING 917
SWIDTH 568 0
DWIDTH 20 0
BBX 16 26 3 0
BITMAP
FFFF
FFFF
FFFF
E000
E000
E000
E000
E000
E000
E000
E000
FFFC
FFFC
FFFC
E000
E000
E000
E000
E000
E000
E000
E000
E000
FFFF
FFFF
FFFF
ENDCHAR
STARTCHAR Zeta
ENCODING 918
SWIDTH 598 0
DWIDTH 22 0
BBX 18 26 2 0
BITMAP
FFFFC0
FFFFC0
FFFFC0
000780
000F00
000F00
001E00
003C00
003C00
007800
00F000
00E000
01E000
03C000
038000
078000
0F0000
1E0000
1E0000
3C0000
780000
780000
F00000
FFFFC0
FFFFC0
FFFFC0
ENDCHAR
STARTCHAR Eta
ENCODING 919
SWIDTH 712 0
DWIDTH 26 0
BBX 20 26 3 0
BITMAP
E000F0
E000F0
E000F0
E000F0
E000F0
E000F0
E000F0
E000F0
E000F0
E000F0
E000F0
FFFFF0
FFFFF0
FFFFF0
E000F0
E000F0
E000F0
E000F0
E000F0
E000F0
E000F0
E000F0
E000F0
E000F0
E000F0
E000F0
ENDCHAR
STARTCHAR Theta
ENCODING 920
SWIDTH 680 0
DWIDTH 24 0
BBX 20 26 2 0
BITMAP
01F800
0FFE00
1FFF80
3E0FC0
3C03C0
7801E0
7000E0
F000F0
E000F0
E00070
E00070
E3FE70
E3FE70
E3FE70
E00070
E00070
E00070
E000F0
F000F0
7000E0
7801E0
3C03C0
3E07C0
1FFF80
0FFE00
01F800
ENDCHAR
STARTCHAR Iota
ENCODING 921
SWIDTH 271 0
DWIDTH 10 0
BBX 4 26 3 0
BITMAP
F0
F0
F0
F0
F0
F0
F0
F0
F0
F0
F0
F0
F0
F0
F0
F0
F0
F0
F0
F0
F0
F0
F0
F0
F0
F0
ENDCHAR
STARTCHAR Kappa
ENCODING 922
SWIDTH 626 0
DWIDTH 23 0
BBX 20 26 3 0
BITMAP
E003E0
E00780
E00F80
E00F00
E01E00
E03C00
E07800
E0F000
E1E000
E3C000
E7C000
E78000
EF8000
FFC000
FDE000
F8F000
F0F000
E07800
E03C00
E01E00
E01E00
E00F00
E00780
E003C0
E003C0
E001F0
ENDCHAR
STARTCHAR Lambda
ENCODING 923
SWIDTH 655 0
DWIDTH 24 0
BBX 22 26 1 0
BITMAP
007000
007800
00F800
00F800
00FC00
01FC00
01DE00
03DE00
03CE00
038F00
078700
078700
070780
0F0380
0F0380
0E03C0
1E01C0
1C01E0
1C01E0
3C00E0
3800F0
7800F0
780070
700078
F00078
F0003C
ENDCHAR
STARTCHAR Mu
ENCODING 924
SWIDTH 873 0
DWIDTH 31 0
BBX 25 26 3 0
BITMAP
F8000780
F8000F80
F8000F80
FC000F80
FC001F80
FE001F80
EE003F80
EE003B80
EF003B80
E7007B80
E7007380
E3807380
E380E380
E3C0E380
E1C1E380
E1C1C380
E0E1C380
E0E38380
E0F38380
E0778380
E0770380
E03F0380
E03E0380
E03E0380
E01E0380
E01C0380
ENDCHAR
STARTCHAR Nu
ENCODING 925
SWIDTH 712 0
DWIDTH 26 0
BBX 20 26 3 0
BITMAP
F00070
F80070
F80070
FC0070
FE0070
FE0070
FF0070
F70070
F78070
F3C070
F1C070
F1E070
F0F070
F0F070
F07870
F03C70
F03C70
F01E70
F00E70
F00F70
F007F0
F003F0
F003F0
F001F0
F000F0
F000F0
ENDCHAR
STARTCHAR Xi
ENCODING 926
SWIDTH 570 0
DWIDTH 21 0
BBX 17 26 2 0
BITMAP
FFFF00
FFFF00
FFFF00
000000
000000
000000
000000
000000
000000
000000
000000
3FFE00
3FFE00
3FFE00
000000
000000
000000
000000
000000
000000
000000
000000
000000
FFFF80
FFFF80
FFFF80
ENDCHAR
STARTCHAR Omicron
ENCODING 927
SWIDTH 687 0
DWIDTH 25 0
BBX 21 26 2 0
BITMAP
01FC00
07FF00
0FFF80
1F07C0
3C01E0
7800E0
7800F0
700070
F00070
F00070
F00078
E00078
E00078
E00078
E00078
F00078
F00070
F00070
700070
7800F0
7800E0
3C01E0
1F07C0
0FFF80
07FF00
01FC00
ENDCHAR
STARTCHAR Pi
ENCODING 928
SWIDTH 713 0
DWIDTH 26 0
BBX 20 26 3 0
BITMAP
FFFFF0
FFFFF0
FFFFF0
F000F0
F000F0
F000F0
F000F0
F000F0
F000F0
F000F0
F000F0
F000F0
F000F0
F000F0
F000F0
F000F0
F000F0
F000F0
F000F0
F000F0
F000F0
F000F0
F000F0
F000F0
F000F0
F000F0
ENDCHAR
STARTCHAR Rho
ENCODING 929
SWIDTH 630 0
DWIDTH 23 0
BBX 19 26 3 0
BITMAP
FFF800
FFFE00
FFFF00
F00F80
F003C0
F001C0
F001C0
F001E0
F001E0
F001C0
F001C0
F003C0
F00F80
FFFF80
FFFE00
FFF800
F00000
F00000
F00000
F00000
F00000
F00000
F00000
F00000
F00000
F00000
ENDCHAR
STARTCHAR Sigma
ENCODING 931
SWIDTH 570 0
DWIDTH 21 0
BBX 18 26 1 0
BITMAP
FFFF80
FFFF80
FFFF80
780000
3C0000
3C0000
1E0000
0F0000
078000
03C000
01C000
01E000
00F000
00F000
01E000
01C000
03C000
078000
0F0000
1E0000
3C0000
3C0000
780000
FFFFC0
FFFFC0
FFFFC0
ENDCHAR
STARTCHAR Tau
ENCODING 932
SWIDTH 596 0
DWIDTH 21 0
BBX 20 26 1 0
BITMAP
FFFFF0
FFFFF0
FFFFF0
00E000
00E000
00E000
00E000
00E000
00E000
00E000
00E000
00E000
00E000
00E000
00E000
00E000
00E000
00E000
00E000
00E000
00E000
00E000
00E000
00E000
00E000
00E000
ENDCHAR
STARTCHAR Upsilon
ENCODING 933
SWIDTH 600 0
DWIDTH 22 0
BBX 21 26 0 0
BITMAP
F00078
780070
3800F0
3C00E0
1C01E0
1E01C0
0E03C0
0F0380
070780
078700
038F00
03CE00
01DE00
00FC00
00F800
007800
007000
007000
007000
007000
007000
007000
007000
007000
007000
007000
ENDCHAR
STARTCHAR Phi
ENCODING 934
SWIDTH 716 0
DWIDTH 26 0
BBX 24 26 1 0
BITMAP
003C00
003C00
003C00
01FF80
07FFE0
0FFFF0
1F3CF8
3C3C3C
783C1E
703C0E
703C0E
703C0F
F03C0F
F03C0F
703C0F
703C0E
703C0E
783C1E
3C3C3C
1F3CF8
0FFFF8
07FFE0
01FF80
003C00
003C00
003C00
ENDCHAR
STARTCHAR Chi
ENCODING 935
SWIDTH 626 0
DWIDTH 23 0
BBX 21 26 1 0
BITMAP
F000F0
7800E0
3C01E0
3C03C0
1E03C0
0F0780
0F0F00
078F00
039E00
03DC00
01FC00
01F800
00F800
00F800
01F800
01FC00
03DE00
079E00
078F00
0F0780
1E0780
1E03C0
3C03C0
3C01E0
7800F0
F000F8
ENDCHAR
STARTCHAR Psi
ENCODING 936
SWIDTH 691 0
DWIDTH 25 0
BBX 21 26 2 0
BITMAP
E07038
E07038
E07038
E07038
E07038
E07038
E07038
E07038
E07038
E07038
E07038
E07038
E07078
F07078
7070F0
7871F0
3E73E0
1FFFC0
0FFF80
03FC00
007000
007000
007000
007000
007000
007000
ENDCHAR
STARTCHAR uni03A9
ENCODING 937
SWIDTH 665 0
DWIDTH 24 0
BBX 20 26 2 0
BITMAP
01F800
07FE00
1FFF00
3E0F80
3C03C0
7801C0
7001E0
F000E0
F000E0
F000E0
E000F0
E000F0
E000F0
E000F0
E000F0
F000E0
F000E0
7000E0
7001E0
7801C0
3803C0
1C0380
1E0F00
FF9FE0
FF9FE0
FF9FE0
ENDCHAR
STARTCHAR Iotadieresis
ENCODING 938
SWIDTH 271 0
DWIDTH 10 0
BBX 12 32 -1 0
BITMAP
70E0
F0F0
F0F0
70E0
0000
0000
0F00
0F00
0F00
0F00
0F00
0F00
0F00
0F00
0F00
0F00
0F00
0F00
0F00
0F00
0F00
0F00
0F00
0F00
0F00
0F00
0F00
0F00
0F00
0F00
0F00
0F00
ENDCHAR
STARTCHAR Upsilondieresis
ENCODING 939
SWIDTH 600 0
DWIDTH 22 0
BBX 21 32 0 0
BITMAP
030700
078780
078780
030700
000000
000000
F00078
780070
3800F0
3C00E0
1C01E0
1E01C0
0E03C0
0F0380
070780
078700
038F00
03CE00
01DE00
00FC00
00F800
007800
007000
007000
007000
007000
007000
007000
007000
007000
007000
007000
ENDCHAR
STARTCHAR alphatonos
ENCODING 940
SWIDTH 564 0
DWIDTH 20 0
BBX 18 28 2 0
BITMAP
007000
00E000
00E000
00E000
00C000
00C000
000000
000000
000000
0FC700
1FE700
3FFF00
7C3F00
701F00
F00F00
E00F00
E00F00
E00F00
E00F00
E00F00
E00F00
E00F00
F00F00
F01F00
783F00
7FF7C0
3FE7C0
0FC3C0
ENDCHAR
STARTCHAR epsilontonos
ENCODING 941
SWIDTH 539 0
DWIDTH 19 0
BBX 15 28 2 0
BITMAP
01C0
01C0
01C0
0180
0180
0380
0000
0000
0000
0FE0
3FF8
7FFC
F83E
E00E
E000
E000
7800
3FE0
1FE0
7FE0
F000
E000
E00E
E00E
F83E
7FFC
3FF8
0FE0
ENDCHAR
STARTCHAR etatonos
ENCODING 942
SWIDTH 566 0
DWIDTH 20 0
BBX 16 35 2 -7
BITMAP
00E0
00C0
01C0
01C0
0180
0180
0000
0000
0000
E3F0
E7FC
EFFE
FC1E
F80E
F00E
F00F
F00F
F00F
F00F
F00F
F00F
F00F
F00F
F00F
F00F
F00F
F00F
F00F
000F
000F
000F
000F
000F
000F
000F
ENDCHAR
STARTCHAR iotatonos
ENCODING 943
SWIDTH 323 0
DWIDTH 12 0
BBX 7 28 3 0
BITMAP
38
30
70
70
60
60
00
00
00
F0
F0
F0
F0
F0
F0
F0
F0
F0
F0
F0
F0
F0
F0
F0
70
7E
7E
1E
ENDCHAR
STARTCHAR upsilondieresistonos
ENCODING 944
SWIDTH 545 0
DWIDTH 20 0
BBX 15 30 3 0
BITMAP
0380
0380
0300
0700
E738
E038
E038
E038
0000
0000
0000
E038
E03C
E01C
E01C
E01E
E01E
E00E
E00E
E00E
E00E
E00E
E01E
E01E
E01C
F03C
F878
7FF8
3FE0
0FC0
ENDCHAR
STARTCHAR alpha
ENCODING 945
SWIDTH 564 0
DWIDTH 20 0
BBX 18 19 2 0
BITMAP
0FC700
1FE700
3FFF00
7C3F00
701F00
F00F00
E00F00
E00F00
E00F00
E00F00
E00F00
E00F00
E00F00
F00F00
F01F00
783F00
7FF7C0
3FE7C0
0FC3C0
ENDCHAR
STARTCHAR beta
ENCODING 946
SWIDTH 592 0
DWIDTH 21 0
BBX 16 33 3 -7
BITMAP
07E0
1FF0
3FF8
783C
F01E
E01E
E00E
E00E
E00E
E01C
E03C
E3F8
E3F0
E3FC
E01E
E00F
E00F
E007
E007
E007
E00F
E00F
F83E
FFFC
FFF8
E7E0
E000
E000
E000
E000
E000
E000
E000
ENDCHAR
STARTCHAR gamma
ENCODING 947
SWIDTH 500 0
DWIDTH 18 0
BBX 16 26 1 -7
BITMAP
E007
F007
700E
700E
781E
381C
381C
1C3C
1C38
1E38
0E70
0E70
0770
07E0
07E0
03E0
03C0
03C0
03C0
03C0
03C0
03C0
03C0
03C0
03C0
03C0
ENDCHAR
STARTCHAR delta
ENCODING 948
SWIDTH 566 0
DWIDTH 20 0
BBX 17 27 1 0
BITMAP
03F800
0FFC00
1FFC00
1E0C00
1C0000
1C0000
1C0000
1E0000
0F8000
07F000
07FC00
1FFE00
3E1F00
380F00
780780
700380
700380
F00380
F00380
700380
700380
780780
780780
3E1F00
1FFE00
0FFC00
03F000
ENDCHAR
STARTCHAR epsilon
ENCODING 949
SWIDTH 539 0
DWIDTH 19 0
BBX 15 19 2 0
BITMAP
0FE0
3FF8
7FFC
F83E
E00E
E000
E000
7800
3FE0
1FE0
7FE0
F000
E000
E00E
E00E
F83E
7FFC
3FF8
0FE0
ENDCHAR
STARTCHAR zeta
ENCODING 950
SWIDTH 518 0
DWIDTH 19 0
BBX 15 33 2 -7
BITMAP
FFFE
FFFE
FFFE
001C
0038
0078
00F0
01E0
03C0
0780
0700
0F00
1E00
1C00
1C00
3800
3800
3800
7800
7800
3800
3800
3C00
1F80
0FF0
03FC
007C
001C
001C
001C
0038
0038
0010
ENDCHAR
STARTCHAR eta
ENCODING 951
SWIDTH 566 0
DWIDTH 20 0
BBX 16 26 2 -7
BITMAP
E3F0
E7FC
EFFE
FC1E
F80E
F00E
F00F
F00F
F00F
F00F
F00F
F00F
F00F
F00F
F00F
F00F
F00F
F00F
F00F
000F
000F
000F
000F
000F
000F
000F
ENDCHAR
STARTCHAR theta
ENCODING 952
SWIDTH 569 0
DWIDTH 21 0
BBX 17 26 2 0
BITMAP
03E000
0FF800
1FFC00
3C1E00
380E00
700F00
700700
700700
700700
F00700
F00780
FFFF80
FFFF80
FFFF80
F00780
F00780
F00700
700700
700700
700700
780F00
380E00
3E3E00
1FFC00
0FF800
03E000
ENDCHAR
STARTCHAR iota
ENCODING 953
SWIDTH 323 0
DWIDTH 12 0
BBX 7 19 3 0
BITMAP
F0
F0
F0
F0
F0
F0
F0
F0
F0
F0
F0
F0
F0
F0
F0
70
7E
7E
1E
ENDCHAR
STARTCHAR kappa
ENCODING 954
SWIDTH 556 0
DWIDTH 20 0
BBX 16 19 3 0
BITMAP
E01E
E03C
E078
E0F0
E0F0
E1E0
E3C0
E780
FF00
FF00
FF80
E7C0
E3C0
E1E0
E0F0
E078
E03C
E01E
E00F
ENDCHAR
STARTCHAR lambda
ENCODING 955
SWIDTH 553 0
DWIDTH 20 0
BBX 18 27 1 0
BITMAP
3C0000
3E0000
3F0000
0F0000
078000
078000
038000
03C000
01C000
03E000
03E000
03E000
07F000
077000
0F7000
0E7800
0E3800
1E3C00
1C3C00
3C1C00
3C1E00
380E00
780F00
780F00
7007C0
F007C0
E003C0
ENDCHAR
STARTCHAR uni03BC
ENCODING 956
SWIDTH 566 0
DWIDTH 20 0
BBX 15 26 3 -7
BITMAP
E01E
E01E
E01E
E01E
E01E
E01E
E01E
E01E
E01E
E01E
E01E
E01E
E01E
E01E
F01E
F87E
FFFE
FFFE
EF8E
E000
E000
E000
E000
E000
E000
E000
ENDCHAR
STARTCHAR nu
ENCODING 957
SWIDTH 484 0
DWIDTH 17 0
BBX 17 19 0 0
BITMAP
F00780
700700
780F00
380E00
380E00
3C1E00
1C1C00
1C1C00
1E3C00
0E3800
0E3800
063000
077000
077000
036000
03E000
03E000
01C000
01C000
ENDCHAR
STARTCHAR xi
ENCODING 958
SWIDTH 490 0
DWIDTH 18 0
BBX 15 33 2 -7
BITMAP
03F8
0FFC
3FFC
3E04
7800
7000
7000
7800
3800
3E00
1FF8
07F8
1FF8
3E00
7800
F000
E000
E000
E000
E000
F000
7800
7C00
3F80
1FF0
07FC
007C
001E
001E
001C
001C
0038
0010
ENDCHAR
STARTCHAR omicron
ENCODING 959
SWIDTH 570 0
DWIDTH 21 0
BBX 17 19 2 0
BITMAP
07E000
1FFC00
3FFE00
7C1E00
780F00
F00780
F00780
E00380
E00380
E00380
E00380
E00380
F00780
F00780
780F00
7C1E00
3FFE00
1FFC00
07F000
ENDCHAR
STARTCHAR pi
ENCODING 960
SWIDTH 595 0
DWIDTH 21 0
BBX 21 19 0 0
BITMAP
FFFFF0
FFFFF0
FFFFF0
1E0380
1E0380
1E0380
1E0380
1E0380
1E0380
1E0380
1E0380
1E0380
1E0380
1E0380
1E0380
1E0380
1E03F8
1E01F8
1E00F8
ENDCHAR
STARTCHAR rho
ENCODING 961
SWIDTH 566 0
DWIDTH 20 0
BBX 16 26 2 -7
BITMAP
07E0
0FF8
3FFC
3C3E
780E
700F
7007
F007
F007
F007
F007
F007
F007
F00F
F00F
FC3E
FFFE
FFFC
F3F0
F000
F000
F000
F000
F000
F000
F000
ENDCHAR
STARTCHAR sigma1
ENCODING 962
SWIDTH 537 0
DWIDTH 19 0
BBX 15 26 2 -7
BITMAP
07E0
1FF8
3FFC
7C3C
701E
F00E
E00E
E000
E000
E000
E000
E000
E000
F000
7800
7E00
3FC0
0FF8
03F8
003C
001C
001C
0038
0038
0070
0020
ENDCHAR
STARTCHAR sigma
ENCODING 963
SWIDTH 566 0
DWIDTH 20 0
BBX 19 19 1 0
BITMAP
03FFE0
0FFFE0
1FFFE0
3E1E00
780700
780700
700380
700380
F00380
F00380
700380
700380
700380
780780
380780
3E1F00
1FFE00
0FFC00
03F000
ENDCHAR
STARTCHAR tau
ENCODING 964
SWIDTH 521 0
DWIDTH 19 0
BBX 15 19 2 0
BITMAP
FFFE
FFFE
FFFE
0380
0380
0380
0380
0380
0380
0380
0380
0380
0380
0380
0380
0380
03F8
03F8
00F0
ENDCHAR
STARTCHAR upsilon
ENCODING 965
SWIDTH 545 0
DWIDTH 20 0
BBX 15 19 3 0
BITMAP
E038
E03C
E01C
E01C
E01E
E01E
E00E
E00E
E00E
E00E
E00E
E01E
E01E
E01C
F03C
F878
7FF8
3FE0
0FC0
ENDCHAR
STARTCHAR phi
ENCODING 966
SWIDTH 704 0
DWIDTH 25 0
BBX 23 27 1 -8
BITMAP
080F80
1C3FE0
3E3FF0
3838F8
783838
70383C
70381C
F0381C
F0381E
F0381E
F0381E
70381C
70381C
78383C
3C3878
3F39F8
1FFFF0
07FFC0
01FF00
003800
003800
003800
003800
003800
003800
003800
003800
ENDCHAR
STARTCHAR chi
ENCODING 967
SWIDTH 495 0
DWIDTH 18 0
BBX 18 26 1 -7
BITMAP
F00780
F80F00
FC0E00
3C1E00
1E1C00
0E3C00
0F3800
077800
07F000
03F000
03E000
01E000
01C000
03E000
03E000
07F000
077000
0F7800
0E3800
1E3C00
1C1C00
3C1E00
380E00
780FC0
7007C0
F00380
ENDCHAR
STARTCHAR psi
ENCODING 968
SWIDTH 700 0
DWIDTH 25 0
BBX 22 27 2 -8
BITMAP
E070F0
E07070
E07078
E07078
E07038
E07038
E07038
E07038
E0703C
E0703C
E07038
E07038
F07078
F07078
7870F0
3E73E0
3FFFE0
0FFF80
03FE00
007000
007000
007000
007000
007000
007000
007000
007000
ENDCHAR
STARTCHAR omega
ENCODING 969
SWIDTH 823 0
DWIDTH 30 0
BBX 26 19 2 0
BITMAP
3C000F00
38000700
78000700
78000780
70000380
701E0380
F01E0380
F01E03C0
F01E03C0
F01E03C0
F01E03C0
F01E0380
701E0380
701E0380
783F0780
3C7F8F00
3FF3FF00
1FE1FE00
07C0F800
ENDCHAR
STARTCHAR iotadieresis
ENCODING 970
SWIDTH 323 0
DWIDTH 12 0
BBX 11 26 0 0
BITMAP
E0C0
E1E0
E1E0
E0C0
0000
0000
0000
1E00
1E00
1E00
1E00
1E00
1E00
1E00
1E00
1E00
1E00
1E00
1E00
1E00
1E00
1E00
0E00
0FC0
0FC0
03C0
ENDCHAR
STARTCHAR upsilondieresis
ENCODING 971
SWIDTH 545 0
DWIDTH 20 0
BBX 15 26 3 0
BITMAP
7070
78F0
78F0
7070
0000
0000
0000
E038
E03C
E01C
E01C
E01E
E01E
E00E
E00E
E00E
E00E
E00E
E01E
E01E
E01C
F03C
F878
7FF8
3FE0
0FC0
ENDCHAR
STARTCHAR omicrontonos
ENCODING 972
SWIDTH 570 0
DWIDTH 21 0
BBX 17 28 2 0
BITMAP
00E000
00C000
01C000
01C000
018000
018000
000000
000000
000000
07E000
1FFC00
3FFE00
7C1E00
780F00
F00780
F00780
E00380
E00380
E00380
E00380
E00380
F00780
F00780
780F00
7C1E00
3FFE00
1FFC00
07F000
ENDCHAR
STARTCHAR upsilontonos
ENCODING 973
SWIDTH 545 0
DWIDTH 20 0
BBX 15 28 3 0
BITMAP
0380
0380
0300
0300
0700
0600
0000
0000
0000
E038
E03C
E01C
E01C
E01E
E01E
E00E
E00E
E00E
E00E
E00E
E01E
E01E
E01C
F03C
F878
7FF8
3FE0
0FC0
ENDCHAR
STARTCHAR omegatonos
ENCODING 974
SWIDTH 823 0
DWIDTH 30 0
BBX 26 28 2 0
BITMAP
00070000
000E0000
000E0000
000C0000
000C0000
000C0000
00000000
00000000
00000000
3C000F00
38000700
78000700
78000780
70000380
701E0380
F01E0380
F01E03C0
F01E03C0
F01E03C0
F01E03C0
F01E0380
701E0380
701E0380
783F0780
3C7F8F00
3FF3FF00
1FE1FE00
07C0F800
ENDCHAR
STARTCHAR theta1
ENCODING 977
SWIDTH 578 0
DWIDTH 21 0
BBX 18 26 2 0
BITMAP
01F000
03FC00
07FE00
0F1E00
0E0E00
0E0F00
0E0F00
0E0F00
0E0F00
0F0F00
078F00
07CF00
E3EF00
E1FFC0
E0FFC0
E01FC0
E00F00
E00F00
E00F00
F00F00
F00F00
780E00
7C3E00
3FFC00
1FF800
07E000
ENDCHAR
STARTCHAR Upsilon1
ENCODING 978
SWIDTH 532 0
DWIDTH 19 0
BBX 21 26 -1 0
BITMAP
F00078
FC01F8
7C01F0
1E03C0
0E0380
0F0380
070700
070700
038F00
038E00
03DE00
01DC00
01FC00
00F800
00F800
007000
007000
007000
007000
007000
007000
007000
007000
007000
007000
007000
ENDCHAR
STARTCHAR omega1
ENCODING 982
SWIDTH 785 0
DWIDTH 28 0
BBX 26 19 1 0
BITMAP
FFFFFFC0
FFFFFFC0
FFFFFFC0
3C000700
38000700
78000780
781E0780
701E0380
701E0380
701E0380
701E0380
701E0380
781E0780
381E0780
383F0700
3C7F8F00
1FF3FE00
0FE1FE00
07C0F800
ENDCHAR
STARTCHAR uni0400
ENCODING 1024
SWIDTH 568 0
DWIDTH 20 0
BBX 16 33 3 0
BITMAP
3E00
0E00
0700
0380
03C0
0000
0000
FFFF
FFFF
FFFF
E000
E000
E000
E000
E000
E000
E000
E000
FFFC
FFFC
FFFC
E000
E000
E000
E000
E000
E000
E000
E000
E000
FFFF
FFFF
FFFF
ENDCHAR
STARTCHAR uni0401
ENCODING 1025
SWIDTH 568 0
DWIDTH 20 0
BBX 16 32 3 0
BITMAP
1C38
3C3C
3C3C
1C38
0000
0000
FFFF
FFFF
FFFF
E000
E000
E000
E000
E000
E000
E000
E000
FFFC
FFFC
FFFC
E000
E000
E000
E000
E000
E000
E000
E000
E000
FFFF
FFFF
FFFF
ENDCHAR
STARTCHAR uni0402
ENCODING 1026
SWIDTH 749 0
DWIDTH 27 0
BBX 25 26 1 0
BITMAP
FFFFF000
FFFFF000
FFFFF000
01C00000
01C00000
01C00000
01C00000
01C00000
01C00000
01C00000
01CFE000
01FFF800
01FFFE00
01F03E00
01C00F00
01C00700
01C00700
01C00780
01C00780
01C00780
01C00700
01C00F00
01C01F00
01C0FE00
01C0FC00
01C0F000
ENDCHAR
STARTCHAR uni0403
ENCODING 1027
SWIDTH 556 0
DWIDTH 20 0
BBX 16 33 3 0
BITMAP
007C
00F0
00E0
01C0
0380
0000
0000
FFFF
FFFF
FFFF
F000
F000
F000
F000
F000
F000
F000
F000
F000
F000
F000
F000
F000
F000
F000
F000
F000
F000
F000
F000
F000
F000
F000
ENDCHAR
STARTCHAR uni0404
ENCODING 1028
SWIDTH 673 0
DWIDTH 24 0
BBX 20 26 2 0
BITMAP
01FC00
07FF00
1FFF80
1F07C0
3C01E0
7801E0
7000E0
7000F0
F000F0
F00000
E00000
FFF800
FFF800
FFF800
E00000
E00000
F00000
F00000
7000F0
7800E0
7801E0
3C01E0
1F07C0
1FFF80
07FF00
01FC00
ENDCHAR
STARTCHAR uni0405
ENCODING 1029
SWIDTH 593 0
DWIDTH 21 0
BBX 19 26 1 0
BITMAP
03F800
0FFE00
1FFF80
3E0780
7803C0
7801C0
7001E0
7001E0
780000
3C0000
3E0000
1FC000
07F800
01FE00
003F80
0007C0
0003C0
0001E0
F001E0
F001E0
7001E0
7801C0
3E07C0
1FFF80
0FFF00
03FC00
ENDCHAR
STARTCHAR uni0406
ENCODING 1030
SWIDTH 271 0
DWIDTH 10 0
BBX 4 26 3 0
BITMAP
F0
F0
F0
F0
F0
F0
F0
F0
F0
F0
F0
F0
F0
F0
F0
F0
F0
F0
F0
F0
F0
F0
F0
F0
F0
F0
ENDCHAR
STARTCHAR uni0407
ENCODING 1031
SWIDTH 271 0
DWIDTH 10 0
BBX 12 32 -1 0
BITMAP
70E0
F0F0
F0F0
70E0
0000
0000
0F00
0F00
0F00
0F00
0F00
0F00
0F00
0F00
0F00
0F00
0F00
0F00
0F00
0F00
0F00
0F00
0F00
0F00
0F00
0F00
0F00
0F00
0F00
0F00
0F00
0F00
ENDCHAR
STARTCHAR uni0408
ENCODING 1032
SWIDTH 551 0
DWIDTH 20 0
BBX 16 26 1 0
BITMAP
0007
0007
0007
0007
0007
0007
0007
0007
0007
0007
0007
0007
0007
0007
0007
0007
0007
0007
0007
E007
F00F
F00F
7C3E
3FFC
1FF8
07E0
ENDCHAR
STARTCHAR uni0409
ENCODING 1033
SWIDTH 1070 0
DWIDTH 39 0
BBX 36 26 1 0
BITMAP
03FFF80000
03FFF80000
03FFF80000
0380380000
0380380000
0380380000
0380380000
0780380000
0780380000
0780380000
07803FFE00
07803FFF80
07803FFFC0
07803803E0
07003800F0
07003800F0
0700380070
0700380070
0700380070
0F00380070
0F003800F0
0E003800F0
3E003803E0
FC003FFFC0
FC003FFF80
F0003FFE00
ENDCHAR
STARTCHAR uni040A
ENCODING 1034
SWIDTH 1080 0
DWIDTH 39 0
BBX 34 26 3 0
BITMAP
F000F00000
F000F00000
F000F00000
F000F00000
F000F00000
F000F00000
F000F00000
F000F00000
F000F00000
F000F00000
F000F00000
FFFFFFF800
FFFFFFFE00
FFFFFFFF80
F000F00F80
F000F003C0
F000F001C0
F000F001C0
F000F001C0
F000F001C0
F000F001C0
F000F003C0
F000F00F80
F000FFFF80
F000FFFE00
F000FFF800
ENDCHAR
STARTCHAR uni040B
ENCODING 1035
SWIDTH 813 0
DWIDTH 29 0
BBX 25 26 1 0
BITMAP
FFFFF000
FFFFF000
FFFFF000
01C00000
01C00000
01C00000
01C00000
01C00000
01C00000
01C00000
01DFF000
01FFFC00
01FFFE00
01F01F00
01C00780
01C00780
01C00380
01C00380
01C00380
01C00380
01C00380
01C00380
01C00380
01C00380
01C00380
01C00380
ENDCHAR
STARTCHAR uni040C
ENCODING 1036
SWIDTH 626 0
DWIDTH 23 0
BBX 20 33 3 0
BITMAP
007800
00F000
01E000
01C000
038000
000000
000000
E003E0
E00780
E00F80
E00F00
E01E00
E03C00
E07800
E0F000
E1E000
E3C000
E7C000
E78000
EF8000
FFC000
FDE000
F8F000
F0F000
E07800
E03C00
E01E00
E01E00
E00F00
E00780
E003C0
E003C0
E001F0
ENDCHAR
STARTCHAR uni040D
ENCODING 1037
SWIDTH 712 0
DWIDTH 26 0
BBX 19 33 3 0
BITMAP
0F8000
038000
01C000
00E000
00F000
000000
000000
F000E0
F001E0
F001E0
F003E0
F007E0
F007E0
F00FE0
F01EE0
F01EE0
F03CE0
F078E0
F078E0
F0F0E0
F0E0E0
F1E0E0
F3C0E0
F3C0E0
F780E0
FF00E0
FF00E0
FE00E0
FC00E0
FC00E0
F800E0
F000E0
F000E0
ENDCHAR
STARTCHAR uni040E
ENCODING 1038
SWIDTH 628 0
DWIDTH 23 0
BBX 20 33 2 0
BITMAP
0E0C00
0E0C00
0F1C00
07F800
01F000
000000
000000
F000F0
F001E0
7001E0
7803C0
3803C0
3C0380
1C0780
1E0780
1E0F00
0F0F00
0F0E00
071E00
079C00
03BC00
03FC00
01F800
01F800
00F000
00F000
00E000
00E000
01E000
03C000
1FC000
1F8000
1E0000
ENDCHAR
STARTCHAR uni040F
ENCODING 1039
SWIDTH 712 0
DWIDTH 26 0
BBX 19 32 3 -6
BITMAP
E000E0
E000E0
E000E0
E000E0
E000E0
E000E0
E000E0
E000E0
E000E0
E000E0
E000E0
E000E0
E000E0
E000E0
E000E0
E000E0
E000E0
E000E0
E000E0
E000E0
E000E0
E000E0
E000E0
FFFFE0
FFFFE0
FFFFE0
00F000
00F000
00F000
00F000
00F000
00F000
ENDCHAR
STARTCHAR uni0410
ENCODING 1040
SWIDTH 652 0
DWIDTH 23 0
BBX 23 26 0 0
BITMAP
003800
007C00
007C00
007C00
00EE00
00EE00
00EE00
01C700
01C700
03C780
038380
038380
0701C0
0701C0
0701C0
0E00E0
0FFFE0
1FFFF0
1FFFF0
1C0070
3C0078
380038
380038
78003C
70001C
F0001E
ENDCHAR
STARTCHAR uni0411
ENCODING 1041
SWIDTH 630 0
DWIDTH 23 0
BBX 18 26 3 0
BITMAP
FFFF00
FFFF00
FFFF00
E00000
E00000
E00000
E00000
E00000
E00000
E00000
E00000
FFF800
FFFE00
FFFF80
E00F80
E003C0
E003C0
E001C0
E001C0
E001C0
E003C0
E003C0
E00F80
FFFF00
FFFE00
FFF800
ENDCHAR
STARTCHAR uni0412
ENCODING 1042
SWIDTH 622 0
DWIDTH 22 0
BBX 17 26 3 0
BITMAP
FFF000
FFFC00
FFFE00
E01F00
E00700
E00780
E00780
E00780
E00700
E00F00
E01E00
FFFC00
FFF800
FFFE00
E00F00
E00780
E00380
E00380
E00380
E00380
E00380
E00780
E00F00
FFFF00
FFFE00
FFF000
ENDCHAR
STARTCHAR uni0413
ENCODING 1043
SWIDTH 556 0
DWIDTH 20 0
BBX 16 26 3 0
BITMAP
FFFF
FFFF
FFFF
F000
F000
F000
F000
F000
F000
F000
F000
F000
F000
F000
F000
F000
F000
F000
F000
F000
F000
F000
F000
F000
F000
F000
ENDCHAR
STARTCHAR uni0414
ENCODING 1044
SWIDTH 751 0
DWIDTH 27 0
BBX 25 32 1 -6
BITMAP
03FFFC00
03FFFC00
03FFFC00
03C03C00
03C03C00
03803C00
03803C00
03803C00
03803C00
03803C00
03803C00
03803C00
03803C00
07803C00
07803C00
07803C00
07003C00
07003C00
0F003C00
0F003C00
0E003C00
1E003C00
3C003C00
FFFFFF80
FFFFFF80
FFFFFF80
E0000380
E0000380
E0000380
E0000380
E0000380
E0000380
ENDCHAR
STARTCHAR uni0415
ENCODING 1045
SWIDTH 568 0
DWIDTH 20 0
BBX 16 26 3 0
BITMAP
FFFF
FFFF
FFFF
E000
E000
E000
E000
E000
E000
E000
E000
FFFC
FFFC
FFFC
E000
E000
E000
E000
E000
E000
E000
E000
E000
FFFF
FFFF
FFFF
ENDCHAR
STARTCHAR uni0416
ENCODING 1046
SWIDTH 907 0
DWIDTH 33 0
BBX 32 26 0 0
BITMAP
7801C01F
3C01C01E
1E01C03C
1E01C03C
0F01C078
0F01C070
0781C0F0
0381C0E0
03C1C1E0
01E1C3C0
00E1C380
00F1C780
007FFF00
007FFF00
00FFFF80
01F1C780
01E1C3C0
03C1C1E0
07C1C1E0
0781C0F0
0F01C078
1F01C078
1E01C03C
3C01C01E
7C01C01E
F801C00F
ENDCHAR
STARTCHAR uni0417
ENCODING 1047
SWIDTH 593 0
DWIDTH 21 0
BBX 19 26 1 0
BITMAP
03F800
0FFE00
3FFF80
3E0F80
7803C0
7001C0
7001C0
0001C0
0001C0
0003C0
000780
01FF00
01FC00
01FF00
000780
0003C0
0001C0
0001E0
0001E0
F001E0
F001C0
7803C0
7E0F80
3FFF80
1FFE00
03F800
ENDCHAR
STARTCHAR uni0418
ENCODING 1048
SWIDTH 712 0
DWIDTH 26 0
BBX 19 26 3 0
BITMAP
F000E0
F001E0
F001E0
F003E0
F007E0
F007E0
F00FE0
F01EE0
F01EE0
F03CE0
F078E0
F078E0
F0F0E0
F0E0E0
F1E0E0
F3C0E0
F3C0E0
F780E0
FF00E0
FF00E0
FE00E0
FC00E0
FC00E0
F800E0
F000E0
F000E0
ENDCHAR
STARTCHAR uni0419
ENCODING 1049
SWIDTH 712 0
DWIDTH 26 0
BBX 19 33 3 0
BITMAP
0E0E00
060E00
071C00
03FC00
01F000
000000
000000
F000E0
F001E0
F001E0
F003E0
F007E0
F007E0
F00FE0
F01EE0
F01EE0
F03CE0
F078E0
F078E0
F0F0E0
F0E0E0
F1E0E0
F3C0E0
F3C0E0
F780E0
FF00E0
FF00E0
FE00E0
FC00E0
FC00E0
F800E0
F000E0
F000E0
ENDCHAR
STARTCHAR uni041A
ENCODING 1050
SWIDTH 642 0
DWIDTH 23 0
BBX 20 26 3 0
BITMAP
F001E0
F003C0
F00780
F00F80
F01F00
F01E00
F03C00
F07800
F0F000
F1F000
F1E000
FFC000
FFC000
FFE000
F1E000
F0F000
F07800
F07C00
F03C00
F01E00
F00F00
F00F80
F00780
F003C0
F001E0
F001F0
ENDCHAR
STARTCHAR uni041B
ENCODING 1051
SWIDTH 707 0
DWIDTH 25 0
BBX 21 26 1 0
BITMAP
07FFF8
07FFF8
07FFF8
078038
078038
078038
070038
070038
070038
070038
070038
070038
070038
070038
070038
070038
070038
0F0038
0F0038
0E0038
0E0038
1E0038
3E0038
FC0038
F80038
F00038
ENDCHAR
STARTCHAR uni041C
ENCODING 1052
SWIDTH 873 0
DWIDTH 31 0
BBX 25 26 3 0
BITMAP
F8000780
F8000F80
F8000F80
FC000F80
FC001F80
FE001F80
EE003F80
EE003B80
EF003B80
E7007B80
E7007380
E3807380
E380E380
E3C0E380
E1C1E380
E1C1C380
E0E1C380
E0E38380
E0F38380
E0778380
E0770380
E03F0380
E03E0380
E03E0380
E01E0380
E01C0380
ENDCHAR
STARTCHAR uni041D
ENCODING 1053
SWIDTH 712 0
DWIDTH 26 0
BBX 20 26 3 0
BITMAP
E000F0
E000F0
E000F0
E000F0
E000F0
E000F0
E000F0
E000F0
E000F0
E000F0
E000F0
FFFFF0
FFFFF0
FFFFF0
E000F0
E000F0
E000F0
E000F0
E000F0
E000F0
E000F0
E000F0
E000F0
E000F0
E000F0
E000F0
ENDCHAR
STARTCHAR uni041E
ENCODING 1054
SWIDTH 687 0
DWIDTH 25 0
BBX 21 26 2 0
BITMAP
01FC00
07FF00
0FFF80
1F07C0
3C01E0
7800E0
7800F0
700070
F00070
F00070
F00078
E00078
E00078
E00078
E00078
F00078
F00070
F00070
700070
7800F0
7800E0
3C01E0
1F07C0
0FFF80
07FF00
01FC00
ENDCHAR
STARTCHAR uni041F
ENCODING 1055
SWIDTH 713 0
DWIDTH 26 0
BBX 20 26 3 0
BITMAP
FFFFF0
FFFFF0
FFFFF0
F000F0
F000F0
F000F0
F000F0
F000F0
F000F0
F000F0
F000F0
F000F0
F000F0
F000F0
F000F0
F000F0
F000F0
F000F0
F000F0
F000F0
F000F0
F000F0
F000F0
F000F0
F000F0
F000F0
ENDCHAR
STARTCHAR uni0420
ENCODING 1056
SWIDTH 630 0
DWIDTH 23 0
BBX 19 26 3 0
BITMAP
FFF800
FFFE00
FFFF00
F00F80
F003C0
F001C0
F001C0
F001E0
F001E0
F001C0
F001C0
F003C0
F00F80
FFFF80
FFFE00
FFF800
F00000
F00000
F00000
F00000
F00000
F00000
F00000
F00000
F00000
F00000
ENDCHAR
STARTCHAR uni0421
ENCODING 1057
SWIDTH 650 0
DWIDTH 23 0
BBX 20 26 2 0
BITMAP
01FC00
07FF00
0FFF80
1F07C0
3C01E0
7801E0
7800E0
7000F0
F000F0
F00000
F00000
E00000
E00000
E00000
E00000
F00000
F00000
F00000
7000F0
7800E0
7801E0
3C01E0
1F07C0
1FFF80
07FF00
01FC00
ENDCHAR
STARTCHAR uni0422
ENCODING 1058
SWIDTH 596 0
DWIDTH 21 0
BBX 20 26 1 0
BITMAP
FFFFF0
FFFFF0
FFFFF0
00E000
00E000
00E000
00E000
00E000
00E000
00E000
00E000
00E000
00E000
00E000
00E000
00E000
00E000
00E000
00E000
00E000
00E000
00E000
00E000
00E000
00E000
00E000
ENDCHAR
STARTCHAR uni0423
ENCODING 1059
SWIDTH 628 0
DWIDTH 23 0
BBX 20 26 2 0
BITMAP
F000F0
F001E0
7001E0
7803C0
3803C0
3C0380
1C0780
1E0780
1E0F00
0F0F00
0F0E00
071E00
079C00
03BC00
03FC00
01F800
01F800
00F000
00F000
00E000
00E000
01E000
03C000
1FC000
1F8000
1E0000
ENDCHAR
STARTCHAR uni0424
ENCODING 1060
SWIDTH 771 0
DWIDTH 28 0
BBX 25 28 2 -1
BITMAP
003C0000
003C0000
003C0000
003C0000
01FF8000
0FFFF000
1FFFF800
3E3C7C00
783C1E00
703C0E00
F03C0F00
E03C0700
E03C0700
E03C0780
E03C0780
E03C0780
E03C0700
E03C0700
F03C0F00
703C0E00
783C1E00
3E3C7C00
1FFFF800
0FFFF000
03FF8000
003C0000
003C0000
003C0000
ENDCHAR
STARTCHAR uni0425
ENCODING 1061
SWIDTH 626 0
DWIDTH 23 0
BBX 21 26 1 0
BITMAP
F000F0
7800E0
3C01E0
3C03C0
1E03C0
0F0780
0F0F00
078F00
039E00
03DC00
01FC00
01F800
00F800
00F800
01F800
01FC00
03DE00
079E00
078F00
0F0780
1E0780
1E03C0
3C03C0
3C01E0
7800F0
F000F8
ENDCHAR
STARTCHAR uni0426
ENCODING 1062
SWIDTH 730 0
DWIDTH 26 0
BBX 22 32 3 -6
BITMAP
E000E0
E000E0
E000E0
E000E0
E000E0
E000E0
E000E0
E000E0
E000E0
E000E0
E000E0
E000E0
E000E0
E000E0
E000E0
E000E0
E000E0
E000E0
E000E0
E000E0
E000E0
E000E0
E000E0
FFFFFC
FFFFFC
FFFFFC
00001C
00001C
00001C
00001C
00001C
00001C
ENDCHAR
STARTCHAR uni0427
ENCODING 1063
SWIDTH 684 0
DWIDTH 25 0
BBX 19 26 3 0
BITMAP
E001E0
E001E0
E001E0
E001E0
E001E0
E001E0
E001E0
E001E0
E001E0
E001E0
F001E0
F001E0
7C07E0
7FFFE0
3FFFE0
07FDE0
0001E0
0001E0
0001E0
0001E0
0001E0
0001E0
0001E0
0001E0
0001E0
0001E0
ENDCHAR
STARTCHAR uni0428
ENCODING 1064
SWIDTH 940 0
DWIDTH 34 0
BBX 28 26 3 0
BITMAP
E00F00F0
E00F00F0
E00F00F0
E00F00F0
E00F00F0
E00F00F0
E00F00F0
E00F00F0
E00F00F0
E00F00F0
E00F00F0
E00F00F0
E00F00F0
E00F00F0
E00F00F0
E00F00F0
E00F00F0
E00F00F0
E00F00F0
E00F00F0
E00F00F0
E00F00F0
E00F00F0
FFFFFFF0
FFFFFFF0
FFFFFFF0
ENDCHAR
STARTCHAR uni0429
ENCODING 1065
SWIDTH 968 0
DWIDTH 35 0
BBX 30 32 3 -6
BITMAP
E00F00F0
E00F00F0
E00F00F0
E00F00F0
E00F00F0
E00F00F0
E00F00F0
E00F00F0
E00F00F0
E00F00F0
E00F00F0
E00F00F0
E00F00F0
E00F00F0
E00F00F0
E00F00F0
E00F00F0
E00F00F0
E00F00F0
E00F00F0
E00F00F0
E00F00F0
E00F00F0
FFFFFFFC
FFFFFFFC
FFFFFFFC
0000001C
0000001C
0000001C
0000001C
0000001C
0000001C
ENDCHAR
STARTCHAR uni042A
ENCODING 1066
SWIDTH 758 0
DWIDTH 27 0
BBX 26 26 0 0
BITMAP
FFE00000
FFE00000
FFE00000
01E00000
01E00000
01E00000
01E00000
01E00000
01E00000
01E00000
01E00000
01FFF800
01FFFE00
01FFFF00
01E00F80
01E00780
01E00380
01E003C0
01E003C0
01E003C0
01E00380
01E00780
01E00F80
01FFFF00
01FFFE00
01FFF800
ENDCHAR
STARTCHAR uni042B
ENCODING 1067
SWIDTH 864 0
DWIDTH 31 0
BBX 25 26 3 0
BITMAP
E0000780
E0000780
E0000780
E0000780
E0000780
E0000780
E0000780
E0000780
E0000780
E0000780
E0000780
FFF80780
FFFE0780
FFFF8780
E00F8780
E003C780
E001C780
E001C780
E001C780
E001C780
E003C780
E003C780
E00F8780
FFFF0780
FFFE0780
FFF80780
ENDCHAR
STARTCHAR uni042C
ENCODING 1068
SWIDTH 627 0
DWIDTH 23 0
BBX 18 26 3 0
BITMAP
E00000
E00000
E00000
E00000
E00000
E00000
E00000
E00000
E00000
E00000
E00000
FFF800
FFFE00
FFFF80
E00F80
E003C0
E001C0
E001C0
E001C0
E001C0
E003C0
E003C0
E00F80
FFFF80
FFFE00
FFF800
ENDCHAR
STARTCHAR uni042D
ENCODING 1069
SWIDTH 673 0
DWIDTH 24 0
BBX 20 26 2 0
BITMAP
03F800
0FFE00
1FFF80
3E07C0
3C03C0
7801E0
7000E0
7000F0
F00070
000070
000070
01FFF0
01FFF0
01FFF0
000070
000070
000070
0000F0
F000F0
7000E0
7801E0
3C03C0
3E07C0
1FFF80
0FFE00
01F800
ENDCHAR
STARTCHAR uni042E
ENCODING 1070
SWIDTH 894 0
DWIDTH 32 0
BBX 28 26 3 0
BITMAP
E003F800
E00FFE00
E01FFF00
E03E0F80
E07803C0
E07001C0
E0F001E0
E0E000E0
E1E000E0
E1E000F0
E1E000F0
E1E000F0
FFE000F0
FFE000F0
FFE000F0
E1E000F0
E1E000F0
E1E000E0
E0E000E0
E0F001E0
E0F001C0
E07803C0
E03E0F80
E01FFF00
E00FFE00
E003F800
ENDCHAR
STARTCHAR uni042F
ENCODING 1071
SWIDTH 636 0
DWIDTH 23 0
BBX 18 26 2 0
BITMAP
03FFC0
0FFFC0
1FFFC0
3E03C0
7803C0
7003C0
7003C0
7003C0
7003C0
7003C0
7803C0
7803C0
3E03C0
1FFFC0
0FFFC0
07FFC0
0703C0
0F03C0
0E03C0
1E03C0
1C03C0
3C03C0
7803C0
7803C0
F003C0
E003C0
ENDCHAR
STARTCHAR uni0430
ENCODING 1072
SWIDTH 543 0
DWIDTH 20 0
BBX 16 19 2 0
BITMAP
07E0
1FF8
3FFC
7C3E
701E
700E
000E
000E
07FE
3FFE
7FFE
780E
F00E
E00E
F01E
F83E
7FFE
3FEE
0F8F
ENDCHAR
STARTCHAR uni0431
ENCODING 1073
SWIDTH 552 0
DWIDTH 20 0
BBX 17 27 2 0
BITMAP
000600
000E00
007E00
03FC00
0FF800
1F8000
3C0000
380000
700000
63F000
EFFC00
FFFE00
FC1E00
F00F00
F00700
E00780
E00780
E00380
E00780
E00780
E00700
F00700
780F00
7C1E00
3FFC00
1FF800
07E000
ENDCHAR
STARTCHAR uni0432
ENCODING 1074
SWIDTH 571 0
DWIDTH 21 0
BBX 16 19 3 0
BITMAP
FFE0
FFF8
FFFC
E03E
E00E
E00E
E00E
E03E
FFFC
FFF8
FFFC
E01E
E00F
E007
E00F
E01F
FFFE
FFFC
FFF0
ENDCHAR
STARTCHAR uni0433
ENCODING 1075
SWIDTH 419 0
DWIDTH 15 0
BBX 12 19 3 0
BITMAP
FFF0
FFF0
FFF0
E000
E000
E000
E000
E000
E000
E000
E000
E000
E000
E000
E000
E000
E000
E000
E000
ENDCHAR
STARTCHAR uni0434
ENCODING 1076
SWIDTH 603 0
DWIDTH 22 0
BBX 20 25 1 -6
BITMAP
07FF80
07FF80
07FF80
070380
070380
070380
070380
070380
070380
0F0380
0F0380
0E0380
0E0380
1E0380
1C0380
3C0380
FFFFF0
FFFFF0
FFFFF0
E000F0
E000F0
E000F0
E000F0
E000F0
E000F0
ENDCHAR
STARTCHAR uni0435
ENCODING 1077
SWIDTH 529 0
DWIDTH 19 0
BBX 16 19 2 0
BITMAP
07E0
1FF8
3FFC
7C3C
701E
F00E
E00E
E00F
FFFF
FFFF
FFFF
E000
E000
F000
7004
7C1E
3FFE
1FF8
07F0
ENDCHAR
STARTCHAR uni0436
ENCODING 1078
SWIDTH 765 0
DWIDTH 28 0
BBX 27 19 0 0
BITMAP
780E03C0
3C0E0380
1C0E0780
1E0E0F00
0F0E0E00
070E1E00
078E3C00
03CE3C00
01FFF800
01FFF000
03FFF800
038E3C00
078E1C00
0F0E1E00
0F0E0F00
1E0E0780
3C0E0780
7C0E03C0
F80E01E0
ENDCHAR
STARTCHAR uni0437
ENCODING 1079
SWIDTH 507 0
DWIDTH 18 0
BBX 15 19 1 0
BITMAP
07E0
1FF8
3FFC
7C3E
700E
000E
000E
001C
07FC
07F0
07FC
001E
000E
F00E
700E
781E
3FFC
1FF8
07F0
ENDCHAR
STARTCHAR uni0438
ENCODING 1080
SWIDTH 577 0
DWIDTH 21 0
BBX 15 19 3 0
BITMAP
E01E
E01E
E03E
E03E
E07E
E0FE
E0EE
E1CE
E3CE
E38E
E70E
EF0E
EE0E
FC0E
FC0E
F80E
F80E
F00E
E00E
ENDCHAR
STARTCHAR uni0439
ENCODING 1081
SWIDTH 577 0
DWIDTH 21 0
BBX 15 27 3 0
BITMAP
3830
3830
3C70
1FE0
07C0
0000
0000
0000
E01E
E01E
E03E
E03E
E07E
E0FE
E0EE
E1CE
E3CE
E38E
E70E
EF0E
EE0E
FC0E
FC0E
F80E
F80E
F00E
E00E
ENDCHAR
STARTCHAR uni043A
ENCODING 1082
SWIDTH 540 0
DWIDTH 19 0
BBX 16 19 3 0
BITMAP
E01E
E03C
E038
E078
E0F0
E1E0
E3C0
E380
FF80
FF00
FF80
E3C0
E1E0
E1F0
E0F0
E078
E03C
E01E
E00F
ENDCHAR
STARTCHAR uni043B
ENCODING 1083
SWIDTH 578 0
DWIDTH 21 0
BBX 17 19 1 0
BITMAP
0FFF80
0FFF80
0FFF80
0E0380
0E0380
0E0380
0E0380
0E0380
0E0380
0E0380
0E0380
0E0380
1E0380
1E0380
1C0380
3C0380
FC0380
F80380
F00380
ENDCHAR
STARTCHAR uni043C
ENCODING 1084
SWIDTH 741 0
DWIDTH 27 0
BBX 21 19 3 0
BITMAP
F00078
F800F8
F800F8
FC01F8
FC01F8
FC03F8
EE03B8
EE03B8
E70738
E70738
E38E38
E38E38
E39C38
E1DC38
E1FC38
E0F838
E0F838
E07038
E07038
ENDCHAR
STARTCHAR uni043D
ENCODING 1085
SWIDTH 576 0
DWIDTH 21 0
BBX 15 19 3 0
BITMAP
E00E
E00E
E00E
E00E
E00E
E00E
E00E
E00E
FFFE
FFFE
FFFE
E00E
E00E
E00E
E00E
E00E
E00E
E00E
E00E
ENDCHAR
STARTCHAR uni043E
ENCODING 1086
SWIDTH 570 0
DWIDTH 21 0
BBX 17 19 2 0
BITMAP
07E000
1FFC00
3FFE00
7C1E00
780F00
F00780
F00780
E00380
E00380
E00380
E00380
E00380
F00780
F00780
780F00
7C1E00
3FFE00
1FFC00
07F000
ENDCHAR
STARTCHAR uni043F
ENCODING 1087
SWIDTH 577 0
DWIDTH 21 0
BBX 15 19 3 0
BITMAP
FFFE
FFFE
FFFE
E00E
E00E
E00E
E00E
E00E
E00E
E00E
E00E
E00E
E00E
E00E
E00E
E00E
E00E
E00E
E00E
ENDCHAR
STARTCHAR uni0440
ENCODING 1088
SWIDTH 561 0
DWIDTH 20 0
BBX 16 26 2 -7
BITMAP
E3F0
EFF8
FFFC
FC3E
F00F
F00F
F007
F007
F007
F007
F007
F007
F007
F00F
F00F
FC3E
FFFC
FFF8
F3F0
F000
F000
F000
F000
F000
F000
F000
ENDCHAR
STARTCHAR uni0441
ENCODING 1089
SWIDTH 523 0
DWIDTH 19 0
BBX 16 19 2 0
BITMAP
07E0
1FF8
3FFC
7C3E
700E
F00F
E007
E000
E000
E000
E000
E000
E000
F00F
700E
7C3E
3FFC
1FF8
07E0
ENDCHAR
STARTCHAR uni0442
ENCODING 1090
SWIDTH 480 0
DWIDTH 17 0
BBX 16 19 1 0
BITMAP
FFFF
FFFF
FFFF
0380
0380
0380
0380
0380
0380
0380
0380
0380
0380
0380
0380
0380
0380
0380
0380
ENDCHAR
STARTCHAR uni0443
ENCODING 1091
SWIDTH 473 0
DWIDTH 17 0
BBX 17 26 0 -7
BITMAP
F00780
700700
780F00
380E00
380E00
3C1E00
1C1C00
1C1C00
1E3C00
0E3800
0F3800
077000
077000
07F000
03E000
03E000
03E000
01C000
01C000
01C000
038000
038000
070000
7F0000
7E0000
7C0000
ENDCHAR
STARTCHAR uni0444
ENCODING 1092
SWIDTH 725 0
DWIDTH 26 0
BBX 22 34 2 -7
BITMAP
007000
007000
007000
007000
007000
007000
007000
007000
0FF7C0
1FFFE0
3FFFF0
7870F8
707038
F0703C
E0701C
E0701C
E0701C
E0701C
E0701C
E0701C
E0701C
F0703C
F0703C
787078
7FFFF8
3FFFF0
0FF7C0
007000
007000
007000
007000
007000
007000
007000
ENDCHAR
STARTCHAR uni0445
ENCODING 1093
SWIDTH 495 0
DWIDTH 18 0
BBX 16 19 1 0
BITMAP
F00F
781E
381C
3C3C
1C78
0E70
0FF0
07E0
03C0
03C0
07C0
07E0
0FF0
1E70
1C78
3C3C
781C
701E
F00F
ENDCHAR
STARTCHAR uni0446
ENCODING 1094
SWIDTH 592 0
DWIDTH 21 0
BBX 17 25 3 -6
BITMAP
E00E00
E00E00
E00E00
E00E00
E00E00
E00E00
E00E00
E00E00
E00E00
E00E00
E00E00
E00E00
E00E00
E00E00
E00E00
E00E00
FFFF80
FFFF80
FFFF80
000380
000380
000380
000380
000380
000380
ENDCHAR
STARTCHAR uni0447
ENCODING 1095
SWIDTH 543 0
DWIDTH 20 0
BBX 15 19 2 0
BITMAP
E00E
E00E
E00E
E00E
E00E
E00E
E00E
F00E
F00E
781E
7FFE
3FFE
0FFE
000E
000E
000E
000E
000E
000E
ENDCHAR
STARTCHAR uni0448
ENCODING 1096
SWIDTH 808 0
DWIDTH 29 0
BBX 23 19 3 0
BITMAP
E0380E
E0380E
E0380E
E0380E
E0380E
E0380E
E0380E
E0380E
E0380E
E0380E
E0380E
E0380E
E0380E
E0380E
E0380E
E0380E
FFFFFE
FFFFFE
FFFFFE
ENDCHAR
STARTCHAR uni0449
ENCODING 1097
SWIDTH 827 0
DWIDTH 30 0
BBX 26 25 3 -6
BITMAP
E0380E00
E0380E00
E0380E00
E0380E00
E0380E00
E0380E00
E0380E00
E0380E00
E0380E00
E0380E00
E0380E00
E0380E00
E0380E00
E0380E00
E0380E00
E0380E00
FFFFFFC0
FFFFFFC0
FFFFFFC0
000001C0
000001C0
000001C0
000001C0
000001C0
000001C0
ENDCHAR
STARTCHAR uni044A
ENCODING 1098
SWIDTH 620 0
DWIDTH 22 0
BBX 21 19 0 0
BITMAP
FF8000
FF8000
FF8000
038000
038000
038000
038000
03FF80
03FFE0
03FFF0
0380F8
038038
038038
038038
038038
0380F8
03FFF0
03FFE0
03FF80
ENDCHAR
STARTCHAR uni044B
ENCODING 1099
SWIDTH 776 0
DWIDTH 28 0
BBX 22 19 3 0
BITMAP
E0003C
E0003C
E0003C
E0003C
E0003C
E0003C
E0003C
FFE03C
FFF83C
FFFC3C
E03E3C
E01E3C
E00E3C
E00E3C
E01E3C
E03C3C
FFFC3C
FFF83C
FFE03C
ENDCHAR
STARTCHAR uni044C
ENCODING 1100
SWIDTH 542 0
DWIDTH 20 0
BBX 15 19 3 0
BITMAP
E000
E000
E000
E000
E000
E000
E000
FFE0
FFF8
FFFC
E03E
E01E
E00E
E00E
E00E
E03E
FFFC
FFF8
FFE0
ENDCHAR
STARTCHAR uni044D
ENCODING 1101
SWIDTH 537 0
DWIDTH 19 0
BBX 15 19 2 0
BITMAP
0FC0
3FF0
7FF8
F87C
E03C
E01E
000E
000E
07FE
07FE
07FE
000E
E00E
E01E
E01C
F87C
7FF8
3FF0
0FC0
ENDCHAR
STARTCHAR uni044E
ENCODING 1102
SWIDTH 815 0
DWIDTH 29 0
BBX 25 19 3 0
BITMAP
E007E000
E01FF800
E03FFC00
E07C3E00
E0F00F00
E0F00F00
E0E00700
E1E00780
FFE00780
FFE00780
FFE00780
E1E00780
E0E00700
E0F00F00
E0F00F00
E07C3E00
E03FFC00
E01FF800
E007E000
ENDCHAR
STARTCHAR uni044F
ENCODING 1103
SWIDTH 548 0
DWIDTH 20 0
BBX 16 19 1 0
BITMAP
07FF
1FFF
3FFF
7C07
7807
7007
7007
7807
7C07
3FFF
1FFF
07FF
0F07
1E07
1C07
3C07
3807
7007
F007
ENDCHAR
STARTCHAR uni0450
ENCODING 1104
SWIDTH 529 0
DWIDTH 19 0
BBX 16 26 2 0
BITMAP
3E00
0F00
0700
0380
01C0
0000
0000
07E0
1FF8
3FFC
7C3C
701E
F00E
E00E
E00F
FFFF
FFFF
FFFF
E000
E000
F000
7004
7C1E
3FFE
1FF8
07F0
ENDCHAR
STARTCHAR uni0451
ENCODING 1105
SWIDTH 529 0
DWIDTH 19 0
BBX 16 26 2 0
BITMAP
1C38
3C3C
3C3C
1C38
0000
0000
0000
07E0
1FF8
3FFC
7C3C
701E
F00E
E00E
E00F
FFFF
FFFF
FFFF
E000
E000
F000
7004
7C1E
3FFE
1FF8
07F0
ENDCHAR
STARTCHAR uni0452
ENCODING 1106
SWIDTH 550 0
DWIDTH 20 0
BBX 18 34 0 -7
BITMAP
1C0000
1C0000
1C0000
FFE000
FFE000
FFE000
1C0000
1C0000
1C7C00
1DFF00
1FFF80
1F0780
1E0380
1C0380
1C03C0
1C03C0
1C03C0
1C03C0
1C03C0
1C03C0
1C03C0
1C03C0
1C03C0
1C03C0
1C03C0
1C03C0
1C03C0
0003C0
0003C0
000380
000780
003F80
003F00
003E00
ENDCHAR
STARTCHAR uni0453
ENCODING 1107
SWIDTH 419 0
DWIDTH 15 0
BBX 12 26 3 0
BITMAP
03C0
0780
0F00
0E00
1C00
0000
0000
FFF0
FFF0
FFF0
E000
E000
E000
E000
E000
E000
E000
E000
E000
E000
E000
E000
E000
E000
E000
E000
ENDCHAR
STARTCHAR uni0454
ENCODING 1108
SWIDTH 537 0
DWIDTH 19 0
BBX 16 19 2 0
BITMAP
07E0
1FF8
3FFC
7C3E
700E
F00F
E000
E000
FFC0
FFC0
FFC0
E000
E000
F00F
700E
7C3E
3FFC
1FF8
07E0
ENDCHAR
STARTCHAR uni0455
ENCODING 1109
SWIDTH 515 0
DWIDTH 19 0
BBX 15 19 2 0
BITMAP
0FE0
1FF8
3FFC
783C
701E
700E
7800
7E00
3FE0
0FF8
01FC
003E
001E
E00E
F01E
783E
7FFC
3FF8
0FE0
ENDCHAR
STARTCHAR uni0456
ENCODING 1110
SWIDTH 242 0
DWIDTH 9 0
BBX 3 26 3 0
BITMAP
E0
E0
E0
E0
00
00
00
E0
E0
E0
E0
E0
E0
E0
E0
E0
E0
E0
E0
E0
E0
E0
E0
E0
E0
E0
ENDCHAR
STARTCHAR uni0457
ENCODING 1111
SWIDTH 247 0
DWIDTH 9 0
BBX 11 26 -1 0
BITMAP
E0E0
F1E0
F1E0
E0E0
0000
0000
0000
0E00
0E00
0E00
0E00
0E00
0E00
0E00
0E00
0E00
0E00
0E00
0E00
0E00
0E00
0E00
0E00
0E00
0E00
0E00
ENDCHAR
STARTCHAR uni0458
ENCODING 1112
SWIDTH 238 0
DWIDTH 9 0
BBX 7 33 -1 -7
BITMAP
0E
1E
1E
0E
00
00
00
0E
0E
0E
0E
0E
0E
0E
0E
0E
0E
0E
0E
0E
0E
0E
0E
0E
0E
0E
0E
0E
0E
1E
FE
FC
F8
ENDCHAR
STARTCHAR uni0459
ENCODING 1113
SWIDTH 848 0
DWIDTH 31 0
BBX 29 19 1 0
BITMAP
0FFF8000
0FFF8000
0FFF8000
0E078000
0E078000
0E078000
0E078000
0E07FF80
0E07FFC0
0E07FFE0
0E0780F0
0E078070
0E078078
1E078078
1C078070
3C0780F0
FC07FFE0
F807FFC0
F007FF80
ENDCHAR
STARTCHAR uni045A
ENCODING 1114
SWIDTH 861 0
DWIDTH 31 0
BBX 27 19 3 0
BITMAP
E00E0000
E00E0000
E00E0000
E00E0000
E00E0000
E00E0000
E00E0000
FFFFFE00
FFFFFF80
FFFFFFC0
E00E03C0
E00E01E0
E00E00E0
E00E00E0
E00E01E0
E00E03C0
E00FFFC0
E00FFF80
E00FFE00
ENDCHAR
STARTCHAR uni045B
ENCODING 1115
SWIDTH 566 0
DWIDTH 20 0
BBX 17 27 0 0
BITMAP
3C0000
3C0000
3C0000
FFE000
FFE000
FFE000
3C0000
3C0000
3CFC00
3DFE00
3FFF00
3F0F80
3E0780
3C0380
3C0380
3C0380
3C0380
3C0380
3C0380
3C0380
3C0380
3C0380
3C0380
3C0380
3C0380
3C0380
3C0380
ENDCHAR
STARTCHAR uni045C
ENCODING 1116
SWIDTH 540 0
DWIDTH 19 0
BBX 16 26 3 0
BITMAP
00F0
01E0
03C0
0780
0700
0000
0000
E01E
E03C
E038
E078
E0F0
E1E0
E3C0
E380
FF80
FF00
FF80
E3C0
E1E0
E1F0
E0F0
E078
E03C
E01E
E00F
ENDCHAR
STARTCHAR uni045D
ENCODING 1117
SWIDTH 577 0
DWIDTH 21 0
BBX 15 26 3 0
BITMAP
3C00
1E00
0F00
0700
0380
0000
0000
E01E
E01E
E03E
E03E
E07E
E0FE
E0EE
E1CE
E3CE
E38E
E70E
EF0E
EE0E
FC0E
FC0E
F80E
F80E
F00E
E00E
ENDCHAR
STARTCHAR uni045E
ENCODING 1118
SWIDTH 473 0
DWIDTH 17 0
BBX 17 34 0 -7
BITMAP
1C1C00
0C1C00
0E3800
07F800
03E000
000000
000000
000000
F00780
700700
780F00
380E00
380E00
3C1E00
1C1C00
1C1C00
1E3C00
0E3800
0F3800
077000
077000
07F000
03E000
03E000
03E000
01C000
01C000
01C000
038000
038000
070000
7F0000
7E0000
7C0000
ENDCHAR
STARTCHAR uni045F
ENCODING 1119
SWIDTH 577 0
DWIDTH 21 0
BBX 15 25 3 -6
BITMAP
E00E
E00E
E00E
E00E
E00E
E00E
E00E
E00E
E00E
E00E
E00E
E00E
E00E
E00E
E00E
E00E
FFFE
FFFE
FFFE
0380
0380
0380
0380
0380
0380
ENDCHAR
STARTCHAR uni0460
ENCODING 1120
SWIDTH 878 0
DWIDTH 32 0
BBX 26 26 3 0
BITMAP
E01E01C0
E01E01C0
E01E01C0
E01E01C0
E01E01C0
E01E01C0
E01E01C0
E01E01C0
E01E01C0
E01E01C0
E01E01C0
E01E01C0
E01E01C0
E01E01C0
E01E01C0
E01E01C0
E01E01C0
E01E01C0
E01E01C0
E01E01C0
F01E01C0
F03F03C0
787F8780
7FFFFF80
3FF3FF00
0FC0FC00
ENDCHAR
STARTCHAR uni0461
ENCODING 1121
SWIDTH 770 0
DWIDTH 28 0
BBX 24 19 2 0
BITMAP
F03C0F
F03C0F
F03C0F
F03C0F
F03C0F
F03C0F
F03C0F
F03C0F
F03C0F
F03C0F
F03C0F
F03C0F
F03C0F
F03C0F
703C0E
787E1E
7FFFFE
3FE7FC
0F83F0
ENDCHAR
STARTCHAR uni0462
ENCODING 1122
SWIDTH 627 0
DWIDTH 23 0
BBX 22 26 -1 0
BITMAP
0E0000
0E0000
0E0000
0E0000
FFE000
FFE000
FFE000
0E0000
0E0000
0E0000
0E0000
0FFF80
0FFFE0
0FFFF0
0E00F8
0E003C
0E003C
0E001C
0E001C
0E001C
0E003C
0E003C
0E00F8
0FFFF0
0FFFE0
0FFF80
ENDCHAR
STARTCHAR uni0463
ENCODING 1123
SWIDTH 541 0
DWIDTH 20 0
BBX 18 27 0 0
BITMAP
1C0000
1C0000
1C0000
1C0000
1C0000
1C0000
FFF000
FFF000
FFF000
1C0000
1C0000
1C0000
1C0000
1C0000
1FFC00
1FFF00
1FFF80
1C07C0
1C03C0
1C01C0
1C01C0
1C01C0
1C03C0
1C07C0
1FFF80
1FFF00
1FFC00
ENDCHAR
STARTCHAR uni0464
ENCODING 1124
SWIDTH 895 0
DWIDTH 32 0
BBX 27 26 3 0
BITMAP
E003F800
E00FFE00
E03FFF00
E07E0F80
E07803C0
E0F003C0
E0E001C0
E1E001E0
E1E001E0
E1C00000
E1C00000
FFFFF000
FFFFF000
FFFFF000
E1C00000
E1C00000
E1C00000
E1E00000
E1E001E0
E0E001C0
E0F003C0
E07803C0
E07C0F80
E03FFF00
E00FFE00
E003F800
ENDCHAR
STARTCHAR uni0465
ENCODING 1125
SWIDTH 746 0
DWIDTH 27 0
BBX 22 19 3 0
BITMAP
E00FC0
E03FF0
E07FF8
E0F07C
E1E03C
E1C01C
E1C000
E3C000
FFFF80
FFFF80
FFFF80
E3C000
E1C000
E1C01C
E1E01C
E0F07C
E07FF8
E03FF0
E00FC0
ENDCHAR
STARTCHAR uni0466
ENCODING 1126
SWIDTH 602 0
DWIDTH 22 0
BBX 21 26 1 0
BITMAP
007000
00F000
00F800
00F800
01FC00
01DC00
01DC00
039E00
038E00
038E00
070F00
070700
0F0700
0E0780
0E0380
1FFF80
1FFFC0
1FFFC0
3C71C0
3871E0
3870E0
7870E0
7070F0
707070
F07070
E07078
ENDCHAR
STARTCHAR uni0467
ENCODING 1127
SWIDTH 534 0
DWIDTH 19 0
BBX 19 19 0 0
BITMAP
00E000
01E000
01F000
01F000
03B800
03B800
07BC00
071C00
071C00
0E1E00
0E0E00
1FFF00
1FFF00
3FFF00
38E780
38E380
78E3C0
70E1C0
F0E1E0
ENDCHAR
STARTCHAR uni0468
ENCODING 1128
SWIDTH 880 0
DWIDTH 32 0
BBX 27 26 4 0
BITMAP
E001C000
E001E000
E003E000
E003E000
E003F000
E0077000
E0077800
E0073800
E00E3800
E00E3C00
E01E1C00
E01C1C00
E01C1E00
E03C0E00
E0380E00
FFFFFF00
FFFFFF00
FFFFFF00
E071C780
E0F1C380
E0E1C380
E0E1C3C0
E1E1C1C0
E1C1C1C0
E1C1C1E0
E3C1C0E0
ENDCHAR
STARTCHAR uni0469
ENCODING 1129
SWIDTH 755 0
DWIDTH 27 0
BBX 24 19 3 0
BITMAP
F00700
F00F00
F00F80
F01F80
F01FC0
F01DC0
F039C0
F039E0
F078E0
F070F0
F07070
FFFFF0
FFFFF8
FFFFF8
F1C73C
F1C71C
F3871C
F3870E
F7870F
ENDCHAR
STARTCHAR uni046A
ENCODING 1130
SWIDTH 852 0
DWIDTH 31 0
BBX 25 26 3 0
BITMAP
3FFFFE00
1FFFFC00
1FFFFC00
0F007800
07007800
0780F000
0380E000
03C1E000
01E1C000
01E3C000
00F38000
00778000
0FFFF800
3FFFFE00
7FFFFF00
781C0F00
F01C0780
E01C0380
E01C0380
E01C0380
E01C0380
E01C0380
E01C0380
E01C0380
E01C0380
E01C0380
ENDCHAR
STARTCHAR uni046B
ENCODING 1131
SWIDTH 734 0
DWIDTH 26 0
BBX 22 19 2 0
BITMAP
1FFFF0
0FFFE0
0FFFC0
070380
038780
038700
01CE00
01FE00
07FF80
1FFFE0
3FFFF0
7C78F8
707838
707838
F0783C
F0783C
F0783C
F0783C
F0783C
ENDCHAR
STARTCHAR uni046C
ENCODING 1132
SWIDTH 1126 0
DWIDTH 41 0
BBX 35 26 3 0
BITMAP
F00FFFFF80
F007FFFF00
F003FFFF00
F003C01E00
F001C01C00
F001E03C00
F000F03800
F000707000
F00078F000
F0003CE000
F0001DE000
FFFFFFFC00
FFFFFFFF00
FFFFFFFFC0
F01F0707C0
F03C0701E0
F03C0701E0
F0380700E0
F0380700E0
F0380700E0
F0380700E0
F0380700E0
F0380700E0
F0380700E0
F0380700E0
F0380700E0
ENDCHAR
STARTCHAR uni046D
ENCODING 1133
SWIDTH 977 0
DWIDTH 35 0
BBX 29 19 3 0
BITMAP
E01FFFE0
E01FFFC0
E00FFFC0
E0070380
E0078780
E0038700
E001CE00
E001FE00
FFFFFF80
FFFFFFE0
FFFFFFF0
E07878F8
E0707878
E0707838
E0F07838
E0F07838
E0F07838
E0F07838
E0F07838
ENDCHAR
STARTCHAR uni046E
ENCODING 1134
SWIDTH 517 0
DWIDTH 19 0
BBX 15 42 2 -8
BITMAP
3C38
0C70
0EE0
07C0
0380
0000
0000
0000
7F80
7FE0
7FF8
0078
003C
001C
001C
001C
001C
003C
0078
1FF0
1FC0
1FF0
0078
003C
001C
001E
001E
001E
001C
003C
007C
3FF8
7FF0
FFC0
E000
E000
E000
E000
F000
7800
3C00
1800
ENDCHAR
STARTCHAR uni046F
ENCODING 1135
SWIDTH 481 0
DWIDTH 17 0
BBX 14 36 1 -8
BITMAP
3870
1CE0
0FC0
0780
0700
0000
0000
0000
0000
7FC0
7FF0
7FF8
007C
003C
001C
003C
0078
0FF0
0FE0
0FF8
007C
001C
001C
001C
003C
1FF8
7FF0
7FC0
F000
E000
E000
F000
7000
7C00
3C00
0800
ENDCHAR
STARTCHAR uni0470
ENCODING 1136
SWIDTH 691 0
DWIDTH 25 0
BBX 21 26 2 0
BITMAP
E07038
E07038
E07038
E07038
E07038
E07038
E07038
E07038
E07038
E07038
E07038
E07038
E07078
F07078
7070F0
7871F0
3E73E0
1FFFC0
0FFF80
03FC00
007000
007000
007000
007000
007000
007000
ENDCHAR
STARTCHAR uni0471
ENCODING 1137
SWIDTH 700 0
DWIDTH 25 0
BBX 22 27 2 -8
BITMAP
E070F0
E07070
E07078
E07078
E07038
E07038
E07038
E07038
E0703C
E0703C
E07038
E07038
F07078
F07078
7870F0
3E73E0
3FFFE0
0FFF80
03FE00
007000
007000
007000
007000
007000
007000
007000
007000
ENDCHAR
STARTCHAR uni0472
ENCODING 1138
SWIDTH 680 0
DWIDTH 24 0
BBX 20 26 2 0
BITMAP
01F800
0FFE00
1FFF80
3E0FC0
3C03C0
7801E0
7000E0
F000F0
E000F0
E00070
E00070
E00070
FFFFF0
FFFFF0
FFFFF0
E00070
E00070
E000F0
F000F0
7000E0
7801E0
3C03C0
3E07C0
1FFF80
0FFE00
01F800
ENDCHAR
STARTCHAR uni0473
ENCODING 1139
SWIDTH 567 0
DWIDTH 20 0
BBX 18 19 1 0
BITMAP
03F000
0FFC00
1FFE00
3E1F00
780780
780380
700380
F003C0
FFFFC0
FFFFC0
FFFFC0
7003C0
700380
700380
780780
3E1F00
1FFE00
0FFC00
03F000
ENDCHAR
STARTCHAR uni0474
ENCODING 1140
SWIDTH 629 0
DWIDTH 23 0
BBX 21 26 1 0
BITMAP
E00038
F00078
F000F8
7000E0
7801E0
7801C0
3801C0
3C03C0
3C0380
1C0380
1E0780
1E0700
0E0700
0E0F00
0F0E00
070E00
071E00
039C00
039C00
03BC00
01F800
01F800
01F800
00F000
00F000
00F000
ENDCHAR
STARTCHAR uni0475
ENCODING 1141
SWIDTH 501 0
DWIDTH 18 0
BBX 17 19 1 0
BITMAP
E00780
F00F80
700F80
701E00
781C00
381C00
383C00
383800
1C3800
1C7000
1C7000
0E7000
0EE000
06E000
07E000
07C000
03C000
03C000
038000
ENDCHAR
STARTCHAR uni0476
ENCODING 1142
SWIDTH 629 0
DWIDTH 23 0
BBX 21 33 1 0
BITMAP
79E000
3CE000
1E7000
0F3800
039C00
000000
000000
E00038
F00078
F000F8
7000E0
7801E0
7801C0
3801C0
3C03C0
3C0380
1C0380
1E0780
1E0700
0E0700
0E0F00
0F0E00
070E00
071E00
039C00
039C00
03BC00
01F800
01F800
01F800
00F000
00F000
00F000
ENDCHAR
STARTCHAR uni0477
ENCODING 1143
SWIDTH 501 0
DWIDTH 18 0
BBX 18 26 0 0
BITMAP
F3C000
39E000
1CE000
0E7000
073800
000000
000000
7003C0
7807C0
3807C0
380F00
3C0E00
1C0E00
1C1E00
1C1C00
0E1C00
0E3800
0E3800
073800
077000
037000
03F000
03E000
01E000
01E000
01C000
ENDCHAR
STARTCHAR uni0478
ENCODING 1144
SWIDTH 1160 0
DWIDTH 42 0
BBX 39 33 2 -7
BITMAP
01FC000000
07FF000000
0FFF800000
1F07C00000
3C01E00000
7800E00000
7800F00000
700071E00E
F00070E01E
F00070F01C
F00078F01C
E00078703C
E000787838
E000783838
E000783878
F000783C70
F000701C70
F000701CF0
7000701EE0
7800F00EE0
7800E00EE0
3C01E00FC0
1F07C007C0
0FFF800780
07FF000380
01FC000380
0000000700
0000000700
0000000700
0000001E00
000000FE00
000000FC00
000000F000
ENDCHAR
STARTCHAR uni0479
ENCODING 1145
SWIDTH 1043 0
DWIDTH 38 0
BBX 35 26 2 -7
BITMAP
07E01E01E0
1FFC1E01E0
3FFE0E01C0
7C1E0F03C0
780F0703C0
F007870380
F007878380
E003838700
E003838700
E00383C700
E00381CE00
E00381CE00
F00780EE00
F00780FC00
780F00FC00
7C1E007C00
3FFE007800
1FFC007800
07F0003800
0000007000
0000007000
000000E000
000001E000
00000FC000
00000FC000
00000F0000
ENDCHAR
STARTCHAR uni047A
ENCODING 1146
SWIDTH 680 0
DWIDTH 24 0
BBX 20 30 2 -2
BITMAP
00F000
00F000
03F800
0FFE00
1FFF80
3EF7C0
38F3C0
7801E0
7000E0
F000F0
E000F0
E00070
E00070
E00070
E00070
E00070
E00070
E00070
E00070
E000F0
F000F0
F000E0
7801E0
7CF3C0
3EF7C0
1FFF80
0FFF00
03FC00
00F000
00F000
ENDCHAR
STARTCHAR uni047B
ENCODING 1147
SWIDTH 566 0
DWIDTH 20 0
BBX 18 23 1 -2
BITMAP
01E000
01E000
03F000
0FFC00
1FFE00
3DEF00
79E780
780380
700380
7003C0
F003C0
F003C0
F003C0
7003C0
700380
780380
79E780
3DEF00
1FFE00
0FFC00
03F000
01E000
01E000
ENDCHAR
STARTCHAR uni047C
ENCODING 1148
SWIDTH 875 0
DWIDTH 32 0
BBX 26 33 3 0
BITMAP
007C0000
00FF8000
00C3F800
00C07800
000E0000
000E0000
000E0000
0E0C1C00
1E181F00
3E001F80
78000780
F00003C0
F00003C0
F00001C0
E00001C0
E00001C0
E00001C0
E00001C0
E01E01C0
E01E01C0
E01E01C0
E01E01C0
E01E01C0
E01E01C0
E01E01C0
E01E01C0
F01E01C0
F01E03C0
F03F03C0
787F8780
3FFFFF80
1FF3FF00
0FC0FC00
ENDCHAR
STARTCHAR uni047D
ENCODING 1149
SWIDTH 767 0
DWIDTH 28 0
BBX 24 26 2 0
BITMAP
007C00
00FF00
01C7F0
0180F0
000E00
000E00
000C00
0E1C70
3E187C
3E007C
78001E
70000E
F0000F
F0000F
F0000F
F0000F
F03C0F
F03C0F
F03C0F
F03C0F
F03C0F
703C0E
787E1E
3FFFFC
3FE7FC
0F81F0
ENDCHAR
STARTCHAR uni047E
ENCODING 1150
SWIDTH 878 0
DWIDTH 32 0
BBX 26 32 3 0
BITMAP
03FFF000
03FFF000
000E0000
000E0000
00000000
00000000
E01E01C0
E01E01C0
E01E01C0
E01E01C0
E01E01C0
E01E01C0
E01E01C0
E01E01C0
E01E01C0
E01E01C0
E01E01C0
E01E01C0
E01E01C0
E01E01C0
E01E01C0
E01E01C0
E01E01C0
E01E01C0
E01E01C0
E01E01C0
F01E01C0
F03F03C0
787F8780
7FFFFF80
3FF3FF00
0FC0FC00
ENDCHAR
STARTCHAR uni047F
ENCODING 1151
SWIDTH 770 0
DWIDTH 28 0
BBX 24 25 2 0
BITMAP
07FFE0
07FFE0
003800
003800
000000
000000
F03C0F
F03C0F
F03C0F
F03C0F
F03C0F
F03C0F
F03C0F
F03C0F
F03C0F
F03C0F
F03C0F
F03C0F
F03C0F
F03C0F
703C0E
787E1E
7FFFFE
3FE7FC
0F83F0
ENDCHAR
STARTCHAR uni0480
ENCODING 1152
SWIDTH 649 0
DWIDTH 23 0
BBX 19 33 2 -7
BITMAP
01F800
0FFE00
1FFF80
3E0FC0
3C03C0
7801E0
7001E0
F000E0
F000E0
E00000
E00000
E00000
E00000
E00000
E00000
E00000
E00000
E00000
F00000
700000
780000
7C0000
3E0000
1FF000
0FF000
03F000
00F000
00F000
00F000
00F000
00F000
00F000
00F000
ENDCHAR
STARTCHAR uni0481
ENCODING 1153
SWIDTH 534 0
DWIDTH 19 0
BBX 15 26 2 -7
BITMAP
07E0
1FF8
3FFC
7C3C
701E
F00E
E00E
E000
E000
E000
E000
E000
E000
F000
7000
7C00
3FC0
1FC0
07C0
03C0
03C0
03C0
03C0
03C0
03C0
03C0
ENDCHAR
STARTCHAR uni0482
ENCODING 1154
SWIDTH 623 0
DWIDTH 22 0
BBX 19 24 2 0
BITMAP
000380
000380
000700
020700
078E00
03FC00
01FC00
007C00
003E00
007F80
0073E0
00E0C0
60E080
F1C000
7F8000
1F8000
0F8000
07E000
0EF800
0E7C00
1C1800
1C0000
380000
700000
ENDCHAR
STARTCHAR uni0483
ENCODING 1155
SWIDTH 0 0
DWIDTH 0 0
BBX 12 6 -16 21
BITMAP
0070
0070
FFF0
FFF0
E000
E000
ENDCHAR
STARTCHAR uni0484
ENCODING 1156
SWIDTH 0 0
DWIDTH 0 0
BBX 13 4 -16 23
BITMAP
01F0
0FF8
FE18
F018
ENDCHAR
STARTCHAR uni0485
ENCODING 1157
SWIDTH 0 0
DWIDTH 0 0
BBX 4 6 -12 23
BITMAP
E0
E0
E0
70
30
10
ENDCHAR
STARTCHAR uni0486
ENCODING 1158
SWIDTH 0 0
DWIDTH 0 0
BBX 5 6 -11 23
BITMAP
78
78
70
70
60
C0
ENDCHAR
STARTCHAR uni0488
ENCODING 1160
SWIDTH 0 0
DWIDTH 0 0
BBX 35 32 -27 -6
BITMAP
0001E00000
0003F00000
0003180000
0003180000
0000000000
0780003C00
0FC0007E00
0C6000C600
0C6000C600
0000000000
0000000000
0000000000
0000000000
0000000000
3C00000780
7E00000FC0
6700001CC0
C300001860
0000000000
0000000000
0000000000
0000000000
0000000000
0780003800
0FC0007C00
0CE000C600
186000C600
0000000000
0000E00000
0003F00000
0003180000
0003180000
ENDCHAR
STARTCHAR uni0489
ENCODING 1161
SWIDTH 0 0
DWIDTH 0 0
BBX 32 33 -26 -7
BITMAP
0000C000
0000C000
0001C000
00018000
04018000
06038000
07000010
03000078
038001E0
018003C0
01000100
00000000
00000000
00000000
00000000
C0000030
FC00003E
3C00003F
04000003
00000000
00000000
00000000
00000000
00000080
008001C0
01C001C0
07C000C0
0F01C060
1801C060
00018020
00018000
00030000
00030000
ENDCHAR
STARTCHAR uni048A
ENCODING 1162
SWIDTH 754 0
DWIDTH 27 0
BBX 23 39 3 -6
BITMAP
0E0E00
060E00
071C00
03FC00
01F000
000000
000000
F000E0
F001E0
F001E0
F003E0
F007E0
F007E0
F00FE0
F01EE0
F01EE0
F03CE0
F078E0
F078E0
F0F0E0
F0E0E0
F1E0E0
F3C0E0
F3C0E0
F780E0
FF00E0
FF00E0
FE00E0
FC00E0
FC00E0
F800FE
F000FE
F000FE
00001E
00001C
00001C
00003C
000038
000010
ENDCHAR
STARTCHAR uni048B
ENCODING 1163
SWIDTH 615 0
DWIDTH 22 0
BBX 18 33 3 -6
BITMAP
383000
383000
3C7000
1FE000
07C000
000000
000000
000000
E01E00
E01E00
E03E00
E03E00
E07E00
E0FE00
E0EE00
E1CE00
E3CE00
E38E00
E70E00
EF0E00
EE0E00
FC0E00
FC0E00
F80E00
F80FC0
F00FC0
E00FC0
0001C0
0001C0
0003C0
000380
000700
000300
ENDCHAR
STARTCHAR uni048C
ENCODING 1164
SWIDTH 627 0
DWIDTH 23 0
BBX 22 26 -1 0
BITMAP
0E0000
0E0000
0E0000
0E0000
FFE000
FFE000
FFE000
0E0000
0E0000
0E0000
0E0000
0FFF80
0FFFE0
0FFFF0
0E00F8
0E003C
0E003C
0E001C
0E001C
0E001C
0E003C
0E003C
0E00F8
0FFFF0
0FFFE0
0FFF80
ENDCHAR
STARTCHAR uni048D
ENCODING 1165
SWIDTH 541 0
DWIDTH 20 0
BBX 18 29 0 0
BITMAP
1C0000
1C0000
1C0000
FFF000
FFF000
FFF000
1C0000
1C0000
1C0000
1C0000
1C0000
1C0000
1C0000
1C0000
1C0000
1C0000
1FFC00
1FFF00
1FFF80
1C07C0
1C03C0
1C01C0
1C01C0
1C01C0
1C03C0
1C07C0
1FFF80
1FFF00
1FFC00
ENDCHAR
STARTCHAR uni048E
ENCODING 1166
SWIDTH 638 0
DWIDTH 23 0
BBX 19 26 3 0
BITMAP
FFF800
FFFE00
FFFF00
E00F80
E003C0
E003C0
E001C0
E001C0
E001C0
E019C0
E03FC0
E01FC0
E00F80
FFFF80
FFFFC0
FFF9C0
E000E0
E00080
E00000
E00000
E00000
E00000
E00000
E00000
E00000
E00000
ENDCHAR
STARTCHAR uni048F
ENCODING 1167
SWIDTH 566 0
DWIDTH 20 0
BBX 16 26 2 -7
BITMAP
E3F0
EFF8
FFFC
FC3E
F00E
F00F
F007
F007
F007
F007
F007
F007
F027
F07F
F03E
FC3E
FFFE
FFFF
F3F7
F002
F000
F000
F000
F000
F000
F000
ENDCHAR
STARTCHAR uni0490
ENCODING 1168
SWIDTH 548 0
DWIDTH 20 0
BBX 16 32 3 0
BITMAP
000F
000F
000F
000F
000F
000F
FFFF
FFFF
FFFF
E000
E000
E000
E000
E000
E000
E000
E000
E000
E000
E000
E000
E000
E000
E000
E000
E000
E000
E000
E000
E000
E000
E000
ENDCHAR
STARTCHAR uni0491
ENCODING 1169
SWIDTH 445 0
DWIDTH 16 0
BBX 12 25 3 0
BITMAP
00F0
00F0
00F0
00F0
00F0
00F0
FFF0
FFF0
FFF0
E000
E000
E000
E000
E000
E000
E000
E000
E000
E000
E000
E000
E000
E000
E000
E000
ENDCHAR
STARTCHAR uni0492
ENCODING 1170
SWIDTH 556 0
DWIDTH 20 0
BBX 19 26 0 0
BITMAP
1FFFE0
1FFFE0
1FFFE0
1E0000
1E0000
1E0000
1E0000
1E0000
1E0000
1E0000
1E0000
FFE000
FFE000
FFE000
1E0000
1E0000
1E0000
1E0000
1E0000
1E0000
1E0000
1E0000
1E0000
1E0000
1E0000
1E0000
ENDCHAR
STARTCHAR uni0493
ENCODING 1171
SWIDTH 419 0
DWIDTH 15 0
BBX 15 19 0 0
BITMAP
1FFE
1FFE
1FFE
1C00
1C00
1C00
1C00
1C00
FFE0
FFE0
FFE0
1C00
1C00
1C00
1C00
1C00
1C00
1C00
1C00
ENDCHAR
STARTCHAR uni0494
ENCODING 1172
SWIDTH 606 0
DWIDTH 22 0
BBX 17 31 3 -5
BITMAP
FFFF00
FFFF00
FFFF00
F00000
F00000
F00000
F00000
F00000
F00000
F00000
F00000
FFE000
FFF800
FFFC00
F03E00
F00F00
F00700
F00780
F00380
F00380
F00380
F00380
F00380
F00380
F00380
F00780
000700
001F00
007E00
007C00
007000
ENDCHAR
STARTCHAR uni0495
ENCODING 1173
SWIDTH 502 0
DWIDTH 18 0
BBX 15 24 2 -5
BITMAP
FFF8
FFF8
FFF8
F000
F000
F000
F000
F000
FF80
FFE0
FFF8
F0F8
F03C
F01C
F01E
F00E
F00E
F01E
F01C
003C
0078
01F8
00F0
00C0
ENDCHAR
STARTCHAR uni0496
ENCODING 1174
SWIDTH 954 0
DWIDTH 34 0
BBX 34 32 0 -6
BITMAP
7801C01F00
3C01C01E00
1E01C03C00
1E01C03C00
0F01C07800
0F01C07000
0781C0F000
0381C0E000
03C1C1E000
01E1C3C000
00E1C38000
00F1C78000
007FFF0000
007FFF0000
00FFFF8000
01F1C78000
01E1C3C000
03C1C1E000
07C1C1E000
0781C0F000
0F01C07800
1F01C07800
1E01C03C00
3C01C01FC0
7C01C01FC0
7801C00FC0
80000001C0
00000001C0
00000001C0
00000001C0
00000001C0
00000001C0
ENDCHAR
STARTCHAR uni0497
ENCODING 1175
SWIDTH 797 0
DWIDTH 29 0
BBX 28 25 0 -6
BITMAP
780E03C0
3C0E0380
1C0E0780
1E0E0F00
0F0E0E00
070E1E00
078E3C00
03CE3C00
01FFF800
01FFF000
03FFF800
038E3C00
078E1C00
0F0E1E00
0F0E0F00
1E0E0780
3C0E07F0
7C0E03F0
780E01F0
80000070
00000070
00000070
00000070
00000070
00000070
ENDCHAR
STARTCHAR uni0498
ENCODING 1176
SWIDTH 593 0
DWIDTH 21 0
BBX 19 33 1 -7
BITMAP
03F800
0FFE00
3FFF80
3E0F80
7803C0
7001C0
7001C0
0001C0
0001C0
0003C0
000780
01FF00
01FC00
01FF00
000780
0003C0
0001C0
0001E0
0001E0
F001E0
F001C0
7803C0
7E0F80
3FFF80
1FFE00
03F800
00E000
00E000
00E000
00E000
00E000
00E000
00E000
ENDCHAR
STARTCHAR uni0499
ENCODING 1177
SWIDTH 507 0
DWIDTH 18 0
BBX 15 26 1 -7
BITMAP
07E0
1FF8
3FFC
7C3E
700E
000E
000E
001C
07FC
07F0
07FC
001E
000E
F00E
700E
781E
3FFC
1FF8
07F0
03C0
03C0
03C0
03C0
03C0
03C0
03C0
ENDCHAR
STARTCHAR uni049A
ENCODING 1178
SWIDTH 700 0
DWIDTH 25 0
BBX 21 32 3 -6
BITMAP
F001E0
F003C0
F00780
F00F80
F01F00
F01E00
F03C00
F07800
F0F000
F1F000
F1E000
FFC000
FFC000
FFE000
F1E000
F0F000
F07800
F07C00
F03C00
F01E00
F00F00
F00F80
F00780
F003F8
F001F8
F001F8
000078
000078
000078
000078
000078
000078
ENDCHAR
STARTCHAR uni049B
ENCODING 1179
SWIDTH 589 0
DWIDTH 21 0
BBX 17 25 3 -6
BITMAP
E01E00
E03C00
E03800
E07800
E0F000
E1E000
E3C000
E38000
FF8000
FF0000
FF8000
E3C000
E1E000
E1F000
E0F000
E07800
E03F80
E01F80
E00F80
000380
000380
000380
000380
000380
000380
ENDCHAR
STARTCHAR uni049C
ENCODING 1180
SWIDTH 629 0
DWIDTH 23 0
BBX 19 26 3 0
BITMAP
E003E0
E003C0
E00380
E00780
E00700
E00F00
E00E00
E71E00
E71C00
E73C00
E73800
E77000
FFF000
FFF000
FFF800
E77800
E73C00
E73C00
E71E00
E00F00
E00F00
E00780
E00780
E003C0
E003E0
E001E0
ENDCHAR
STARTCHAR uni049D
ENCODING 1181
SWIDTH 561 0
DWIDTH 20 0
BBX 17 19 3 0
BITMAP
E00F80
E00F00
E01E00
E01C00
E63C00
E67800
E67000
E6F000
FFE000
FFE000
FFF000
E67000
E67800
E63C00
E03C00
E01E00
E00F00
E00F00
E00780
ENDCHAR
STARTCHAR uni049E
ENCODING 1182
SWIDTH 652 0
DWIDTH 23 0
BBX 23 26 0 0
BITMAP
1E003E
1E0078
1E00F8
1E00F0
FFE1E0
FFE3C0
FFE780
1E0F80
1E0F00
1E1E00
1E3C00
1FF800
1FF800
1FFC00
1E3E00
1E1E00
1E0F00
1E0780
1E07C0
1E03C0
1E01E0
1E00F0
1E0078
1E0078
1E003C
1E001E
ENDCHAR
STARTCHAR uni049F
ENCODING 1183
SWIDTH 519 0
DWIDTH 19 0
BBX 20 27 -1 0
BITMAP
0E0000
0E0000
0E0000
FFE000
FFE000
FFE000
0E0000
0E0000
0E01E0
0E03C0
0E0780
0E0700
0E0F00
0E1E00
0E3C00
0E3800
0FF800
0FF000
0FF800
0E3C00
0E1E00
0E1E00
0E0F00
0E0780
0E03C0
0E01E0
0E01F0
ENDCHAR
STARTCHAR uni04A0
ENCODING 1184
SWIDTH 818 0
DWIDTH 29 0
BBX 28 26 1 0
BITMAP
FFF001F0
FFF003E0
FFF007C0
00700780
00700F00
00701E00
00703E00
00707C00
00707800
0070F000
0071E000
007FC000
007FC000
007FE000
0071F000
0070F000
00707800
00703C00
00703E00
00701E00
00700F00
00700780
007003C0
007003E0
007001E0
007000F0
ENDCHAR
STARTCHAR uni04A1
ENCODING 1185
SWIDTH 688 0
DWIDTH 25 0
BBX 24 19 1 0
BITMAP
FFE01E
FFE03C
FFE078
01E0F0
01E0E0
01E1E0
01E3C0
01E780
01FF00
01FF00
01FF80
01E780
01E3C0
01E1E0
01E0F0
01E078
01E07C
01E03C
01E01F
ENDCHAR
STARTCHAR uni04A2
ENCODING 1186
SWIDTH 749 0
DWIDTH 27 0
BBX 22 32 3 -6
BITMAP
E000F0
E000F0
E000F0
E000F0
E000F0
E000F0
E000F0
E000F0
E000F0
E000F0
E000F0
FFFFF0
FFFFF0
FFFFF0
E000F0
E000F0
E000F0
E000F0
E000F0
E000F0
E000F0
E000F0
E000F0
E000FC
E000FC
E000FC
00001C
00001C
00001C
00001C
00001C
00001C
ENDCHAR
STARTCHAR uni04A3
ENCODING 1187
SWIDTH 605 0
DWIDTH 22 0
BBX 18 25 3 -6
BITMAP
E00E00
E00E00
E00E00
E00E00
E00E00
E00E00
E00E00
E00E00
FFFE00
FFFE00
FFFE00
E00E00
E00E00
E00E00
E00E00
E00E00
E00FC0
E00FC0
E00FC0
0001C0
0001C0
0001C0
0001C0
0001C0
0001C0
ENDCHAR
STARTCHAR uni04A4
ENCODING 1188
SWIDTH 976 0
DWIDTH 35 0
BBX 31 26 3 0
BITMAP
E000FFFE
E000FFFE
E000FFFE
E000F000
E000F000
E000F000
E000F000
E000F000
E000F000
E000F000
E000F000
FFFFF000
FFFFF000
FFFFF000
E000F000
E000F000
E000F000
E000F000
E000F000
E000F000
E000F000
E000F000
E000F000
E000F000
E000F000
E000F000
ENDCHAR
STARTCHAR uni04A5
ENCODING 1189
SWIDTH 712 0
DWIDTH 26 0
BBX 21 19 3 0
BITMAP
E00FF8
E00FF8
E00FF8
E00E00
E00E00
E00E00
E00E00
E00E00
FFFE00
FFFE00
FFFE00
E00E00
E00E00
E00E00
E00E00
E00E00
E00E00
E00E00
E00E00
ENDCHAR
STARTCHAR uni04A6
ENCODING 1190
SWIDTH 1023 0
DWIDTH 37 0
BBX 32 31 3 -5
BITMAP
FFFFF000
FFFFF000
FFFFF000
F000F000
F000F000
F000F000
F000F000
F000F000
F000F000
F000F000
F000F000
F000FF80
F000FFF0
F000FFF8
F000F07C
F000F01E
F000F00E
F000F00F
F000F007
F000F007
F000F007
F000F007
F000F007
F000F007
F000F00F
F000F00F
0000001E
0000003E
000000FC
000000F8
000000E0
ENDCHAR
STARTCHAR uni04A7
ENCODING 1191
SWIDTH 869 0
DWIDTH 31 0
BBX 28 24 2 -5
BITMAP
FFFF0000
FFFF0000
FFFF0000
F00F0000
F00F0000
F00F0000
F00F0000
F00F0000
F00FFC00
F00FFF00
F00FFFC0
F00F07E0
F00F01E0
F00F00F0
F00F00F0
F00F0070
F00F0070
F00F00F0
F00F00F0
000001E0
000003E0
00000FC0
00000780
00000600
ENDCHAR
STARTCHAR uni04A8
ENCODING 1192
SWIDTH 741 0
DWIDTH 27 0
BBX 24 26 2 0
BITMAP
0303E0
0F0FF0
1F1FF8
3C3C3C
38381C
78781E
70780E
F0700E
F0700E
F0700E
F0700E
F0700E
F0700E
F0700E
F0700E
F0700E
F0700E
70781E
70381E
783C1C
3C1E3C
3E1F78
1F0FF0
0FFFFF
07FFFF
00FE1F
ENDCHAR
STARTCHAR uni04A9
ENCODING 1193
SWIDTH 603 0
DWIDTH 22 0
BBX 19 19 2 0
BITMAP
0C3E00
3C7F00
3CFF80
79E380
71E3C0
F1C1C0
E1C1C0
E1C1C0
E1C1C0
E1C1C0
E1C1C0
F1C1C0
70E3C0
70E380
787780
3C3F00
1FFFE0
0FFFE0
03F1E0
ENDCHAR
STARTCHAR uni04AA
ENCODING 1194
SWIDTH 650 0
DWIDTH 23 0
BBX 20 33 2 -7
BITMAP
01FC00
07FF00
0FFF80
1F07C0
3C01E0
7801E0
7800E0
7000F0
F000F0
F00000
F00000
E00000
E00000
E00000
E00000
F00000
F00000
F00000
7000F0
7800E0
7801E0
3C01E0
1F07C0
1FFF80
07FF00
01FC00
00F000
00F000
00F000
00F000
00F000
00F000
00F000
ENDCHAR
STARTCHAR uni04AB
ENCODING 1195
SWIDTH 523 0
DWIDTH 19 0
BBX 16 26 2 -7
BITMAP
07E0
1FF8
3FFC
7C3E
700E
F00F
E007
E000
E000
E000
E000
E000
E000
F00F
700E
7C3E
3FFC
1FF8
07E0
0380
0380
0380
0380
0380
0380
0380
ENDCHAR
STARTCHAR uni04AC
ENCODING 1196
SWIDTH 596 0
DWIDTH 21 0
BBX 20 32 1 -6
BITMAP
FFFFF0
FFFFF0
FFFFF0
00E000
00E000
00E000
00E000
00E000
00E000
00E000
00E000
00E000
00E000
00E000
00E000
00E000
00E000
00E000
00E000
00E000
00E000
00E000
00E000
00FC00
00FC00
00FC00
001C00
001C00
001C00
001C00
001C00
001C00
ENDCHAR
STARTCHAR uni04AD
ENCODING 1197
SWIDTH 480 0
DWIDTH 17 0
BBX 16 25 1 -6
BITMAP
FFFF
FFFF
FFFF
0380
0380
0380
0380
0380
0380
0380
0380
0380
0380
0380
0380
0380
03F0
03F0
03F0
0070
0070
0070
0070
0070
0070
ENDCHAR
STARTCHAR uni04AE
ENCODING 1198
SWIDTH 600 0
DWIDTH 22 0
BBX 21 26 0 0
BITMAP
F00078
780070
3800F0
3C00E0
1C01E0
1E01C0
0E03C0
0F0380
070780
078700
038F00
03CE00
01DE00
00FC00
00F800
007800
007000
007000
007000
007000
007000
007000
007000
007000
007000
007000
ENDCHAR
STARTCHAR uni04AF
ENCODING 1199
SWIDTH 500 0
DWIDTH 18 0
BBX 16 26 1 -7
BITMAP
E007
F007
700E
700E
781E
381C
381C
1C3C
1C38
1E38
0E70
0E70
0770
07E0
07E0
03E0
03C0
03C0
03C0
03C0
03C0
03C0
03C0
03C0
03C0
03C0
ENDCHAR
STARTCHAR uni04B0
ENCODING 1200
SWIDTH 600 0
DWIDTH 22 0
BBX 21 26 0 0
BITMAP
F80078
780078
3C00F0
3C00F0
1E01E0
1E01E0
0F03C0
070380
078780
038700
03CF00
01CE00
01FE00
00FC00
07FF80
07FF80
07FF80
007800
007800
007800
007800
007800
007800
007800
007800
007800
ENDCHAR
STARTCHAR uni04B1
ENCODING 1201
SWIDTH 500 0
DWIDTH 18 0
BBX 16 26 1 -7
BITMAP
E007
F007
700E
700E
381E
381C
381C
1C3C
1C38
1E38
0E70
0E70
0770
07E0
07E0
03C0
1FFC
1FFC
1FFC
03C0
03C0
03C0
03C0
03C0
03C0
03C0
ENDCHAR
STARTCHAR uni04B2
ENCODING 1202
SWIDTH 636 0
DWIDTH 23 0
BBX 21 32 1 -6
BITMAP
F000F0
7800E0
3C01E0
3C03C0
1E03C0
0F0780
0F0F00
078F00
039E00
03DC00
01FC00
01F800
00F800
00F800
01F800
01FC00
03DE00
079E00
078F00
0F0780
1E0780
1E03C0
3C03C0
3C01F8
7800F8
F000F8
000038
000038
000038
000038
000038
000038
ENDCHAR
STARTCHAR uni04B3
ENCODING 1203
SWIDTH 520 0
DWIDTH 19 0
BBX 17 25 1 -6
BITMAP
F00F00
781E00
381C00
3C3C00
1C7800
0E7000
0FF000
07E000
03C000
03C000
07C000
07E000
0FF000
1E7000
1C7800
3C3C00
781F80
701F80
F00F80
000380
000380
000380
000380
000380
000380
ENDCHAR
STARTCHAR uni04B4
ENCODING 1204
SWIDTH 896 0
DWIDTH 32 0
BBX 29 32 1 -6
BITMAP
FFFF81C0
FFFF81C0
FFFF81C0
03C001C0
03C001C0
03C001C0
03C001C0
03C001C0
03C001C0
03C001C0
03C001C0
03C001C0
03C001C0
03C001C0
03C001C0
03C001C0
03C001C0
03C001C0
03C001C0
03C001C0
03C001C0
03C001C0
03C001C0
03FFFFF8
03FFFFF8
03FFFFF8
00000070
00000070
00000070
00000070
00000070
00000070
ENDCHAR
STARTCHAR uni04B5
ENCODING 1205
SWIDTH 669 0
DWIDTH 24 0
BBX 22 25 1 -6
BITMAP
FFF0F0
FFF0F0
FFF0F0
0F00F0
0F00F0
0F00F0
0F00F0
0F00F0
0F00F0
0F00F0
0F00F0
0F00F0
0F00F0
0F00F0
0F00F0
0F00F0
0FFFFC
0FFFFC
0FFFFC
00001C
00001C
00001C
00001C
00001C
00001C
ENDCHAR
STARTCHAR uni04B6
ENCODING 1206
SWIDTH 716 0
DWIDTH 26 0
BBX 21 32 3 -6
BITMAP
E001E0
E001E0
E001E0
E001E0
E001E0
E001E0
E001E0
E001E0
E001E0
E001E0
F001E0
F001E0
7C07E0
7FFFE0
3FFFE0
07FDE0
0001E0
0001E0
0001E0
0001E0
0001E0
0001E0
0001E0
0001F8
0001F8
0001F8
000038
000038
000038
000038
000038
000038
ENDCHAR
STARTCHAR uni04B7
ENCODING 1207
SWIDTH 573 0
DWIDTH 21 0
BBX 18 25 2 -6
BITMAP
E00E00
E00E00
E00E00
E00E00
E00E00
E00E00
E00E00
F00E00
F00E00
781E00
7FFE00
3FFE00
0FFE00
000E00
000E00
000E00
000FC0
000FC0
000FC0
0003C0
0003C0
0003C0
0003C0
0003C0
0003C0
ENDCHAR
STARTCHAR uni04B8
ENCODING 1208
SWIDTH 679 0
DWIDTH 24 0
BBX 19 26 2 0
BITMAP
F000E0
F000E0
F000E0
F000E0
F000E0
F000E0
F000E0
F000E0
F070E0
F070E0
7070E0
7870E0
7C71E0
3FFFE0
1FFFE0
07FEE0
0070E0
0070E0
0070E0
0070E0
0000E0
0000E0
0000E0
0000E0
0000E0
0000E0
ENDCHAR
STARTCHAR uni04B9
ENCODING 1209
SWIDTH 551 0
DWIDTH 20 0
BBX 15 19 2 0
BITMAP
F00E
F00E
F00E
F00E
F00E
F18E
F18E
F18E
718E
798E
3FFE
1FFE
0FFE
018E
018E
000E
000E
000E
000E
ENDCHAR
STARTCHAR uni04BA
ENCODING 1210
SWIDTH 679 0
DWIDTH 24 0
BBX 19 26 2 0
BITMAP
F00000
F00000
F00000
F00000
F00000
F00000
F00000
F00000
F00000
F00000
F7FC00
FFFF00
FFFF80
FC07C0
F001E0
F001E0
F000E0
F000E0
F000E0
F000E0
F000E0
F000E0
F000E0
F000E0
F000E0
F000E0
ENDCHAR
STARTCHAR uni04BB
ENCODING 1211
SWIDTH 550 0
DWIDTH 20 0
BBX 15 27 3 0
BITMAP
E000
E000
E000
E000
E000
E000
E000
E000
E3E0
EFF8
FFFC
F83C
F01C
E01C
E01C
E01E
E01E
E01E
E01E
E01E
E01E
E01E
E01E
E01E
E01E
E01E
E01E
ENDCHAR
STARTCHAR uni04BC
ENCODING 1212
SWIDTH 772 0
DWIDTH 28 0
BBX 25 26 1 0
BITMAP
000FE000
003FF800
007FFC00
00F83E00
01F00E00
01E00F00
01C00700
E3C00700
E3800780
73800780
7B800380
3FFFFF80
1FFFFF80
0FFFFF80
03800000
03800000
03800000
03800000
03C00000
03C00000
01E00000
01F00000
00FC0E00
007FFE00
003FFF00
0007F800
ENDCHAR
STARTCHAR uni04BD
ENCODING 1213
SWIDTH 592 0
DWIDTH 21 0
BBX 21 19 -1 0
BITMAP
003F00
00FFC0
01FFE0
03E1E0
E380F0
E78070
670070
770070
7FFFF8
3FFFF8
0FFFF8
0F0000
070000
070000
078020
03E0F0
01FFE0
00FFC0
003F00
ENDCHAR
STARTCHAR uni04BE
ENCODING 1214
SWIDTH 772 0
DWIDTH 28 0
BBX 25 33 1 -7
BITMAP
000FE000
003FF800
007FFC00
00F83E00
01F00E00
01E00F00
01C00700
E3C00700
E3800780
73800780
7B800380
3FFFFF80
1FFFFF80
0FFFFF80
03800000
03800000
03800000
03800000
03C00000
03C00000
01E00000
01F00000
00FC0E00
007FFE00
003FFF00
0007F800
0003C000
0003C000
0003C000
0003C000
0003C000
0003C000
0003C000
ENDCHAR
STARTCHAR uni04BF
ENCODING 1215
SWIDTH 592 0
DWIDTH 21 0
BBX 21 26 -1 -7
BITMAP
003F00
00FFC0
01FFE0
03E1E0
E380F0
E78070
670070
770070
7FFFF8
3FFFF8
0FFFF8
0F0000
070000
070000
078020
03E0F0
01FFE0
00FFC0
003F00
000E00
000E00
000E00
000E00
000E00
000E00
000E00
ENDCHAR
STARTCHAR uni04C0
ENCODING 1216
SWIDTH 271 0
DWIDTH 10 0
BBX 4 26 3 0
BITMAP
F0
F0
F0
F0
F0
F0
F0
F0
F0
F0
F0
F0
F0
F0
F0
F0
F0
F0
F0
F0
F0
F0
F0
F0
F0
F0
ENDCHAR
STARTCHAR uni04C1
ENCODING 1217
SWIDTH 907 0
DWIDTH 33 0
BBX 32 33 0 0
BITMAP
001C1800
001C1800
001E3800
000FF000
0003E000
00000000
00000000
7801C01F
3C01C01E
1E01C03C
1E01C03C
0F01C078
0F01C070
0781C0F0
0381C0E0
03C1C1E0
01E1C3C0
00E1C380
00F1C780
007FFF00
007FFF00
00FFFF80
01F1C780
01E1C3C0
03C1C1E0
07C1C1E0
0781C0F0
0F01C078
1F01C078
1E01C03C
3C01C01E
7C01C01E
F801C00F
ENDCHAR
STARTCHAR uni04C2
ENCODING 1218
SWIDTH 765 0
DWIDTH 28 0
BBX 27 27 0 0
BITMAP
00E0E000
00E0E000
0071C000
003F8000
001F0000
00000000
00000000
00000000
780E03C0
3C0E0380
1C0E0780
1E0E0F00
0F0E0E00
070E1E00
078E3C00
03CE3C00
01FFF800
01FFF000
03FFF800
038E3C00
078E1C00
0F0E1E00
0F0E0F00
1E0E0780
3C0E0780
7C0E03C0
F80E01E0
ENDCHAR
STARTCHAR uni04C3
ENCODING 1219
SWIDTH 629 0
DWIDTH 23 0
BBX 19 31 3 -5
BITMAP
E003E0
E003C0
E00780
E00F00
E01E00
E03C00
E07800
E07800
E0F000
E1E000
E3C000
FFF000
FFFC00
FFFF00
E01F80
E00780
E003C0
E001C0
E001C0
E001E0
E001E0
E001E0
E001E0
E001E0
E001C0
E001C0
0003C0
000780
003F80
003E00
003800
ENDCHAR
STARTCHAR uni04C4
ENCODING 1220
SWIDTH 543 0
DWIDTH 20 0
BBX 16 24 3 -5
BITMAP
E01F
E03C
E038
E078
E0F0
E1E0
E3C0
E780
FFC0
FFF0
FFF8
E07C
E01E
E00E
E00E
E00E
E00E
E00E
E00E
001E
007C
00F8
00F0
0040
ENDCHAR
STARTCHAR uni04C5
ENCODING 1221
SWIDTH 749 0
DWIDTH 27 0
BBX 24 32 1 -6
BITMAP
07FFF8
07FFF8
07FFF8
078038
078038
078038
070038
070038
070038
070038
070038
070038
070038
070038
070038
070038
070038
0F0038
0F0038
0E0038
0E0038
1E0038
3E0038
FC003F
F8003F
F0003F
000007
000007
000007
00000E
00000E
000004
ENDCHAR
STARTCHAR uni04C6
ENCODING 1222
SWIDTH 616 0
DWIDTH 22 0
BBX 20 25 1 -6
BITMAP
0FFF80
0FFF80
0FFF80
0E0380
0E0380
0E0380
0E0380
0E0380
0E0380
0E0380
0E0380
0E0380
1E0380
1E0380
1C0380
3C0380
FC03F0
F803F0
F003F0
000070
000070
0000F0
0000E0
0001E0
0000C0
ENDCHAR
STARTCHAR uni04C7
ENCODING 1223
SWIDTH 711 0
DWIDTH 26 0
BBX 20 33 3 -7
BITMAP
F000F0
F000F0
F000F0
F000F0
F000F0
F000F0
F000F0
F000F0
F000F0
F000F0
F000F0
FFFFF0
FFFFF0
FFFFF0
F000F0
F000F0
F000F0
F000F0
F000F0
F000F0
F000F0
F000F0
F000F0
F000F0
F000F0
F000F0
0000F0
0000F0
0000F0
0001E0
000FE0
000FC0
000F80
ENDCHAR
STARTCHAR uni04C8
ENCODING 1224
SWIDTH 566 0
DWIDTH 20 0
BBX 16 26 2 -7
BITMAP
F00F
F00F
F00F
F00F
F00F
F00F
F00F
F00F
FFFF
FFFF
FFFF
F00F
F00F
F00F
F00F
F00F
F00F
F00F
F00F
000F
000F
000F
001E
00FE
00FC
00F8
ENDCHAR
STARTCHAR uni04C9
ENCODING 1225
SWIDTH 758 0
DWIDTH 27 0
BBX 23 32 3 -6
BITMAP
E000F0
E000F0
E000F0
E000F0
E000F0
E000F0
E000F0
E000F0
E000F0
E000F0
E000F0
FFFFF0
FFFFF0
FFFFF0
E000F0
E000F0
E000F0
E000F0
E000F0
E000F0
E000F0
E000F0
E000F0
E000FE
E000FE
E000FE
00000E
00001E
00001C
00001C
000038
000010
ENDCHAR
STARTCHAR uni04CA
ENCODING 1226
SWIDTH 615 0
DWIDTH 22 0
BBX 18 25 3 -6
BITMAP
E00E00
E00E00
E00E00
E00E00
E00E00
E00E00
E00E00
E00E00
FFFE00
FFFE00
FFFE00
E00E00
E00E00
E00E00
E00E00
E00E00
E00FC0
E00FC0
E00FC0
0001C0
0001C0
0003C0
000380
000780
000300
ENDCHAR
STARTCHAR uni04CB
ENCODING 1227
SWIDTH 684 0
DWIDTH 25 0
BBX 19 32 3 -6
BITMAP
E001E0
E001E0
E001E0
E001E0
E001E0
E001E0
E001E0
E001E0
E001E0
E001E0
F001E0
F001E0
7C07E0
7FFFE0
3FFFE0
07FDE0
0001E0
0001E0
0001E0
0001E0
0001E0
0001E0
0001E0
000FE0
000FE0
000FE0
000F00
000F00
000F00
000F00
000F00
000F00
ENDCHAR
STARTCHAR uni04CC
ENCODING 1228
SWIDTH 543 0
DWIDTH 20 0
BBX 15 25 2 -6
BITMAP
E00E
E00E
E00E
E00E
E00E
E00E
E00E
F00E
F00E
781E
7FFE
3FFE
0FFE
000E
000E
000E
007E
007E
007E
0070
0070
0070
0070
0070
0070
ENDCHAR
STARTCHAR uni04CD
ENCODING 1229
SWIDTH 913 0
DWIDTH 33 0
BBX 28 32 3 -6
BITMAP
F8000780
F8000F80
F8000F80
FC000F80
FC001F80
FE001F80
EE003F80
EE003B80
EF003B80
E7007B80
E7007380
E3807380
E380E380
E3C0E380
E1C1E380
E1C1C380
E0E1C380
E0E38380
E0F38380
E0778380
E0770380
E03F0380
E03E0380
E03E03F0
E01E03F0
E01C03F0
00000070
00000070
00000070
000000E0
000000E0
00000140
ENDCHAR
STARTCHAR uni04CE
ENCODING 1230
SWIDTH 780 0
DWIDTH 28 0
BBX 24 25 3 -6
BITMAP
F00078
F800F8
F800F8
FC01F8
FC01F8
FC03F8
EE03B8
EE03B8
E70738
E70738
E38E38
E38E38
E39C38
E1DC38
E1FC38
E0F838
E0F83F
E0703F
E0703F
000007
000007
00000F
00000E
00001C
00000C
ENDCHAR
STARTCHAR uni04CF
ENCODING 1231
SWIDTH 271 0
DWIDTH 10 0
BBX 4 26 3 0
BITMAP
F0
F0
F0
F0
F0
F0
F0
F0
F0
F0
F0
F0
F0
F0
F0
F0
F0
F0
F0
F0
F0
F0
F0
F0
F0
F0
ENDCHAR
STARTCHAR uni04D0
ENCODING 1232
SWIDTH 652 0
DWIDTH 23 0
BBX 23 32 0 0
BITMAP
038380
018380
01C700
00FF00
007C00
000000
003800
007C00
007C00
007C00
00EE00
00EE00
00EE00
01C700
01C700
03C780
038380
038380
0701C0
0701C0
0701C0
0E00E0
0FFFE0
1FFFF0
1FFFF0
1C0070
3C0078
380038
380038
78003C
70001C
F0001E
ENDCHAR
STARTCHAR uni04D1
ENCODING 1233
SWIDTH 543 0
DWIDTH 20 0
BBX 16 27 2 0
BITMAP
1818
1C38
1C38
0FF0
07C0
0000
0000
0000
07E0
1FF8
3FFC
7C3E
701E
700E
000E
000E
07FE
3FFE
7FFE
780E
F00E
E00E
F01E
F83E
7FFE
3FEE
0F8F
ENDCHAR
STARTCHAR uni04D2
ENCODING 1234
SWIDTH 652 0
DWIDTH 23 0
BBX 23 32 0 0
BITMAP
018380
03C3C0
03C3C0
018380
000000
000000
003800
007C00
007C00
007C00
00EE00
00EE00
00EE00
01C700
01C700
03C780
038380
038380
0701C0
0701C0
0701C0
0E00E0
0FFFE0
1FFFF0
1FFFF0
1C0070
3C0078
380038
380038
78003C
70001C
F0001E
ENDCHAR
STARTCHAR uni04D3
ENCODING 1235
SWIDTH 543 0
DWIDTH 20 0
BBX 16 26 2 0
BITMAP
1C18
1C3C
1C3C
1C18
0000
0000
0000
07E0
1FF8
3FFC
7C3E
701E
700E
000E
000E
07FE
3FFE
7FFE
780E
F00E
E00E
F01E
F83E
7FFE
3FEE
0F8F
ENDCHAR
STARTCHAR uni04D4
ENCODING 1236
SWIDTH 934 0
DWIDTH 34 0
BBX 33 26 0 0
BITMAP
0001FFFF00
0003FFFF00
0003FFFF00
0007F00000
0007700000
000E700000
001E700000
001C700000
003C700000
0038700000
0078700000
00F07FFE00
00F07FFE00
01E07FFE00
01E0700000
03C0700000
0780700000
07FFF00000
0FFFF00000
0FFFF00000
1E00780000
3C00780000
3C00780000
78007FFF80
78007FFF80
F0007FFF80
ENDCHAR
STARTCHAR uni04D5
ENCODING 1237
SWIDTH 844 0
DWIDTH 30 0
BBX 28 19 1 0
BITMAP
07E07E00
1FF8FF80
3FFFFFC0
7C3FC1E0
701F80E0
700F00F0
000F0070
000E0070
0FFFFFF0
3FFFFFF0
7FFFFFF0
780E0000
F00E0000
E00F0000
F00F8000
F83FC0E0
7FFFFFE0
3FF0FFF0
1FC03F80
ENDCHAR
STARTCHAR uni04D6
ENCODING 1238
SWIDTH 568 0
DWIDTH 20 0
BBX 16 33 3 0
BITMAP
3838
1838
1C70
0FF0
07C0
0000
0000
FFFF
FFFF
FFFF
E000
E000
E000
E000
E000
E000
E000
E000
FFFC
FFFC
FFFC
E000
E000
E000
E000
E000
E000
E000
E000
E000
FFFF
FFFF
FFFF
ENDCHAR
STARTCHAR uni04D7
ENCODING 1239
SWIDTH 529 0
DWIDTH 19 0
BBX 16 27 2 0
BITMAP
3838
1838
1C70
0FF0
07C0
0000
0000
0000
07E0
1FF8
3FFC
7C3C
701E
F00E
E00E
E00F
FFFF
FFFF
FFFF
E000
E000
F000
7004
7C1E
3FFE
1FF8
07F0
ENDCHAR
STARTCHAR uni04D8
ENCODING 1240
SWIDTH 690 0
DWIDTH 25 0
BBX 21 26 2 0
BITMAP
07F800
1FFF00
3FFF80
1C0FC0
0003E0
0001E0
0000F0
000070
000070
000078
000078
000078
FFFFF8
FFFFF8
FFFFF8
E00078
E00078
E00070
E00070
F000F0
7001E0
7801E0
3E07C0
1FFF80
0FFF00
01FC00
ENDCHAR
STARTCHAR uni04D9
ENCODING 1241
SWIDTH 526 0
DWIDTH 19 0
BBX 16 19 2 0
BITMAP
1FC0
7FF0
FFF8
707C
001E
001E
000E
000E
000F
FFFF
FFFF
FFFE
E00E
E00E
F01E
783C
7FF8
3FF0
0FC0
ENDCHAR
STARTCHAR uni04DA
ENCODING 1242
SWIDTH 690 0
DWIDTH 25 0
BBX 21 32 2 0
BITMAP
0E0C00
0E1E00
1E1E00
0E0C00
000000
000000
07F800
1FFF00
3FFF80
1C0FC0
0003E0
0001E0
0000F0
000070
000070
000078
000078
000078
FFFFF8
FFFFF8
FFFFF8
E00078
E00078
E00070
E00070
F000F0
7001E0
7801E0
3E07C0
1FFF80
0FFF00
01FC00
ENDCHAR
STARTCHAR uni04DB
ENCODING 1243
SWIDTH 526 0
DWIDTH 19 0
BBX 16 26 2 0
BITMAP
1838
3C3C
3C3C
1838
0000
0000
0000
1FC0
7FF0
FFF8
707C
001E
001E
000E
000E
000F
FFFF
FFFF
FFFE
E00E
E00E
F01E
783C
7FF8
3FF0
0FC0
ENDCHAR
STARTCHAR uni04DC
ENCODING 1244
SWIDTH 907 0
DWIDTH 33 0
BBX 32 32 0 0
BITMAP
001C1800
001E3C00
001E3C00
001C1C00
00000000
00000000
7801C01F
3C01C01E
1E01C03C
1E01C03C
0F01C078
0F01C070
0781C0F0
0381C0E0
03C1C1E0
01E1C3C0
00E1C380
00F1C780
007FFF00
007FFF00
00FFFF80
01F1C780
01E1C3C0
03C1C1E0
07C1C1E0
0781C0F0
0F01C078
1F01C078
1E01C03C
3C01C01E
7C01C01E
F801C00F
ENDCHAR
STARTCHAR uni04DD
ENCODING 1245
SWIDTH 765 0
DWIDTH 28 0
BBX 27 26 0 0
BITMAP
0060E000
00F0E000
00F0E000
0060E000
00000000
00000000
00000000
780E03C0
3C0E0380
1C0E0780
1E0E0F00
0F0E0E00
070E1E00
078E3C00
03CE3C00
01FFF800
01FFF000
03FFF800
038E3C00
078E1C00
0F0E1E00
0F0E0F00
1E0E0780
3C0E0780
7C0E03C0
F80E01E0
ENDCHAR
STARTCHAR uni04DE
ENCODING 1246
SWIDTH 593 0
DWIDTH 21 0
BBX 19 32 1 0
BITMAP
060E00
0F0E00
0F0E00
060E00
000000
000000
03F800
0FFE00
3FFF80
3E0F80
7803C0
7001C0
7001C0
0001C0
0001C0
0003C0
000780
01FF00
01FC00
01FF00
000780
0003C0
0001C0
0001E0
0001E0
F001E0
F001C0
7803C0
7E0F80
3FFF80
1FFE00
03F800
ENDCHAR
STARTCHAR uni04DF
ENCODING 1247
SWIDTH 507 0
DWIDTH 18 0
BBX 15 26 1 0
BITMAP
1C18
3C3C
3C3C
1C18
0000
0000
0000
07E0
1FF8
3FFC
7C3E
700E
000E
000E
001C
07FC
07F0
07FC
001E
000E
F00E
700E
781E
3FFC
1FF8
07F0
ENDCHAR
STARTCHAR uni04E0
ENCODING 1248
SWIDTH 582 0
DWIDTH 21 0
BBX 17 26 2 0
BITMAP
7FFF00
7FFF00
7FFF00
000E00
001C00
003800
007800
00F000
01E000
03C000
038000
07F000
07FC00
07FE00
001F00
000F00
000780
000780
000780
E00780
F00780
F00F00
7C1F00
3FFE00
1FFC00
07F000
ENDCHAR
STARTCHAR uni04E1
ENCODING 1249
SWIDTH 582 0
DWIDTH 21 0
BBX 17 26 2 -7
BITMAP
7FFF00
7FFF00
7FFF00
001E00
003C00
003800
007800
00F000
01E000
03C000
078000
07F000
07FC00
001E00
000F00
000700
000700
000780
000780
E00780
F00780
F00F00
7C1F00
3FFE00
1FFC00
07F000
ENDCHAR
STARTCHAR uni04E2
ENCODING 1250
SWIDTH 712 0
DWIDTH 26 0
BBX 19 31 3 0
BITMAP
0FFF00
0FFF00
0FFF00
000000
000000
F000E0
F001E0
F001E0
F003E0
F007E0
F007E0
F00FE0
F01EE0
F01EE0
F03CE0
F078E0
F078E0
F0F0E0
F0E0E0
F1E0E0
F3C0E0
F3C0E0
F780E0
FF00E0
FF00E0
FE00E0
FC00E0
FC00E0
F800E0
F000E0
F000E0
ENDCHAR
STARTCHAR uni04E3
ENCODING 1251
SWIDTH 577 0
DWIDTH 21 0
BBX 15 25 3 0
BITMAP
7FF8
7FF8
7FF8
0000
0000
0000
E01E
E01E
E03E
E03E
E07E
E0FE
E0EE
E1CE
E3CE
E38E
E70E
EF0E
EE0E
FC0E
FC0E
F80E
F80E
F00E
E00E
ENDCHAR
STARTCHAR uni04E4
ENCODING 1252
SWIDTH 712 0
DWIDTH 26 0
BBX 19 32 3 0
BITMAP
070E00
0F0F00
0F0F00
070E00
000000
000000
F000E0
F001E0
F001E0
F003E0
F007E0
F007E0
F00FE0
F01EE0
F01EE0
F03CE0
F078E0
F078E0
F0F0E0
F0E0E0
F1E0E0
F3C0E0
F3C0E0
F780E0
FF00E0
FF00E0
FE00E0
FC00E0
FC00E0
F800E0
F000E0
F000E0
ENDCHAR
STARTCHAR uni04E5
ENCODING 1253
SWIDTH 577 0
DWIDTH 21 0
BBX 15 26 3 0
BITMAP
3830
3C78
3C78
3838
0000
0000
0000
E01E
E01E
E03E
E03E
E07E
E0FE
E0EE
E1CE
E3CE
E38E
E70E
EF0E
EE0E
FC0E
FC0E
F80E
F80E
F00E
E00E
ENDCHAR
STARTCHAR uni04E6
ENCODING 1254
SWIDTH 687 0
DWIDTH 25 0
BBX 21 32 2 0
BITMAP
070700
078F00
078F00
070700
000000
000000
01FC00
07FF00
0FFF80
1F07C0
3C01E0
7800E0
7800F0
700070
F00070
F00070
F00078
E00078
E00078
E00078
E00078
F00078
F00070
F00070
700070
7800F0
7800E0
3C01E0
1F07C0
0FFF80
07FF00
01FC00
ENDCHAR
STARTCHAR uni04E7
ENCODING 1255
SWIDTH 570 0
DWIDTH 21 0
BBX 17 26 2 0
BITMAP
1C1800
3C3C00
3C3C00
1C1800
000000
000000
000000
07E000
1FFC00
3FFE00
7C1E00
780F00
F00780
F00780
E00380
E00380
E00380
E00380
E00380
F00780
F00780
780F00
7C1E00
3FFE00
1FFC00
07F000
ENDCHAR
STARTCHAR uni04E8
ENCODING 1256
SWIDTH 680 0
DWIDTH 24 0
BBX 20 26 2 0
BITMAP
01F800
0FFE00
1FFF80
3E0FC0
3C03C0
7801E0
7000E0
F000F0
E000F0
E00070
E00070
E00070
FFFFF0
FFFFF0
FFFFF0
E00070
E00070
E000F0
F000F0
7000E0
7801E0
3C03C0
3E07C0
1FFF80
0FFE00
01F800
ENDCHAR
STARTCHAR uni04E9
ENCODING 1257
SWIDTH 567 0
DWIDTH 20 0
BBX 18 19 1 0
BITMAP
03F000
0FFC00
1FFE00
3E1F00
780780
780380
700380
F003C0
FFFFC0
FFFFC0
FFFFC0
7003C0
700380
700380
780780
3E1F00
1FFE00
0FFC00
03F000
ENDCHAR
STARTCHAR uni04EA
ENCODING 1258
SWIDTH 680 0
DWIDTH 24 0
BBX 20 32 2 0
BITMAP
030700
078700
078700
030700
000000
000000
01F800
0FFE00
1FFF80
3E0FC0
3C03C0
7801E0
7000E0
F000F0
E000F0
E00070
E00070
E00070
FFFFF0
FFFFF0
FFFFF0
E00070
E00070
E000F0
F000F0
7000E0
7801E0
3C03C0
3E07C0
1FFF80
0FFE00
01F800
ENDCHAR
STARTCHAR uni04EB
ENCODING 1259
SWIDTH 567 0
DWIDTH 20 0
BBX 18 26 1 0
BITMAP
0C1C00
1E1E00
1E1E00
0C1C00
000000
000000
000000
03F000
0FFC00
1FFE00
3E1F00
780780
780380
700380
F003C0
FFFFC0
FFFFC0
FFFFC0
7003C0
700380
700380
780780
3E1F00
1FFE00
0FFC00
03F000
ENDCHAR
STARTCHAR uni04EC
ENCODING 1260
SWIDTH 673 0
DWIDTH 24 0
BBX 20 32 2 0
BITMAP
070600
070F00
070F00
070600
000000
000000
03F800
0FFE00
1FFF80
3E07C0
3C03C0
7801E0
7000E0
7000F0
F00070
000070
000070
01FFF0
01FFF0
01FFF0
000070
000070
000070
0000F0
F000F0
7000E0
7801E0
3C03C0
3E07C0
1FFF80
0FFE00
01F800
ENDCHAR
STARTCHAR uni04ED
ENCODING 1261
SWIDTH 537 0
DWIDTH 19 0
BBX 15 26 2 0
BITMAP
1838
3C38
3C38
1838
0000
0000
0000
0FC0
3FF0
7FF8
F87C
E03C
E01E
000E
000E
07FE
07FE
07FE
000E
E00E
E01E
E01C
F87C
7FF8
3FF0
0FC0
ENDCHAR
STARTCHAR uni04EE
ENCODING 1262
SWIDTH 628 0
DWIDTH 23 0
BBX 20 31 2 0
BITMAP
1FFE00
1FFE00
1FFE00
000000
000000
F000F0
F001E0
7001E0
7803C0
3803C0
3C0380
1C0780
1E0780
1E0F00
0F0F00
0F0E00
071E00
079C00
03BC00
03FC00
01F800
01F800
00F000
00F000
00E000
00E000
01E000
03C000
1FC000
1F8000
1E0000
ENDCHAR
STARTCHAR uni04EF
ENCODING 1263
SWIDTH 473 0
DWIDTH 17 0
BBX 17 32 0 -7
BITMAP
1FFE00
1FFE00
1FFE00
000000
000000
000000
F00780
700700
780F00
380E00
380E00
3C1E00
1C1C00
1C1C00
1E3C00
0E3800
0F3800
077000
077000
07F000
03E000
03E000
03E000
01C000
01C000
01C000
038000
038000
070000
7F0000
7E0000
7C0000
ENDCHAR
STARTCHAR uni04F0
ENCODING 1264
SWIDTH 628 0
DWIDTH 23 0
BBX 20 32 2 0
BITMAP
0E0E00
0E1E00
0F1E00
0E0E00
000000
000000
F000F0
F001E0
7001E0
7803C0
3803C0
3C0380
1C0780
1E0780
1E0F00
0F0F00
0F0E00
071E00
079C00
03BC00
03FC00
01F800
01F800
00F000
00F000
00E000
00E000
01E000
03C000
1FC000
1F8000
1E0000
ENDCHAR
STARTCHAR uni04F1
ENCODING 1265
SWIDTH 473 0
DWIDTH 17 0
BBX 17 33 0 -7
BITMAP
0E1C00
1E1E00
1E1E00
0E1C00
000000
000000
000000
F00780
700700
780F00
380E00
380E00
3C1E00
1C1C00
1C1C00
1E3C00
0E3800
0F3800
077000
077000
07F000
03E000
03E000
03E000
01C000
01C000
01C000
038000
038000
070000
7F0000
7E0000
7C0000
ENDCHAR
STARTCHAR uni04F2
ENCODING 1266
SWIDTH 628 0
DWIDTH 23 0
BBX 20 33 2 0
BITMAP
00E3C0
01C700
03CE00
039C00
073800
000000
000000
F000F0
F001E0
7001E0
7803C0
3803C0
3C0380
1C0780
1E0780
1E0F00
0F0F00
0F0E00
071E00
079C00
03BC00
03FC00
01F800
01F800
00F000
00F000
00E000
00E000
01E000
03C000
1FC000
1F8000
1E0000
ENDCHAR
STARTCHAR uni04F3
ENCODING 1267
SWIDTH 473 0
DWIDTH 17 0
BBX 17 33 0 -7
BITMAP
01E780
01CF00
039E00
073C00
077800
000000
000000
F00780
700700
780F00
380E00
380E00
3C1E00
1C1C00
1C1C00
1E3C00
0E3800
0F3800
077000
077000
07F000
03E000
03E000
03E000
01C000
01C000
01C000
038000
038000
070000
7F0000
7E0000
7C0000
ENDCHAR
STARTCHAR uni04F4
ENCODING 1268
SWIDTH 684 0
DWIDTH 25 0
BBX 19 32 3 0
BITMAP
0E0C00
1E1E00
1E1E00
0E0C00
000000
000000
E001E0
E001E0
E001E0
E001E0
E001E0
E001E0
E001E0
E001E0
E001E0
E001E0
F001E0
F001E0
7C07E0
7FFFE0
3FFFE0
07FDE0
0001E0
0001E0
0001E0
0001E0
0001E0
0001E0
0001E0
0001E0
0001E0
0001E0
ENDCHAR
STARTCHAR uni04F5
ENCODING 1269
SWIDTH 543 0
DWIDTH 20 0
BBX 15 26 2 0
BITMAP
3830
3878
3878
3830
0000
0000
0000
E00E
E00E
E00E
E00E
E00E
E00E
E00E
F00E
F00E
781E
7FFE
3FFE
0FFE
000E
000E
000E
000E
000E
000E
ENDCHAR
STARTCHAR uni04F6
ENCODING 1270
SWIDTH 556 0
DWIDTH 20 0
BBX 16 32 3 -6
BITMAP
FFFF
FFFF
FFFF
F000
F000
F000
F000
F000
F000
F000
F000
F000
F000
F000
F000
F000
F000
F000
F000
F000
F000
F000
F000
FC00
FC00
FC00
1C00
1C00
1C00
1C00
1C00
1C00
ENDCHAR
STARTCHAR uni04F7
ENCODING 1271
SWIDTH 419 0
DWIDTH 15 0
BBX 12 25 3 -6
BITMAP
FFF0
FFF0
FFF0
E000
E000
E000
E000
E000
E000
E000
E000
E000
E000
E000
E000
E000
FC00
FC00
FC00
1C00
1C00
1C00
1C00
1C00
1C00
ENDCHAR
STARTCHAR uni04F8
ENCODING 1272
SWIDTH 864 0
DWIDTH 31 0
BBX 25 32 3 0
BITMAP
00C1C000
01E1C000
01E1C000
00C1C000
00000000
00000000
F0000780
F0000780
F0000780
F0000780
F0000780
F0000780
F0000780
F0000780
F0000780
F0000780
F0000780
FFFC0780
FFFF0780
FFFF8780
F007C780
F003C780
F001C780
F001E780
F001E780
F001E780
F001C780
F003C780
F0078780
FFFF8780
FFFF0780
FFFC0780
ENDCHAR
STARTCHAR uni04F9
ENCODING 1273
SWIDTH 776 0
DWIDTH 28 0
BBX 22 26 3 0
BITMAP
030700
078780
078780
030700
000000
000000
000000
E0003C
E0003C
E0003C
E0003C
E0003C
E0003C
E0003C
FFE03C
FFF83C
FFFC3C
E03E3C
E01E3C
E00E3C
E00E3C
E00E3C
E03E3C
FFFC3C
FFF83C
FFE03C
ENDCHAR
STARTCHAR uni04FA
ENCODING 1274
SWIDTH 589 0
DWIDTH 21 0
BBX 19 33 1 -7
BITMAP
1FFFE0
1FFFE0
1FFFE0
1E0000
1E0000
1E0000
1E0000
1E0000
1E0000
1E0000
1E0000
FFE000
FFE000
FFE000
1E0000
1E0000
1E0000
1E0000
1E0000
1E0000
1E0000
1E0000
1E0000
1FC000
1FC000
1FC000
03C000
03C000
038000
078000
3F8000
3F0000
3E0000
ENDCHAR
STARTCHAR uni04FB
ENCODING 1275
SWIDTH 458 0
DWIDTH 17 0
BBX 15 26 1 -7
BITMAP
1FFE
1FFE
1FFE
1C00
1C00
1C00
1C00
FFE0
FFE0
FFE0
1C00
1C00
1C00
1C00
1C00
1C00
1F80
1F80
1F80
0380
0380
0380
0780
3F80
3F00
3C00
ENDCHAR
STARTCHAR uni04FC
ENCODING 1276
SWIDTH 647 0
DWIDTH 23 0
BBX 22 33 1 -7
BITMAP
F000F0
7800E0
3C01E0
3C03C0
1E03C0
0F0780
0F0F00
078F00
039E00
03DC00
01FC00
01F800
00F800
00F800
01F800
01FC00
03DE00
079E00
078F00
0F0780
1E0780
1E03C0
3C03C0
3C01FC
7800FC
F000FC
00003C
00003C
00003C
000038
0003F8
0003F0
0003E0
ENDCHAR
STARTCHAR uni04FD
ENCODING 1277
SWIDTH 531 0
DWIDTH 19 0
BBX 18 26 1 -7
BITMAP
F00F00
781E00
381C00
3C3C00
1C7800
0E7000
0FF000
07E000
03C000
03C000
07C000
07E000
0FF000
1E7000
1C7800
3C3C00
781FC0
701FC0
F00FC0
0003C0
000380
000380
000780
003F80
003F00
003C00
ENDCHAR
STARTCHAR uni04FE
ENCODING 1278
SWIDTH 626 0
DWIDTH 23 0
BBX 21 26 1 0
BITMAP
F000F0
7800E0
3C01E0
3C03C0
1E03C0
0F0780
0F0F00
078F00
039E00
03DC00
01FC00
07FF00
07FF00
07FF00
01F800
01FC00
03DE00
079E00
078F00
0F0780
1E0780
1E03C0
3C03C0
3C01E0
7800F0
F000F8
ENDCHAR
STARTCHAR uni04FF
ENCODING 1279
SWIDTH 495 0
DWIDTH 18 0
BBX 16 19 1 0
BITMAP
F00F
781E
381C
3C3C
1C78
0E70
0FF0
07E0
3FFC
3FFC
3FFC
07E0
0FE0
0E70
1C78
3C3C
781C
701E
F00F
ENDCHAR
STARTCHAR uni0500
ENCODING 1280
SWIDTH 620 0
DWIDTH 22 0
BBX 19 26 1 0
BITMAP
0001E0
0001E0
0001E0
0001E0
0001E0
0001E0
0001E0
0001E0
0001E0
0001E0
03FFE0
1FFFE0
3FFFE0
3C01E0
7801E0
7001E0
F001E0
F001E0
F001E0
F001E0
7001E0
7801E0
3E01E0
3FFFE0
0FFFE0
03FFE0
ENDCHAR
STARTCHAR uni0501
ENCODING 1281
SWIDTH 563 0
DWIDTH 20 0
BBX 16 27 2 0
BITMAP
000F
000F
000F
000F
000F
000F
000F
000F
0FCF
1FFF
3FFF
7C3F
F00F
F00F
E00F
E00F
E00F
E00F
E00F
E00F
E00F
F00F
F00F
7C3F
3FFF
1FFF
0FC7
ENDCHAR
STARTCHAR uni0502
ENCODING 1282
SWIDTH 822 0
DWIDTH 30 0
BBX 27 26 2 0
BITMAP
0001C000
0001C000
0001C000
0001C000
0001C000
0001C000
0001C000
0001C000
0001C000
0001C000
07FFC000
1FFFC000
3FFFC1C0
7C01C1C0
F001C1C0
F001C1E0
E001C0E0
E001C0E0
E001C0E0
E001C1E0
F001C1E0
F801C1C0
7C01C3C0
3FFFFF80
1FFFFF00
07FFFC00
ENDCHAR
STARTCHAR uni0503
ENCODING 1283
SWIDTH 861 0
DWIDTH 31 0
BBX 27 27 2 0
BITMAP
000F0000
000F0000
000F0000
000F0000
000F0000
000F0000
000F0000
000F0000
0FCF0000
1FFF0000
3FFF0000
7C3F01C0
780F01C0
F00F01C0
E00F01E0
E00F00E0
E00F00E0
E00F00E0
E00F00E0
E00F01E0
E00F01E0
F00F01C0
700F03C0
7C3F8780
3FFFFF80
1FF3FE00
0FC1F800
ENDCHAR
STARTCHAR uni0504
ENCODING 1284
SWIDTH 791 0
DWIDTH 29 0
BBX 25 26 1 0
BITMAP
FFC00000
FFF00000
FFFC0000
007C0000
001E0000
001E0000
000E0000
000E0000
000E0000
001E0700
001E0780
007C0380
0FF80380
0FE00380
0FF80380
007C0380
001E0380
001E0380
000E0380
000E0380
000E0780
000E0700
000F1F00
000FFE00
0007FC00
0001F000
ENDCHAR
STARTCHAR uni0505
ENCODING 1285
SWIDTH 645 0
DWIDTH 23 0
BBX 21 19 1 0
BITMAP
FF0000
FFC000
FFE000
01E000
00F000
007000
007070
00F070
01E078
7FC038
7F8038
7FE038
01F038
00F078
007070
0070F0
007FE0
007FC0
003F80
ENDCHAR
STARTCHAR uni0506
ENCODING 1286
SWIDTH 535 0
DWIDTH 19 0
BBX 17 31 1 -5
BITMAP
FF8000
FFE000
FFF000
00F800
003800
003C00
003C00
001C00
003C00
003800
003800
00F000
3FE000
3FC000
3FF000
00F800
007800
003C00
003C00
003C00
003C00
003C00
003F80
001F80
001F80
001F80
000700
000700
000700
000E00
000400
ENDCHAR
STARTCHAR uni0507
ENCODING 1287
SWIDTH 503 0
DWIDTH 18 0
BBX 15 25 2 -6
BITMAP
FF80
FFE0
FFE0
00F0
0070
0078
0078
0070
00F0
7FE0
7FC0
7FE0
00F0
0070
0078
0078
007E
007E
003E
000E
000E
001E
001C
003C
0018
ENDCHAR
STARTCHAR uni0508
ENCODING 1288
SWIDTH 969 0
DWIDTH 35 0
BBX 33 26 1 0
BITMAP
03FFF80000
03FFF80000
03FFF80000
0380380000
0380380000
0380380000
0380380000
0380380000
0380380000
0380380E00
0380380F00
0780380700
0780380700
0780380700
0780380700
0780380700
0700380780
0700380700
0700380700
0700380700
0F00380F00
0F003C1E00
1E003C3E00
FE001FFC00
FC001FF800
F00007E000
ENDCHAR
STARTCHAR uni0509
ENCODING 1289
SWIDTH 807 0
DWIDTH 29 0
BBX 27 19 1 0
BITMAP
0FFF8000
0FFF8000
0FFF8000
0F078000
0F0781C0
0E0781C0
0E0781C0
0E0781E0
0E0780E0
0E0780E0
0E0780E0
0E0780E0
0E0781E0
1E0781E0
1E0781C0
3C03C7C0
FC03FF80
F801FF00
F000FC00
ENDCHAR
STARTCHAR uni050A
ENCODING 1290
SWIDTH 997 0
DWIDTH 36 0
BBX 31 26 3 0
BITMAP
E000E000
E000E000
E000E000
E000E000
E000E000
E000E000
E000E000
E000E000
E000E000
E000E038
E000E03C
FFFFE01C
FFFFE01C
FFFFE01C
E000E01C
E000E01C
E000E01E
E000E01C
E000E01C
E000E01C
E000E03C
E000F078
E000F0F8
E0007FF0
E0003FE0
E0001F80
ENDCHAR
STARTCHAR uni050B
ENCODING 1291
SWIDTH 828 0
DWIDTH 30 0
BBX 25 19 3 0
BITMAP
E00E0000
E00E0000
E00E0000
E00E0000
E00E0700
E00E0380
E00E0380
E00E0380
FFFE0380
FFFE0380
FFFE0380
E00E0380
E00E0380
E00E0780
E00E0780
E00F0F00
E007FE00
E007FC00
E001F800
ENDCHAR
STARTCHAR uni050C
ENCODING 1292
SWIDTH 620 0
DWIDTH 22 0
BBX 19 26 2 0
BITMAP
01FC00
07FF00
1FFF00
3F0700
3C0000
780000
700000
F00000
F00000
E00000
E00000
E00000
E003C0
E001C0
E001C0
E001C0
E001E0
F001E0
F001E0
7001E0
7801C0
3C03C0
3F0780
1FFF80
07FE00
01F800
ENDCHAR
STARTCHAR uni050D
ENCODING 1293
SWIDTH 514 0
DWIDTH 19 0
BBX 15 19 2 0
BITMAP
07F0
0FF8
3FF8
3C18
7800
7000
F000
E000
E000
E000
E00E
E00E
F00E
700E
780E
3C1E
1FFC
0FFC
07F0
ENDCHAR
STARTCHAR uni050E
ENCODING 1294
SWIDTH 709 0
DWIDTH 26 0
BBX 23 26 1 0
BITMAP
FFFFF0
FFFFF0
FFFFF0
00F000
00F000
00F000
00F000
00F000
00F000
00F03C
00F01C
00F01C
00F01E
00F01E
00F01E
00F00E
00F00E
00F01E
00F01E
00F01E
00F01C
00F03C
007878
007FF0
003FE0
000FC0
ENDCHAR
STARTCHAR uni050F
ENCODING 1295
SWIDTH 640 0
DWIDTH 23 0
BBX 20 19 1 0
BITMAP
FFFF00
FFFF00
FFFF00
03C000
03C000
03C000
03C0E0
03C0F0
03C070
03C070
03C070
03C070
03C070
01C0F0
01C0F0
01E1E0
01FFC0
00FF80
003F00
ENDCHAR
STARTCHAR uni0510
ENCODING 1296
SWIDTH 673 0
DWIDTH 24 0
BBX 20 26 2 0
BITMAP
03FC00
0FFF80
1FFFC0
3E07E0
7801E0
7800F0
700070
700000
780000
380000
3E0000
0FFC00
07FC00
1FFC00
3E0000
780000
700000
700000
F00000
700070
7000F0
7801F0
3E03E0
1FFFC0
0FFF80
03FC00
ENDCHAR
STARTCHAR uni0511
ENCODING 1297
SWIDTH 539 0
DWIDTH 19 0
BBX 15 19 2 0
BITMAP
0FE0
3FF8
7FFC
F83E
E00E
E000
E000
7800
3FE0
1FE0
7FE0
F000
E000
E00E
E00E
F83E
7FFC
3FF8
0FE0
ENDCHAR
STARTCHAR uni0512
ENCODING 1298
SWIDTH 750 0
DWIDTH 27 0
BBX 25 33 1 -7
BITMAP
07FFF800
07FFF800
07FFF800
07803800
07803800
07803800
07003800
07003800
07003800
07003800
07003800
07003800
07003800
07003800
07003800
07003800
07003800
0F003800
0F003800
0E003800
0E003800
1E003800
3E003800
FC003F80
F8003F80
F0003F80
00000780
00000780
00000700
00000F00
00007F00
00007E00
00007C00
ENDCHAR
STARTCHAR uni0513
ENCODING 1299
SWIDTH 618 0
DWIDTH 22 0
BBX 20 26 1 -7
BITMAP
0FFF80
0FFF80
0FFF80
0E0380
0E0380
0E0380
0E0380
0E0380
0E0380
0E0380
0E0380
0E0380
1E0380
1E0380
1C0380
3C0380
FC03F0
F803F0
F003F0
000070
000070
000070
0000F0
0007F0
0007E0
000780
ENDCHAR
STARTCHAR uni1E00
ENCODING 7680
SWIDTH 652 0
DWIDTH 23 0
BBX 23 33 0 -7
BITMAP
003800
007C00
007C00
007C00
00EE00
00EE00
00EE00
01C700
01C700
03C780
038380
038380
0701C0
0701C0
0701C0
0E00E0
0FFFE0
1FFFF0
1FFFF0
1C0070
3C0078
380038
380038
78003C
70001C
F0001E
000000
003C00
007E00
006600
006600
007E00
003C00
ENDCHAR
STARTCHAR uni1E01
ENCODING 7681
SWIDTH 543 0
DWIDTH 20 0
BBX 16 26 2 -7
BITMAP
07E0
1FF8
3FFC
7C3E
701E
700E
000E
000E
07FE
3FFE
7FFE
780E
F00E
E00E
F01E
F83E
7FFE
3FEE
0F8F
0000
0700
0F80
08C0
08C0
0F80
0780
ENDCHAR
STARTCHAR uni1E3E
ENCODING 7742
SWIDTH 873 0
DWIDTH 31 0
BBX 25 33 3 0
BITMAP
0003C000
00078000
000F0000
000E0000
001C0000
00000000
00000000
F8000780
F8000F80
F8000F80
FC000F80
FC001F80
FE001F80
EE003F80
EE003B80
EF003B80
E7007B80
E7007380
E3807380
E380E380
E3C0E380
E1C1E380
E1C1C380
E0E1C380
E0E38380
E0F38380
E0778380
E0770380
E03F0380
E03E0380
E03E0380
E01E0380
E01C0380
ENDCHAR
STARTCHAR uni1E3F
ENCODING 7743
SWIDTH 876 0
DWIDTH 32 0
BBX 26 26 3 0
BITMAP
0003E000
00078000
00070000
000E0000
001C0000
00000000
00000000
E3E07E00
EFF9FF80
FFFFFF80
F83F87C0
F01F01C0
E01E01C0
E01E01C0
E01E01C0
E01E01C0
E01E01C0
E01E01C0
E01E01C0
E01E01C0
E01E01C0
E01E01C0
E01E01C0
E01E01C0
E01E01C0
E01E01C0
ENDCHAR
STARTCHAR Wgrave
ENCODING 7808
SWIDTH 887 0
DWIDTH 32 0
BBX 30 33 1 0
BITMAP
003C0000
001E0000
000F0000
00070000
00038000
00000000
00000000
F003801C
F007803C
7007803C
7007C038
700FC038
780FC038
380FC078
380EE070
381CE070
3C1CE070
1C1C60F0
1C1C70E0
1C3870E0
1E3870E0
0E3838E0
0E7039C0
0E7039C0
0E7019C0
0F701DC0
07E01DC0
07E01F80
07E00F80
07C00F80
03C00F80
03C00F00
03C00700
ENDCHAR
STARTCHAR wgrave
ENCODING 7809
SWIDTH 751 0
DWIDTH 27 0
BBX 25 26 1 0
BITMAP
01E00000
00F00000
00780000
003C0000
001C0000
00000000
00000000
E01C0380
E01C0380
F03E0700
703E0700
703E0700
70760700
38770E00
38770E00
38E30E00
18E38C00
1CE39C00
1CC19C00
1DC1DC00
0FC1D800
0F80F800
0F80F800
0780F000
07007000
07007000
ENDCHAR
STARTCHAR Wacute
ENCODING 7810
SWIDTH 887 0
DWIDTH 32 0
BBX 30 33 1 0
BITMAP
0000F800
0000E000
0001C000
00038000
00078000
00000000
00000000
F003801C
F007803C
7007803C
7007C038
700FC038
780FC038
380FC078
380EE070
381CE070
3C1CE070
1C1C60F0
1C1C70E0
1C3870E0
1E3870E0
0E3838E0
0E7039C0
0E7039C0
0E7019C0
0F701DC0
07E01DC0
07E01F80
07E00F80
07C00F80
03C00F80
03C00F00
03C00700
ENDCHAR
STARTCHAR wacute
ENCODING 7811
SWIDTH 751 0
DWIDTH 27 0
BBX 25 26 1 0
BITMAP
0003C000
00078000
000F0000
001E0000
001C0000
00000000
00000000
E01C0380
E01C0380
F03E0700
703E0700
703E0700
70760700
38770E00
38770E00
38E30E00
18E38C00
1CE39C00
1CC19C00
1DC1DC00
0FC1D800
0F80F800
0F80F800
0780F000
07007000
07007000
ENDCHAR
STARTCHAR Wdieresis
ENCODING 7812
SWIDTH 887 0
DWIDTH 32 0
BBX 30 32 1 0
BITMAP
00383000
00387800
00387800
00383000
00000000
00000000
F003801C
F007803C
7007803C
7007C038
700FC038
780FC038
380FC078
380EE070
381CE070
3C1CE070
1C1C60F0
1C1C70E0
1C3870E0
1E3870E0
0E3838E0
0E7039C0
0E7039C0
0E7019C0
0F701DC0
07E01DC0
07E01F80
07E00F80
07C00F80
03C00F80
03C00F00
03C00700
ENDCHAR
STARTCHAR wdieresis
ENCODING 7813
SWIDTH 751 0
DWIDTH 27 0
BBX 25 26 1 0
BITMAP
01C1C000
01E3C000
01E3C000
01C1C000
00000000
00000000
00000000
E01C0380
E01C0380
F03E0700
703E0700
703E0700
70760700
38770E00
38770E00
38E30E00
18E38C00
1CE39C00
1CC19C00
1DC1DC00
0FC1D800
0F80F800
0F80F800
0780F000
07007000
07007000
ENDCHAR
STARTCHAR uni1EA0
ENCODING 7840
SWIDTH 652 0
DWIDTH 23 0
BBX 23 32 0 -6
BITMAP
003800
007C00
007C00
007C00
00EE00
00EE00
00EE00
01C700
01C700
03C780
038380
038380
0701C0
0701C0
0701C0
0E00E0
0FFFE0
1FFFF0
1FFFF0
1C0070
3C0078
380038
380038
78003C
70001C
F0001E
000000
000000
001800
003C00
003C00
001800
ENDCHAR
STARTCHAR uni1EA1
ENCODING 7841
SWIDTH 543 0
DWIDTH 20 0
BBX 16 25 2 -6
BITMAP
07E0
1FF8
3FFC
7C3E
701E
700E
000E
000E
07FE
3FFE
7FFE
780E
F00E
E00E
F01E
F83E
7FFE
3FEE
0F8F
0000
0000
0700
0780
0780
0700
ENDCHAR
STARTCHAR uni1EA2
ENCODING 7842
SWIDTH 652 0
DWIDTH 23 0
BBX 23 35 0 0
BITMAP
003C00
003E00
000700
000700
001E00
001C00
001800
000000
000000
003800
007C00
007C00
007C00
00EE00
00EE00
00EE00
01C700
01C700
03C780
038380
038380
0701C0
0701C0
0701C0
0E00E0
0FFFE0
1FFFF0
1FFFF0
1C0070
3C0078
380038
380038
78003C
70001C
F0001E
ENDCHAR
STARTCHAR uni1EA3
ENCODING 7843
SWIDTH 543 0
DWIDTH 20 0
BBX 16 29 2 0
BITMAP
01C0
01F0
0070
0030
01F0
01E0
0180
0000
0000
0000
07E0
1FF8
3FFC
7C3E
701E
700E
000E
000E
07FE
3FFE
7FFE
780E
F00E
E00E
F01E
F83E
7FFE
3FEE
0F8F
ENDCHAR
STARTCHAR uni1EA4
ENCODING 7844
SWIDTH 652 0
DWIDTH 23 0
BBX 23 35 0 0
BITMAP
00001E
00001C
000038
003C78
007E70
00EF00
03C780
0783C0
000000
003800
007C00
007C00
007C00
00EE00
00EE00
00EE00
01C700
01C700
03C780
038380
038380
0701C0
0701C0
0701C0
0E00E0
0FFFE0
1FFFF0
1FFFF0
1C0070
3C0078
380038
380038
78003C
70001C
F0001E
ENDCHAR
STARTCHAR uni1EA5
ENCODING 7845
SWIDTH 543 0
DWIDTH 20 0
BBX 19 29 2 0
BITMAP
0000E0
0001C0
0003C0
03C380
07E700
0F7000
1E3C00
3C1E00
000000
000000
07E000
1FF800
3FFC00
7C3E00
701E00
700E00
000E00
000E00
07FE00
3FFE00
7FFE00
780E00
F00E00
E00E00
F01E00
F83E00
7FFE00
3FEE00
0F8F00
ENDCHAR
STARTCHAR uni1EA6
ENCODING 7846
SWIDTH 652 0
DWIDTH 23 0
BBX 23 35 0 0
BITMAP
700000
380000
3C0000
1C3C00
0E7E00
00EF00
03C780
0783C0
000000
003800
007C00
007C00
007C00
00EE00
00EE00
00EE00
01C700
01C700
03C780
038380
038380
0701C0
0701C0
0701C0
0E00E0
0FFFE0
1FFFF0
1FFFF0
1C0070
3C0078
380038
380038
78003C
70001C
F0001E
ENDCHAR
STARTCHAR uni1EA7
ENCODING 7847
SWIDTH 543 0
DWIDTH 20 0
BBX 19 29 -1 0
BITMAP
F00000
700000
380000
187800
1CFC00
01EE00
03C700
0783C0
000000
000000
00FC00
03FF00
07FF80
0F87C0
0E03C0
0E01C0
0001C0
0001C0
00FFC0
07FFC0
0FFFC0
0F01C0
1E01C0
1C01C0
1E03C0
1F07C0
0FFFC0
07FDC0
01F1E0
ENDCHAR
STARTCHAR uni1EA8
ENCODING 7848
SWIDTH 652 0
DWIDTH 23 0
BBX 23 36 0 0
BITMAP
000070
0000F8
000018
000038
003C70
007E60
01E700
03C380
0781C0
000000
003800
007C00
007C00
007C00
00EE00
00EE00
00EE00
01C700
01C700
03C780
038380
038380
0701C0
0701C0
0701C0
0E00E0
0FFFE0
1FFFF0
1FFFF0
1C0070
3C0078
380038
380038
78003C
70001C
F0001E
ENDCHAR
STARTCHAR uni1EA9
ENCODING 7849
SWIDTH 543 0
DWIDTH 20 0
BBX 18 30 2 0
BITMAP
000700
000780
0001C0
000180
03C780
07E600
0E7800
1C3C00
381E00
000000
000000
07E000
1FF800
3FFC00
7C3E00
701E00
700E00
000E00
000E00
07FE00
3FFE00
7FFE00
780E00
F00E00
E00E00
F01E00
F83E00
7FFE00
3FEE00
0F8F00
ENDCHAR
STARTCHAR uni1EAA
ENCODING 7850
SWIDTH 652 0
DWIDTH 23 0
BBX 23 35 0 0
BITMAP
00F100
01FF00
018E00
000000
003C00
00FE00
01C780
0781C0
000000
003800
007C00
007C00
007C00
00EE00
00EE00
00EE00
01C700
01C700
03C780
038380
038380
0701C0
0701C0
0701C0
0E00E0
0FFFE0
1FFFF0
1FFFF0
1C0070
3C0078
380038
380038
78003C
70001C
F0001E
ENDCHAR
STARTCHAR uni1EAB
ENCODING 7851
SWIDTH 543 0
DWIDTH 20 0
BBX 16 29 2 0
BITMAP
0718
0FF0
08F0
0000
03C0
07F0
1E38
381E
0000
0000
07E0
1FF8
3FFC
7C3E
701E
700E
000E
000E
07FE
3FFE
7FFE
780E
F00E
E00E
F01E
F83E
7FFE
3FEE
0F8F
ENDCHAR
STARTCHAR uni1EAC
ENCODING 7852
SWIDTH 652 0
DWIDTH 23 0
BBX 23 39 0 -6
BITMAP
003800
007C00
00EE00
01E700
03C380
000000
000000
003800
007C00
007C00
007C00
00EE00
00EE00
00EE00
01C700
01C700
03C780
038380
038380
0701C0
0701C0
0701C0
0E00E0
0FFFE0
1FFFF0
1FFFF0
1C0070
3C0078
380038
380038
78003C
70001C
F0001E
000000
000000
001800
003C00
003C00
001800
ENDCHAR
STARTCHAR uni1EAD
ENCODING 7853
SWIDTH 543 0
DWIDTH 20 0
BBX 16 33 2 -6
BITMAP
01C0
03E0
0770
0E38
1C3C
0000
0000
0000
07E0
1FF8
3FFC
7C3E
701E
700E
000E
000E
07FE
3FFE
7FFE
780E
F00E
E00E
F01E
F83E
7FFE
3FEE
0F8F
0000
0000
0700
0780
0780
0700
ENDCHAR
STARTCHAR uni1EAE
ENCODING 7854
SWIDTH 652 0
DWIDTH 23 0
BBX 23 35 0 0
BITMAP
000E00
001C00
001800
038380
01C380
01FF00
007E00
000000
000000
003800
007C00
007C00
007C00
00EE00
00EE00
00EE00
01C700
01C700
03C780
038380
038380
0701C0
0701C0
0701C0
0E00E0
0FFFE0
1FFFF0
1FFFF0
1C0070
3C0078
380038
380038
78003C
70001C
F0001E
ENDCHAR
STARTCHAR uni1EAF
ENCODING 7855
SWIDTH 543 0
DWIDTH 20 0
BBX 16 28 2 0
BITMAP
0070
00C0
0180
1C18
1C38
0FF0
07E0
0000
0000
07E0
1FF8
3FFC
7C3E
701E
700E
000E
000E
07FE
3FFE
7FFE
780E
F00E
E00E
F01E
F83E
7FFE
3FEE
0F8F
ENDCHAR
STARTCHAR uni1EB0
ENCODING 7856
SWIDTH 652 0
DWIDTH 23 0
BBX 23 35 0 0
BITMAP
00E000
003000
001800
038380
01C380
01FF00
007E00
000000
000000
003800
007C00
007C00
007C00
00EE00
00EE00
00EE00
01C700
01C700
03C780
038380
038380
0701C0
0701C0
0701C0
0E00E0
0FFFE0
1FFFF0
1FFFF0
1C0070
3C0078
380038
380038
78003C
70001C
F0001E
ENDCHAR
STARTCHAR uni1EB1
ENCODING 7857
SWIDTH 543 0
DWIDTH 20 0
BBX 16 28 2 0
BITMAP
0700
0380
0180
1C18
1C38
0FF0
07E0
0000
0000
07E0
1FF8
3FFC
7C3E
701E
700E
000E
000E
07FE
3FFE
7FFE
780E
F00E
E00E
F01E
F83E
7FFE
3FEE
0F8F
ENDCHAR
STARTCHAR uni1EB2
ENCODING 7858
SWIDTH 652 0
DWIDTH 23 0
BBX 23 38 0 0
BITMAP
003C00
001E00
000600
001F00
001C00
001800
038380
01C700
01FF00
007C00
000000
000000
003800
007C00
007C00
007C00
00EE00
00EE00
00EE00
01C700
01C700
03C780
038380
038380
0701C0
0701C0
0701C0
0E00E0
0FFFE0
1FFFF0
1FFFF0
1C0070
3C0078
380038
380038
78003C
70001C
F0001E
ENDCHAR
STARTCHAR uni1EB3
ENCODING 7859
SWIDTH 543 0
DWIDTH 20 0
BBX 16 31 2 0
BITMAP
01C0
01F0
0070
00F0
01E0
0180
1838
1C38
0FF0
07E0
0000
0000
07E0
1FF8
3FFC
7C3E
701E
700E
000E
000E
07FE
3FFE
7FFE
780E
F00E
E00E
F01E
F83E
7FFE
3FEE
0F8F
ENDCHAR
STARTCHAR uni1EB4
ENCODING 7860
SWIDTH 652 0
DWIDTH 23 0
BBX 23 37 0 0
BITMAP
00F180
01FF00
018E00
000000
000000
038380
01C380
01FF00
007C00
000000
000000
003800
007C00
007C00
007C00
00EE00
00EE00
00EE00
01C700
01C700
03C780
038380
038380
0701C0
0701C0
0701C0
0E00E0
0FFFE0
1FFFF0
1FFFF0
1C0070
3C0078
380038
380038
78003C
70001C
F0001E
ENDCHAR
STARTCHAR uni1EB5
ENCODING 7861
SWIDTH 543 0
DWIDTH 20 0
BBX 16 30 2 0
BITMAP
0718
0FF8
18F0
0000
0000
1C18
1C38
0FF0
07E0
0000
0000
07E0
1FF8
3FFC
7C3E
701E
700E
000E
000E
07FE
3FFE
7FFE
780E
F00E
E00E
F01E
F83E
7FFE
3FEE
0F8F
ENDCHAR
STARTCHAR uni1EB6
ENCODING 7862
SWIDTH 652 0
DWIDTH 23 0
BBX 23 38 0 -6
BITMAP
038380
018380
01C700
00FF00
007C00
000000
003800
007C00
007C00
007C00
00EE00
00EE00
00EE00
01C700
01C700
03C780
038380
038380
0701C0
0701C0
0701C0
0E00E0
0FFFE0
1FFFF0
1FFFF0
1C0070
3C0078
380038
380038
78003C
70001C
F0001E
000000
000000
001800
003C00
003C00
001800
ENDCHAR
STARTCHAR uni1EB7
ENCODING 7863
SWIDTH 543 0
DWIDTH 20 0
BBX 16 33 2 -6
BITMAP
1818
1C38
1C38
0FF0
07C0
0000
0000
0000
07E0
1FF8
3FFC
7C3E
701E
700E
000E
000E
07FE
3FFE
7FFE
780E
F00E
E00E
F01E
F83E
7FFE
3FEE
0F8F
0000
0000
0700
0780
0780
0700
ENDCHAR
STARTCHAR uni1EB8
ENCODING 7864
SWIDTH 568 0
DWIDTH 20 0
BBX 16 32 3 -6
BITMAP
FFFF
FFFF
FFFF
E000
E000
E000
E000
E000
E000
E000
E000
FFFC
FFFC
FFFC
E000
E000
E000
E000
E000
E000
E000
E000
E000
FFFF
FFFF
FFFF
0000
0000
0380
03C0
03C0
0380
ENDCHAR
STARTCHAR uni1EB9
ENCODING 7865
SWIDTH 529 0
DWIDTH 19 0
BBX 16 25 2 -6
BITMAP
07E0
1FF8
3FFC
7C3C
701E
F00E
E00E
E00F
FFFF
FFFF
FFFF
E000
E000
F000
7004
7C1E
3FFE
1FF8
07F0
0000
0000
0180
03C0
03C0
0380
ENDCHAR
STARTCHAR uni1EBA
ENCODING 7866
SWIDTH 568 0
DWIDTH 20 0
BBX 16 35 3 0
BITMAP
03C0
03E0
0070
0070
01F0
01C0
0180
0000
0000
FFFF
FFFF
FFFF
E000
E000
E000
E000
E000
E000
E000
E000
FFFC
FFFC
FFFC
E000
E000
E000
E000
E000
E000
E000
E000
E000
FFFF
FFFF
FFFF
ENDCHAR
STARTCHAR uni1EBB
ENCODING 7867
SWIDTH 529 0
DWIDTH 19 0
BBX 16 29 2 0
BITMAP
01C0
03E0
0070
0070
01F0
01C0
0180
0000
0000
0000
07E0
1FF8
3FFC
7C3C
701E
F00E
E00E
E00F
FFFF
FFFF
FFFF
E000
E000
F000
7004
7C1E
3FFE
1FF8
07F0
ENDCHAR
STARTCHAR uni1EBC
ENCODING 7868
SWIDTH 568 0
DWIDTH 20 0
BBX 16 32 3 0
BITMAP
0E0C
3F9C
31F8
30F0
0000
0000
FFFF
FFFF
FFFF
E000
E000
E000
E000
E000
E000
E000
E000
FFFC
FFFC
FFFC
E000
E000
E000
E000
E000
E000
E000
E000
E000
FFFF
FFFF
FFFF
ENDCHAR
STARTCHAR uni1EBD
ENCODING 7869
SWIDTH 529 0
DWIDTH 19 0
BBX 16 26 2 0
BITMAP
0E0C
3F9C
39F8
3070
0000
0000
0000
07E0
1FF8
3FFC
7C3C
701E
F00E
E00E
E00F
FFFF
FFFF
FFFF
E000
E000
F000
7004
7C1E
3FFE
1FF8
07F0
ENDCHAR
STARTCHAR uni1EBE
ENCODING 7870
SWIDTH 568 0
DWIDTH 20 0
BBX 19 35 3 0
BITMAP
0001E0
0001C0
000380
03C380
07E700
0EF000
1C7800
783C00
000000
FFFF00
FFFF00
FFFF00
E00000
E00000
E00000
E00000
E00000
E00000
E00000
E00000
FFFC00
FFFC00
FFFC00
E00000
E00000
E00000
E00000
E00000
E00000
E00000
E00000
E00000
FFFF00
FFFF00
FFFF00
ENDCHAR
STARTCHAR uni1EBF
ENCODING 7871
SWIDTH 529 0
DWIDTH 19 0
BBX 19 29 2 0
BITMAP
0001E0
0001C0
000380
03C380
07E700
0EF000
1C7800
783C00
000000
000000
07E000
1FF800
3FFC00
7C3C00
701E00
F00E00
E00E00
E00F00
FFFF00
FFFF00
FFFF00
E00000
E00000
F00000
700400
7C1E00
3FFE00
1FF800
07F000
ENDCHAR
STARTCHAR uni1EC0
ENCODING 7872
SWIDTH 568 0
DWIDTH 20 0
BBX 19 35 0 0
BITMAP
F00000
700000
780000
387800
1CFC00
01DE00
038F00
0F0780
000000
1FFFE0
1FFFE0
1FFFE0
1C0000
1C0000
1C0000
1C0000
1C0000
1C0000
1C0000
1C0000
1FFF80
1FFF80
1FFF80
1C0000
1C0000
1C0000
1C0000
1C0000
1C0000
1C0000
1C0000
1C0000
1FFFE0
1FFFE0
1FFFE0
ENDCHAR
STARTCHAR uni1EC1
ENCODING 7873
SWIDTH 529 0
DWIDTH 19 0
BBX 19 29 -1 0
BITMAP
F00000
700000
380000
387800
1CFC00
01DE00
038F00
0F0780
000000
000000
00FC00
03FF00
07FF80
0F8780
0E03C0
1E01C0
1C01C0
1C01E0
1FFFE0
1FFFE0
1FFFE0
1C0000
1C0000
1E0000
0E0080
0F83C0
07FFC0
03FF00
00FE00
ENDCHAR
STARTCHAR uni1EC2
ENCODING 7874
SWIDTH 568 0
DWIDTH 20 0
BBX 17 36 3 0
BITMAP
000700
000780
000180
000380
03C700
07E600
0E7000
3C3800
781C00
000000
FFFF00
FFFF00
FFFF00
E00000
E00000
E00000
E00000
E00000
E00000
E00000
E00000
FFFC00
FFFC00
FFFC00
E00000
E00000
E00000
E00000
E00000
E00000
E00000
E00000
E00000
FFFF00
FFFF00
FFFF00
ENDCHAR
STARTCHAR uni1EC3
ENCODING 7875
SWIDTH 529 0
DWIDTH 19 0
BBX 17 30 2 0
BITMAP
000700
000780
000180
000180
03C700
07E600
0E7000
1C3800
781C00
000000
000000
07E000
1FF800
3FFC00
7C3C00
701E00
F00E00
E00E00
E00F00
FFFF00
FFFF00
FFFF00
E00000
E00000
F00000
700400
7C1E00
3FFE00
1FF800
07F000
ENDCHAR
STARTCHAR uni1EC4
ENCODING 7876
SWIDTH 568 0
DWIDTH 20 0
BBX 16 35 3 0
BITMAP
0F10
0FF0
18E0
0000
03C0
0FE0
1C78
781C
0000
FFFF
FFFF
FFFF
E000
E000
E000
E000
E000
E000
E000
E000
FFFC
FFFC
FFFC
E000
E000
E000
E000
E000
E000
E000
E000
E000
FFFF
FFFF
FFFF
ENDCHAR
STARTCHAR uni1EC5
ENCODING 7877
SWIDTH 529 0
DWIDTH 19 0
BBX 16 29 2 0
BITMAP
0718
0FF0
18E0
0000
03C0
0FE0
1C78
781C
0000
0000
07E0
1FF8
3FFC
7C3C
701E
F00E
E00E
E00F
FFFF
FFFF
FFFF
E000
E000
F000
7004
7C1E
3FFE
1FF8
07F0
ENDCHAR
STARTCHAR uni1EC6
ENCODING 7878
SWIDTH 568 0
DWIDTH 20 0
BBX 16 39 3 -6
BITMAP
0380
07C0
0EE0
1E70
1C38
0000
0000
FFFF
FFFF
FFFF
E000
E000
E000
E000
E000
E000
E000
E000
FFFC
FFFC
FFFC
E000
E000
E000
E000
E000
E000
E000
E000
E000
FFFF
FFFF
FFFF
0000
0000
0380
03C0
03C0
0380
ENDCHAR
STARTCHAR uni1EC7
ENCODING 7879
SWIDTH 529 0
DWIDTH 19 0
BBX 16 33 2 -6
BITMAP
0380
07C0
0FE0
1E70
1C38
0000
0000
0000
07E0
1FF8
3FFC
7C3C
701E
F00E
E00E
E00F
FFFF
FFFF
FFFF
E000
E000
F000
7004
7C1E
3FFE
1FF8
07F0
0000
0000
0180
03C0
03C0
0380
ENDCHAR
STARTCHAR uni1EC8
ENCODING 7880
SWIDTH 271 0
DWIDTH 10 0
BBX 6 35 3 0
BITMAP
70
F8
1C
1C
7C
70
60
00
00
F0
F0
F0
F0
F0
F0
F0
F0
F0
F0
F0
F0
F0
F0
F0
F0
F0
F0
F0
F0
F0
F0
F0
F0
F0
F0
ENDCHAR
STARTCHAR uni1EC9
ENCODING 7881
SWIDTH 247 0
DWIDTH 9 0
BBX 5 29 3 0
BITMAP
E0
F8
18
18
F8
F0
E0
00
00
00
E0
E0
E0
E0
E0
E0
E0
E0
E0
E0
E0
E0
E0
E0
E0
E0
E0
E0
E0
ENDCHAR
STARTCHAR uni1ECA
ENCODING 7882
SWIDTH 271 0
DWIDTH 10 0
BBX 4 32 3 -6
BITMAP
F0
F0
F0
F0
F0
F0
F0
F0
F0
F0
F0
F0
F0
F0
F0
F0
F0
F0
F0
F0
F0
F0
F0
F0
F0
F0
00
00
E0
F0
F0
E0
ENDCHAR
STARTCHAR uni1ECB
ENCODING 7883
SWIDTH 242 0
DWIDTH 9 0
BBX 4 32 2 -6
BITMAP
70
70
70
70
00
00
00
70
70
70
70
70
70
70
70
70
70
70
70
70
70
70
70
70
70
70
00
00
70
F0
F0
70
ENDCHAR
STARTCHAR uni1ECC
ENCODING 7884
SWIDTH 687 0
DWIDTH 25 0
BBX 21 32 2 -6
BITMAP
01FC00
07FF00
0FFF80
1F07C0
3C01E0
7800E0
7800F0
700070
F00070
F00070
F00078
E00078
E00078
E00078
E00078
F00078
F00070
F00070
700070
7800F0
7800E0
3C01E0
1F07C0
0FFF80
07FF00
01FC00
000000
000000
007000
00F000
00F000
007000
ENDCHAR
STARTCHAR uni1ECD
ENCODING 7885
SWIDTH 570 0
DWIDTH 21 0
BBX 17 25 2 -6
BITMAP
07E000
1FFC00
3FFE00
7C1E00
780F00
F00780
F00780
E00380
E00380
E00380
E00380
E00380
F00780
F00780
780F00
7C1E00
3FFE00
1FFC00
07F000
000000
000000
01C000
03C000
03C000
01C000
ENDCHAR
STARTCHAR uni1ECE
ENCODING 7886
SWIDTH 687 0
DWIDTH 25 0
BBX 21 35 2 0
BITMAP
007000
007C00
001C00
000C00
007C00
007800
007000
000000
000000
01FC00
07FF00
0FFF80
1F07C0
3C01E0
7800E0
7800F0
700070
F00070
F00070
F00078
E00078
E00078
E00078
E00078
F00078
F00070
F00070
700070
7800F0
7800E0
3C01E0
1F07C0
0FFF80
07FF00
01FC00
ENDCHAR
STARTCHAR uni1ECF
ENCODING 7887
SWIDTH 570 0
DWIDTH 21 0
BBX 17 29 2 0
BITMAP
01C000
01E000
007000
007000
01F000
01E000
018000
000000
000000
000000
07E000
1FFC00
3FFE00
7C1E00
780F00
F00780
F00780
E00380
E00380
E00380
E00380
E00380
F00780
F00780
780F00
7C1E00
3FFE00
1FFC00
07F000
ENDCHAR
STARTCHAR uni1ED0
ENCODING 7888
SWIDTH 687 0
DWIDTH 25 0
BBX 22 35 2 0
BITMAP
00003C
000078
000070
0070E0
01F8C0
03DE00
078F00
0F0780
000000
01FC00
07FF00
0FFF80
1F07C0
3C01E0
7800E0
7800F0
700070
F00070
F00070
F00078
E00078
E00078
E00078
E00078
F00078
F00070
F00070
700070
7800F0
7800E0
3C01E0
1F07C0
0FFF80
07FF00
01FC00
ENDCHAR
STARTCHAR uni1ED1
ENCODING 7889
SWIDTH 570 0
DWIDTH 21 0
BBX 19 29 2 0
BITMAP
0001E0
0001C0
0003C0
03C380
07E700
0F7000
1E3800
3C1E00
000000
000000
07E000
1FFC00
3FFE00
7C1E00
780F00
F00780
F00780
E00380
E00380
E00380
E00380
E00380
F00780
F00780
780F00
7C1E00
3FFE00
1FFC00
07F000
ENDCHAR
STARTCHAR uni1ED2
ENCODING 7890
SWIDTH 687 0
DWIDTH 25 0
BBX 22 35 1 0
BITMAP
F00000
780000
380000
1C7800
1CFC00
01EF00
03C780
0783C0
000000
00FE00
03FF80
07FFC0
0F83E0
1E00F0
3C0070
3C0078
380038
780038
780038
78003C
70003C
70003C
70003C
70003C
78003C
780038
780038
380038
3C0078
3C0070
1E00F0
0F83E0
07FFC0
03FF80
00FE00
ENDCHAR
STARTCHAR uni1ED3
ENCODING 7891
SWIDTH 570 0
DWIDTH 21 0
BBX 20 29 -1 0
BITMAP
F00000
700000
380000
387800
1CFC00
01EE00
03C700
0783C0
000000
000000
00FC00
03FF80
07FFC0
0F83C0
0F01E0
1E00F0
1E00F0
1C0070
1C0070
1C0070
1C0070
1C0070
1E00F0
1E00F0
0F01E0
0F83C0
07FFC0
03FF80
00FE00
ENDCHAR
STARTCHAR uni1ED4
ENCODING 7892
SWIDTH 687 0
DWIDTH 25 0
BBX 21 36 2 0
BITMAP
0001C0
0001E0
000070
000070
00F9E0
01FD80
039E00
070F00
0E0780
000000
01FC00
07FF00
0FFF80
1F07C0
3C01E0
7800E0
7800F0
700070
F00070
F00070
F00078
E00078
E00078
E00078
E00078
F00078
F00070
F00070
700070
7800F0
7800E0
3C01E0
1F07C0
0FFF80
07FF00
01FC00
ENDCHAR
STARTCHAR uni1ED5
ENCODING 7893
SWIDTH 570 0
DWIDTH 21 0
BBX 17 30 2 0
BITMAP
000700
000780
000180
000180
03C700
07E600
0E7000
1C3800
381E00
000000
000000
07E000
1FFC00
3FFE00
7C1E00
780F00
F00780
F00780
E00380
E00380
E00380
E00380
E00380
F00780
F00780
780F00
7C1E00
3FFE00
1FFC00
07F000
ENDCHAR
STARTCHAR uni1ED6
ENCODING 7894
SWIDTH 687 0
DWIDTH 25 0
BBX 21 35 2 0
BITMAP
01C600
03FE00
023C00
000000
00F000
01FC00
078E00
0F0780
000000
01FC00
07FF00
0FFF80
1F07C0
3C01E0
7800E0
7800F0
700070
F00070
F00070
F00078
E00078
E00078
E00078
E00078
F00078
F00070
F00070
700070
7800F0
7800E0
3C01E0
1F07C0
0FFF80
07FF00
01FC00
ENDCHAR
STARTCHAR uni1ED7
ENCODING 7895
SWIDTH 570 0
DWIDTH 21 0
BBX 17 29 2 0
BITMAP
071800
0FF000
18E000
000000
03C000
07E000
1E3800
381E00
000000
000000
07E000
1FFC00
3FFE00
7C1E00
780F00
F00780
F00780
E00380
E00380
E00380
E00380
E00380
F00780
F00780
780F00
7C1E00
3FFE00
1FFC00
07F000
ENDCHAR
STARTCHAR uni1ED8
ENCODING 7896
SWIDTH 687 0
DWIDTH 25 0
BBX 21 39 2 -6
BITMAP
007000
00F800
01DC00
038E00
070700
000000
000000
01FC00
07FF00
0FFF80
1F07C0
3C01E0
7800E0
7800F0
700070
F00070
F00070
F00078
E00078
E00078
E00078
E00078
F00078
F00070
F00070
700070
7800F0
7800E0
3C01E0
1F07C0
0FFF80
07FF00
01FC00
000000
000000
007000
00F000
00F000
007000
ENDCHAR
STARTCHAR uni1ED9
ENCODING 7897
SWIDTH 570 0
DWIDTH 21 0
BBX 17 33 2 -6
BITMAP
01C000
03E000
077000
0E7800
1C3800
000000
000000
000000
07E000
1FFC00
3FFE00
7C1E00
780F00
F00780
F00780
E00380
E00380
E00380
E00380
E00380
F00780
F00780
780F00
7C1E00
3FFE00
1FFC00
07F000
000000
000000
01C000
03C000
03C000
01C000
ENDCHAR
STARTCHAR uni1EDA
ENCODING 7898
SWIDTH 686 0
DWIDTH 25 0
BBX 23 33 2 0
BITMAP
000F00
001C00
003C00
007800
007000
00000E
00000E
01FC0E
07FF0E
0FFFBC
1F07FC
3C03F0
7801E0
7000F0
7000F0
F00070
E00070
E00070
E00070
E00078
E00078
E00070
E00070
E00070
F00070
7000F0
7000F0
7801E0
3C01E0
1F07C0
0FFF80
07FF00
01F800
ENDCHAR
STARTCHAR uni1EDB
ENCODING 7899
SWIDTH 571 0
DWIDTH 21 0
BBX 19 26 2 0
BITMAP
007C00
007000
00E000
01C000
03C000
000060
000060
07F060
1FF8E0
3FFFC0
7C1F80
780F00
F00700
F00780
E00380
E00380
E00380
E00380
E00380
F00780
F00780
780F00
7C1E00
3FFE00
1FFC00
07E000
ENDCHAR
STARTCHAR uni1EDC
ENCODING 7900
SWIDTH 686 0
DWIDTH 25 0
BBX 23 33 2 0
BITMAP
078000
03C000
01E000
00E000
007000
00000E
00000E
01FC0E
07FF0E
0FFFBC
1F07FC
3C03F0
7801E0
7000F0
7000F0
F00070
E00070
E00070
E00070
E00078
E00078
E00070
E00070
E00070
F00070
7000F0
7000F0
7801E0
3C01E0
1F07C0
0FFF80
07FF00
01F800
ENDCHAR
STARTCHAR uni1EDD
ENCODING 7901
SWIDTH 571 0
DWIDTH 21 0
BBX 19 26 2 0
BITMAP
1E0000
0F0000
078000
038000
01C000
000060
000060
07F060
1FF8E0
3FFFC0
7C1F80
780F00
F00700
F00780
E00380
E00380
E00380
E00380
E00380
F00780
F00780
780F00
7C1E00
3FFE00
1FFC00
07E000
ENDCHAR
STARTCHAR uni1EDE
ENCODING 7902
SWIDTH 686 0
DWIDTH 25 0
BBX 23 35 2 0
BITMAP
007000
007C00
001C00
000C00
007C00
007800
007000
00000E
00000E
01FC0E
07FF0E
0FFFBC
1F07FC
3C03F0
7801E0
7000F0
7000F0
F00070
E00070
E00070
E00070
E00078
E00078
E00070
E00070
E00070
F00070
7000F0
7000F0
7801E0
3C01E0
1F07C0
0FFF80
07FF00
01F800
ENDCHAR
STARTCHAR uni1EDF
ENCODING 7903
SWIDTH 571 0
DWIDTH 21 0
BBX 19 29 2 0
BITMAP
01C000
01F000
007000
003000
01F000
01E000
018000
000000
000060
000060
07F060
1FF8E0
3FFFC0
7C1F80
780F00
F00700
F00780
E00380
E00380
E00380
E00380
E00380
F00780
F00780
780F00
7C1E00
3FFE00
1FFC00
07E000
ENDCHAR
STARTCHAR uni1EE0
ENCODING 7904
SWIDTH 686 0
DWIDTH 25 0
BBX 23 32 2 0
BITMAP
03C380
07E300
0E3F00
0C1E00
00000E
00000E
01FC0E
07FF0E
0FFFBC
1F07FC
3C03F0
7801E0
7000F0
7000F0
F00070
E00070
E00070
E00070
E00078
E00078
E00070
E00070
E00070
F00070
7000F0
7000F0
7801E0
3C01E0
1F07C0
0FFF80
07FF00
01F800
ENDCHAR
STARTCHAR uni1EE1
ENCODING 7905
SWIDTH 571 0
DWIDTH 21 0
BBX 19 26 2 0
BITMAP
0E0C00
1F8C00
39FC00
307800
000000
000060
000060
07F060
1FF8E0
3FFFC0
7C1F80
780F00
F00700
F00780
E00380
E00380
E00380
E00380
E00380
F00780
F00780
780F00
7C1E00
3FFE00
1FFC00
07E000
ENDCHAR
STARTCHAR uni1EE2
ENCODING 7906
SWIDTH 686 0
DWIDTH 25 0
BBX 23 34 2 -6
BITMAP
00000E
00000E
01FC0E
07FF0E
0FFFBC
1F07FC
3C03F0
7801E0
7000F0
7000F0
F00070
E00070
E00070
E00070
E00078
E00078
E00070
E00070
E00070
F00070
7000F0
7000F0
7801E0
3C01E0
1F07C0
0FFF80
07FF00
01F800
000000
000000
006000
00F000
00F000
006000
ENDCHAR
STARTCHAR uni1EE3
ENCODING 7907
SWIDTH 571 0
DWIDTH 21 0
BBX 19 27 2 -6
BITMAP
000060
000060
07F060
1FF8E0
3FFFC0
7C1F80
780F00
F00700
F00780
E00380
E00380
E00380
E00380
E00380
F00780
F00780
780F00
7C1E00
3FFE00
1FFC00
07E000
000000
000000
018000
03C000
03C000
018000
ENDCHAR
STARTCHAR uni1EE4
ENCODING 7908
SWIDTH 648 0
DWIDTH 23 0
BBX 19 32 2 -6
BITMAP
F001E0
F001E0
F001E0
F001E0
F001E0
F001E0
F001E0
F001E0
F001E0
F001E0
F001E0
F001E0
F001E0
F001E0
F001E0
F001E0
F001E0
F001E0
F001E0
F001E0
7001C0
7803C0
3E0F80
1FFF00
0FFE00
03F800
000000
000000
00E000
00E000
00F000
00E000
ENDCHAR
STARTCHAR uni1EE5
ENCODING 7909
SWIDTH 551 0
DWIDTH 20 0
BBX 15 25 2 -6
BITMAP
F00E
F00E
F00E
F00E
F00E
F00E
F00E
F00E
F00E
F00E
F00E
F00E
F00E
700E
701E
783E
7FFE
3FFE
0FCE
0000
0000
0700
0780
0780
0700
ENDCHAR
STARTCHAR uni1EE6
ENCODING 7910
SWIDTH 648 0
DWIDTH 23 0
BBX 19 35 2 0
BITMAP
00F000
00F800
001C00
001C00
007800
007000
006000
000000
000000
F001E0
F001E0
F001E0
F001E0
F001E0
F001E0
F001E0
F001E0
F001E0
F001E0
F001E0
F001E0
F001E0
F001E0
F001E0
F001E0
F001E0
F001E0
F001E0
F001E0
7001C0
7803C0
3E0F80
1FFF00
0FFE00
03F800
ENDCHAR
STARTCHAR uni1EE7
ENCODING 7911
SWIDTH 551 0
DWIDTH 20 0
BBX 15 29 2 0
BITMAP
01C0
01E0
0270
0070
01F0
01C0
0180
0000
0000
0000
F00E
F00E
F00E
F00E
F00E
F00E
F00E
F00E
F00E
F00E
F00E
F00E
F00E
700E
701E
783E
7FFE
3FFE
0FCE
ENDCHAR
ENDFONT
